<svg width="14" height="9" viewBox="0 0 14 9" fill="none" xmlns="http://www.w3.org/2000/svg">
<path fill-rule="evenodd" clip-rule="evenodd" d="M0.396147 0.336144C0.515313 0.223619 0.655082 0.136095 0.807472 0.0785729C0.959863 0.0210504 1.12189 -0.00534383 1.2843 0.000896188C1.44671 0.0071362 1.60632 0.0458885 1.75402 0.114941C1.90172 0.183993 2.03462 0.281992 2.14511 0.403342L6.60002 5.28859L11.0549 0.403342C11.2781 0.158291 11.5878 0.013543 11.9157 0.000941047C12.2437 -0.0116609 12.5632 0.108916 12.8039 0.336144C13.0446 0.563373 13.1867 0.878642 13.1991 1.21259C13.2115 1.54655 13.0931 1.87183 12.8699 2.11688L7.5075 7.99665C7.39166 8.12387 7.25127 8.22536 7.09511 8.29477C6.93896 8.36417 6.77041 8.4 6.60002 8.4C6.42964 8.4 6.26109 8.36417 6.10493 8.29477C5.94878 8.22536 5.80838 8.12387 5.69254 7.99665L0.330149 2.11688C0.21963 1.99555 0.133668 1.85324 0.077172 1.69808C0.0206757 1.54292 -0.00524852 1.37795 0.00088018 1.21259C0.00700888 1.04723 0.0450707 0.88472 0.112891 0.734338C0.180712 0.583956 0.276962 0.448649 0.396147 0.336144Z" fill="#5C5F62"/>
</svg>
