<svg width="14" height="9" viewBox="0 0 14 9" fill="none" xmlns="http://www.w3.org/2000/svg">
<path fill-rule="evenodd" clip-rule="evenodd" d="M0.396147 8.66386C0.515312 8.77638 0.655082 8.8639 0.807472 8.92143C0.959863 8.97895 1.12189 9.00534 1.2843 8.9991C1.44671 8.99286 1.60632 8.95411 1.75402 8.88506C1.90172 8.81601 2.03462 8.71801 2.14511 8.59666L6.60002 3.71141L11.0549 8.59666C11.2781 8.84171 11.5878 8.98646 11.9157 8.99906C12.2437 9.01166 12.5632 8.89108 12.8039 8.66386C13.0446 8.43663 13.1867 8.12136 13.1991 7.78741C13.2115 7.45345 13.0931 7.12817 12.8699 6.88312L7.5075 1.00335C7.39166 0.876131 7.25127 0.774638 7.09511 0.705232C6.93896 0.635825 6.77041 0.6 6.60002 0.6C6.42964 0.6 6.26109 0.635825 6.10493 0.705232C5.94878 0.774638 5.80838 0.876131 5.69254 1.00335L0.330149 6.88312C0.21963 7.00445 0.133668 7.14676 0.077172 7.30192C0.0206757 7.45708 -0.00524852 7.62205 0.00088018 7.78741C0.00700888 7.95277 0.0450707 8.11528 0.112891 8.26566C0.180712 8.41604 0.276962 8.55135 0.396147 8.66386Z" fill="#5C5F62"/>
</svg>
