<svg width="7" height="13" viewBox="0 0 7 13" fill="none" xmlns="http://www.w3.org/2000/svg">
<mask id="path-1-inside-1_874_1745" fill="white">
<path d="M0.667042 0.5C0.667042 0.5 6.66699 4.9189 6.66699 6.5C6.66699 8.0812 0.666992 12.5 0.666992 12.5"/>
</mask>
<path d="M1.26006 -0.305191C0.815362 -0.632705 0.189363 -0.53771 -0.13815 -0.0930147C-0.465663 0.35168 -0.370668 0.977678 0.0740268 1.30519L1.26006 -0.305191ZM0.0739891 11.6948C-0.370711 12.0223 -0.465715 12.6483 -0.138208 13.093C0.189299 13.5377 0.815296 13.6327 1.26 13.3052L0.0739891 11.6948ZM0.667042 0.5C0.0740268 1.30519 0.0739824 1.30516 0.0739608 1.30514C0.073984 1.30516 0.073985 1.30516 0.0740311 1.30519C0.0741233 1.30526 0.074306 1.3054 0.0745785 1.3056C0.0751235 1.306 0.0760277 1.30667 0.0772853 1.3076C0.0798007 1.30945 0.0837296 1.31236 0.0890265 1.31628C0.0996207 1.32413 0.115684 1.33605 0.136852 1.35183C0.179192 1.38338 0.241928 1.43034 0.322143 1.49092C0.482621 1.61213 0.71277 1.7877 0.989302 2.0035C1.54342 2.43594 2.27888 3.02617 3.0114 3.66218C3.7489 4.30251 4.46062 4.96967 4.98012 5.55761C5.24087 5.85272 5.43212 6.1044 5.55276 6.30452C5.68996 6.5321 5.66699 6.58086 5.66699 6.5H7.66699C7.66699 6.02387 7.45653 5.58867 7.2656 5.27195C7.05812 4.92779 6.78062 4.57484 6.47888 4.23334C5.87338 3.54805 5.08512 2.81402 4.32263 2.15199C3.55517 1.48564 2.79064 0.872325 2.21977 0.426812C1.9338 0.203643 1.69521 0.0216255 1.52756 -0.104998C1.44371 -0.168328 1.37755 -0.217856 1.332 -0.251803C1.30922 -0.268778 1.29159 -0.281862 1.27948 -0.290833C1.27342 -0.295319 1.26875 -0.298777 1.2655 -0.301179C1.26387 -0.30238 1.2626 -0.303317 1.26169 -0.303987C1.26124 -0.304322 1.26087 -0.30459 1.2606 -0.30479C1.26046 -0.304892 1.26033 -0.304992 1.26026 -0.305041C1.26015 -0.305125 1.26006 -0.305191 0.667042 0.5ZM5.66699 6.5C5.66699 6.41916 5.68995 6.46794 5.55276 6.69551C5.43212 6.89564 5.24087 7.14732 4.98011 7.44243C4.46062 8.03038 3.74889 8.69753 3.01139 9.33785C2.27885 9.97386 1.54339 10.5641 0.98927 10.9965C0.712737 11.2123 0.482586 11.3879 0.322106 11.5091C0.241891 11.5697 0.179155 11.6166 0.136815 11.6482C0.115647 11.6639 0.099583 11.6759 0.0889888 11.6837C0.0836919 11.6876 0.0797629 11.6905 0.0772476 11.6924C0.07599 11.6933 0.0750858 11.694 0.0745408 11.6944C0.0742683 11.6946 0.0740855 11.6947 0.0739934 11.6948C0.0739473 11.6948 0.0739463 11.6948 0.0739231 11.6948C0.0739447 11.6948 0.0739891 11.6948 0.666992 12.5C1.26 13.3052 1.26009 13.3051 1.2602 13.3051C1.26027 13.305 1.2604 13.3049 1.26054 13.3048C1.26081 13.3046 1.26118 13.3043 1.26163 13.304C1.26254 13.3033 1.26381 13.3024 1.26543 13.3012C1.26869 13.2988 1.27336 13.2953 1.27942 13.2908C1.29153 13.2819 1.30916 13.2688 1.33194 13.2518C1.37749 13.2179 1.44366 13.1683 1.5275 13.105C1.69515 12.9784 1.93375 12.7964 2.21971 12.5732C2.79059 12.1277 3.55513 11.5144 4.3226 10.8481C5.0851 10.186 5.87337 9.452 6.47888 8.7667C6.78062 8.4252 7.05812 8.07225 7.2656 7.72807C7.45654 7.41133 7.66699 6.97614 7.66699 6.5H5.66699Z" fill="white" fill-opacity="0.54" mask="url(#path-1-inside-1_874_1745)"/>
</svg>
