<svg width="22" height="22" viewBox="0 0 22 22" fill="none" xmlns="http://www.w3.org/2000/svg">
<path d="M18.3333 3.66602H3.66665C2.64915 3.66602 1.84248 4.48185 1.84248 5.49935L1.83331 16.4993C1.83331 17.5168 2.64915 18.3327 3.66665 18.3327H18.3333C19.3508 18.3327 20.1666 17.5168 20.1666 16.4993V5.49935C20.1666 4.48185 19.3508 3.66602 18.3333 3.66602ZM17.4166 16.4993H4.58331C4.07915 16.4993 3.66665 16.0868 3.66665 15.5827V10.9993H18.3333V15.5827C18.3333 16.0868 17.9208 16.4993 17.4166 16.4993ZM18.3333 7.33268H3.66665V6.41602C3.66665 5.91185 4.07915 5.49935 4.58331 5.49935H17.4166C17.9208 5.49935 18.3333 5.91185 18.3333 6.41602V7.33268Z" fill="black"/>
</svg>
