<svg width="22" height="23" viewBox="0 0 22 23" fill="none" xmlns="http://www.w3.org/2000/svg">
<g clip-path="url(#clip0_102_5223)">
<path d="M11 0.5C12.0098 0.5 12.9837 0.628906 13.9219 0.886719C14.86 1.14453 15.7337 1.51693 16.543 2.00391C17.3522 2.49089 18.0934 3.0638 18.7666 3.72266C19.4398 4.38151 20.0163 5.12272 20.4961 5.94629C20.9759 6.76986 21.3447 7.64714 21.6025 8.57812C21.8604 9.50911 21.9928 10.4831 22 11.5C22 12.5098 21.8711 13.4837 21.6133 14.4219C21.3555 15.36 20.9831 16.2337 20.4961 17.043C20.0091 17.8522 19.4362 18.5934 18.7773 19.2666C18.1185 19.9398 17.3773 20.5163 16.5537 20.9961C15.7301 21.4759 14.8529 21.8447 13.9219 22.1025C12.9909 22.3604 12.0169 22.4928 11 22.5C9.99023 22.5 9.01628 22.3711 8.07812 22.1133C7.13997 21.8555 6.26628 21.4831 5.45703 20.9961C4.64779 20.5091 3.90658 19.9362 3.2334 19.2773C2.56022 18.6185 1.98372 17.8773 1.50391 17.0537C1.02409 16.2301 0.655273 15.3529 0.397461 14.4219C0.139648 13.4909 0.00716146 12.5169 0 11.5C0 10.4902 0.128906 9.51628 0.386719 8.57812C0.644531 7.63997 1.01693 6.76628 1.50391 5.95703C1.99089 5.14779 2.5638 4.40658 3.22266 3.7334C3.88151 3.06022 4.62272 2.48372 5.44629 2.00391C6.26986 1.52409 7.14714 1.15527 8.07812 0.897461C9.00911 0.639648 9.98307 0.507161 11 0.5ZM17.4775 7.8584L16.0166 6.39746L8.9375 13.4766L5.9834 10.5225L4.52246 11.9834L8.9375 16.3984L17.4775 7.8584Z" fill="#5C5F62"/>
</g>
<defs>
<clipPath id="clip0_102_5223">
<rect width="22" height="22" fill="white" transform="translate(0 0.5)"/>
</clipPath>
</defs>
</svg>
