<svg width="9" height="7" viewBox="0 0 9 7" fill="none" xmlns="http://www.w3.org/2000/svg">
<path d="M7.93464 2.03503C8.09362 1.86442 8.18017 1.63877 8.17605 1.40561C8.17194 1.17245 8.07748 0.949984 7.91259 0.785088C7.74769 0.620193 7.52523 0.525738 7.29207 0.521625C7.05891 0.517511 6.83325 0.604058 6.66264 0.763034L3.09864 4.32703L1.63464 2.86303C1.46403 2.70406 1.23838 2.61751 1.00522 2.62162C0.772055 2.62574 0.549593 2.72019 0.384698 2.88509C0.219802 3.04998 0.125348 3.27245 0.121234 3.50561C0.11712 3.73877 0.203668 3.96442 0.362644 4.13503L2.46264 6.23503C2.63139 6.40357 2.86014 6.49824 3.09864 6.49824C3.33714 6.49824 3.56589 6.40357 3.73464 6.23503L7.93464 2.03503Z" fill="#0586C7"/>
</svg>
