<svg width="19" height="22" viewBox="0 0 19 22" fill="none" xmlns="http://www.w3.org/2000/svg">
<path d="M16.999 4.49982L16.3793 14.5249C16.2209 17.0862 16.1418 18.3669 15.4998 19.2877C15.1823 19.7429 14.7737 20.1271 14.2997 20.4158C13.3411 20.9998 12.058 20.9998 9.49172 20.9998C6.92214 20.9998 5.63732 20.9998 4.67807 20.4147C4.20382 20.1255 3.79502 19.7406 3.4777 19.2846C2.8359 18.3624 2.75847 17.0799 2.60363 14.515L1.99902 4.49982" stroke="#003347" stroke-linecap="round"/>
<path d="M0.5 4.5H18.5M13.5557 4.5L12.8731 3.09173C12.4196 2.15626 12.1928 1.68852 11.8017 1.39681C11.715 1.3321 11.6231 1.27454 11.527 1.2247C11.0939 1 10.5741 1 9.5345 1C8.4688 1 7.936 1 7.49568 1.23412C7.3981 1.28601 7.30498 1.3459 7.21729 1.41317C6.82164 1.7167 6.60063 2.20155 6.15861 3.17126L5.55292 4.5" stroke="#003347" stroke-linecap="round"/>
<path d="M6.99902 15.4998V9.49982" stroke="#003347" stroke-linecap="round"/>
<path d="M11.999 15.4998V9.49982" stroke="#003347" stroke-linecap="round"/>
</svg>
