<svg width="15" height="18" viewBox="0 0 15 18" fill="none" xmlns="http://www.w3.org/2000/svg">
<path d="M12.0861 4.98707L11.6145 16.304C11.6053 16.5254 11.4084 16.7137 11.1856 16.7137H2.9571C2.73432 16.7137 2.53738 16.5248 2.52823 16.304L2.05665 4.98707C2.04177 4.63246 1.74222 4.35675 1.38763 4.37167C1.03284 4.38638 0.75731 4.68593 0.772049 5.0407L1.24363 16.3577C1.28147 17.2673 2.04522 17.9996 2.95711 17.9996H11.1856C12.097 17.9996 12.8613 17.2685 12.8991 16.3577L13.3707 5.0407C13.3854 4.68591 13.1099 4.38637 12.7551 4.37167C12.4005 4.35678 12.101 4.63247 12.0861 4.98707H12.0861Z" fill="url(#paint0_linear_917_1230)"/>
<path d="M6.55664 6.04266V14.7855C6.55664 15.0696 6.78677 15.2997 7.07088 15.2997C7.35499 15.2997 7.58511 15.0696 7.58511 14.7855V6.04266C7.58511 5.75854 7.35499 5.52842 7.07088 5.52842C6.78677 5.52842 6.55664 5.75855 6.55664 6.04266Z" fill="url(#paint1_linear_917_1230)"/>
<path d="M3.72874 6.05781L3.98595 14.8006C3.99438 15.0846 4.23114 15.3081 4.51507 15.2996C4.799 15.2914 5.02251 15.0544 5.01406 14.7705L4.75684 6.02769C4.74859 5.74375 4.51165 5.52025 4.22773 5.5287C3.94379 5.53695 3.72047 5.77389 3.72874 6.05781Z" fill="url(#paint2_linear_917_1230)"/>
<path d="M9.38635 6.02751L9.12914 14.7703C9.12071 15.0543 9.3442 15.2912 9.62813 15.2994C9.91207 15.3079 10.1488 15.0844 10.1572 14.8004L10.4145 6.05763C10.4227 5.77369 10.1994 5.53674 9.91547 5.52852C9.63153 5.52009 9.39457 5.74358 9.38635 6.02751Z" fill="url(#paint3_linear_917_1230)"/>
<path d="M0.642853 3.47125H13.4999C13.8549 3.47125 14.1428 3.18337 14.1428 2.8284C14.1428 2.47325 13.8549 2.18555 13.4999 2.18555H0.642853C0.287883 2.18555 0 2.47325 0 2.8284C0 3.18337 0.287883 3.47125 0.642853 3.47125Z" fill="url(#paint4_linear_917_1230)"/>
<path d="M5.11804 2.61946L5.38566 1.68264C5.44306 1.48193 5.70314 1.2857 5.91211 1.2857H8.2306C8.43957 1.2857 8.69966 1.48175 8.75706 1.68264L9.02467 2.61946L10.2609 2.26629L9.99326 1.32928C9.77802 0.576456 9.01355 0 8.2306 0H5.91211C5.12916 0 4.36453 0.576685 4.14945 1.32928L3.88184 2.26629L5.11804 2.61946Z" fill="url(#paint5_linear_917_1230)"/>
<defs>
<linearGradient id="paint0_linear_917_1230" x1="7.07137" y1="4.37109" x2="7.07137" y2="6.8662" gradientUnits="userSpaceOnUse">
<stop stop-color="white"/>
<stop offset="1" stop-color="#F9F6EF"/>
</linearGradient>
<linearGradient id="paint1_linear_917_1230" x1="7.07088" y1="5.52842" x2="7.07088" y2="7.31734" gradientUnits="userSpaceOnUse">
<stop stop-color="white"/>
<stop offset="1" stop-color="#F9F6EF"/>
</linearGradient>
<linearGradient id="paint2_linear_917_1230" x1="4.3714" y1="5.52847" x2="4.3714" y2="7.31741" gradientUnits="userSpaceOnUse">
<stop stop-color="white"/>
<stop offset="1" stop-color="#F9F6EF"/>
</linearGradient>
<linearGradient id="paint3_linear_917_1230" x1="9.77179" y1="5.52829" x2="9.77179" y2="7.31723" gradientUnits="userSpaceOnUse">
<stop stop-color="white"/>
<stop offset="1" stop-color="#F9F6EF"/>
</linearGradient>
<linearGradient id="paint4_linear_917_1230" x1="7.07138" y1="2.18555" x2="7.07138" y2="2.42093" gradientUnits="userSpaceOnUse">
<stop stop-color="white"/>
<stop offset="1" stop-color="#F9F6EF"/>
</linearGradient>
<linearGradient id="paint5_linear_917_1230" x1="7.07136" y1="0" x2="7.07136" y2="0.47957" gradientUnits="userSpaceOnUse">
<stop stop-color="white"/>
<stop offset="1" stop-color="#F9F6EF"/>
</linearGradient>
</defs>
</svg>
