<svg width="240" height="48" viewBox="0 0 240 48" fill="none" xmlns="http://www.w3.org/2000/svg">
<path d="M38.9332 26.1333V19.7333C38.9332 12.6936 38.9332 9.1738 36.7463 6.98688C34.5592 4.79994 31.0394 4.79994 23.9998 4.79994H17.5998C10.5602 4.79994 7.04037 4.79994 4.85345 6.98688C2.6665 9.1738 2.6665 12.6936 2.6665 19.7333V30.3999C2.6665 37.4395 2.6665 40.9593 4.85345 43.1464C7.04037 45.3333 10.5602 45.3333 17.5998 45.3333H20.7998" stroke="white" stroke-linecap="round" stroke-linejoin="round"/>
<path d="M31.4661 2.66667V6.93333M20.7995 2.66667V6.93333M10.1328 2.66667V6.93333" stroke="white" stroke-linecap="round" stroke-linejoin="round"/>
<path d="M26.1328 41.0667C26.1328 41.0667 28.2661 41.0667 30.3995 45.3334C30.3995 45.3334 37.176 34.6667 43.1995 32.5334" stroke="white" stroke-linecap="round" stroke-linejoin="round"/>
<path d="M12.2666 30.3998H20.7999M12.2666 19.7332H29.3333" stroke="white" stroke-linecap="round"/>
<g opacity="0.24" filter="url(#filter0_dd_874_50438)">
<rect x="58" y="23.5" width="26" height="1" rx="0.5" fill="white"/>
</g>
<path d="M99.5287 27.086H105.132C108.594 27.086 109.12 24.9112 109.759 21.7393C109.943 20.8244 110.035 20.3669 109.813 20.0622C109.592 19.7574 109.167 19.7574 108.318 19.7574H97.9858" stroke="#8AA1AA" stroke-linecap="round"/>
<path d="M99.5285 27.0857L97.5064 17.4544C97.3347 16.7676 96.7175 16.2858 96.0096 16.2858H95.2856" stroke="#8AA1AA" stroke-linecap="round"/>
<path d="M100.208 27.0859H99.8902C98.8384 27.0859 97.9858 27.974 97.9858 29.0695C97.9858 29.2521 98.1279 29.4002 98.3032 29.4002H106.857" stroke="#8AA1AA" stroke-linecap="round" stroke-linejoin="round"/>
<path d="M101.457 31.7144C102.096 31.7144 102.614 31.1963 102.614 30.5573C102.614 29.9182 102.096 29.4001 101.457 29.4001C100.818 29.4001 100.3 29.9182 100.3 30.5573C100.3 31.1963 100.818 31.7144 101.457 31.7144Z" stroke="#8AA1AA"/>
<path d="M106.857 31.7144C107.496 31.7144 108.014 31.1963 108.014 30.5573C108.014 29.9182 107.496 29.4001 106.857 29.4001C106.218 29.4001 105.7 29.9182 105.7 30.5573C105.7 31.1963 106.218 31.7144 106.857 31.7144Z" stroke="#8AA1AA"/>
<g opacity="0.24" filter="url(#filter1_dd_874_50438)">
<rect x="122" y="23.5" width="26" height="1" rx="0.5" fill="white"/>
</g>
<path d="M165.4 22V23.6" stroke="#8AA1AA" stroke-linecap="round"/>
<path d="M171 30.8001C171.884 30.8001 172.6 30.0837 172.6 29.2001C172.6 28.3164 171.884 27.6001 171 27.6001C170.116 27.6001 169.4 28.3164 169.4 29.2001C169.4 30.0837 170.116 30.8001 171 30.8001Z" stroke="#8AA1AA"/>
<path d="M163 30.8001C163.884 30.8001 164.6 30.0837 164.6 29.2001C164.6 28.3164 163.884 27.6001 163 27.6001C162.116 27.6001 161.4 28.3164 161.4 29.2001C161.4 30.0837 162.116 30.8001 163 30.8001Z" stroke="#8AA1AA"/>
<path d="M161.4 29.1779C160.523 29.1342 159.975 29.0037 159.586 28.6142C159 28.0284 159 27.0856 159 25.2V22C159 20.1144 159 19.1716 159.586 18.5858C160.172 18 161.114 18 163 18H165.64C166.533 18 166.98 18 167.342 18.1175C168.072 18.3549 168.645 18.9277 168.883 19.6584C169 20.0199 169 20.4666 169 21.36C169 21.9556 169 22.2534 169.078 22.4944C169.237 22.9815 169.618 23.3634 170.106 23.5217C170.347 23.6 170.644 23.6 171.24 23.6H175V25.2C175 27.0856 175 28.0284 174.414 28.6142C174.025 29.0037 173.477 29.1342 172.6 29.1779M164.6 29.2H169.4" stroke="#8AA1AA" stroke-linecap="round" stroke-linejoin="round"/>
<path d="M169 19.6001H170.457C171.621 19.6001 172.203 19.6001 172.677 19.883C173.151 20.166 173.427 20.6786 173.979 21.7037L175 23.6001" stroke="#8AA1AA" stroke-linecap="round" stroke-linejoin="round"/>
<path d="M162.2 22V23.6" stroke="#8AA1AA" stroke-linecap="round"/>
<g opacity="0.24" filter="url(#filter2_dd_874_50438)">
<rect x="186" y="23.5" width="26" height="1" rx="0.5" fill="white"/>
</g>
<path d="M224 26.5C224 26.5 225.5 26.5 227.5 30C227.5 30 233.059 20.8333 238 19" stroke="#8AA1AA" stroke-width="1.5" stroke-linecap="round" stroke-linejoin="round"/>
<defs>
<filter id="filter0_dd_874_50438" x="48" y="15.5" width="46" height="21" filterUnits="userSpaceOnUse" color-interpolation-filters="sRGB">
<feFlood flood-opacity="0" result="BackgroundImageFix"/>
<feColorMatrix in="SourceAlpha" type="matrix" values="0 0 0 0 0 0 0 0 0 0 0 0 0 0 0 0 0 0 127 0" result="hardAlpha"/>
<feOffset dy="2"/>
<feGaussianBlur stdDeviation="2.5"/>
<feColorMatrix type="matrix" values="0 0 0 0 0 0 0 0 0 0 0 0 0 0 0 0 0 0 0.16 0"/>
<feBlend mode="normal" in2="BackgroundImageFix" result="effect1_dropShadow_874_50438"/>
<feColorMatrix in="SourceAlpha" type="matrix" values="0 0 0 0 0 0 0 0 0 0 0 0 0 0 0 0 0 0 127 0" result="hardAlpha"/>
<feOffset dy="2"/>
<feGaussianBlur stdDeviation="5"/>
<feColorMatrix type="matrix" values="0 0 0 0 0 0 0 0 0 0 0 0 0 0 0 0 0 0 0.12 0"/>
<feBlend mode="normal" in2="effect1_dropShadow_874_50438" result="effect2_dropShadow_874_50438"/>
<feBlend mode="normal" in="SourceGraphic" in2="effect2_dropShadow_874_50438" result="shape"/>
</filter>
<filter id="filter1_dd_874_50438" x="112" y="15.5" width="46" height="21" filterUnits="userSpaceOnUse" color-interpolation-filters="sRGB">
<feFlood flood-opacity="0" result="BackgroundImageFix"/>
<feColorMatrix in="SourceAlpha" type="matrix" values="0 0 0 0 0 0 0 0 0 0 0 0 0 0 0 0 0 0 127 0" result="hardAlpha"/>
<feOffset dy="2"/>
<feGaussianBlur stdDeviation="2.5"/>
<feColorMatrix type="matrix" values="0 0 0 0 0 0 0 0 0 0 0 0 0 0 0 0 0 0 0.16 0"/>
<feBlend mode="normal" in2="BackgroundImageFix" result="effect1_dropShadow_874_50438"/>
<feColorMatrix in="SourceAlpha" type="matrix" values="0 0 0 0 0 0 0 0 0 0 0 0 0 0 0 0 0 0 127 0" result="hardAlpha"/>
<feOffset dy="2"/>
<feGaussianBlur stdDeviation="5"/>
<feColorMatrix type="matrix" values="0 0 0 0 0 0 0 0 0 0 0 0 0 0 0 0 0 0 0.12 0"/>
<feBlend mode="normal" in2="effect1_dropShadow_874_50438" result="effect2_dropShadow_874_50438"/>
<feBlend mode="normal" in="SourceGraphic" in2="effect2_dropShadow_874_50438" result="shape"/>
</filter>
<filter id="filter2_dd_874_50438" x="176" y="15.5" width="46" height="21" filterUnits="userSpaceOnUse" color-interpolation-filters="sRGB">
<feFlood flood-opacity="0" result="BackgroundImageFix"/>
<feColorMatrix in="SourceAlpha" type="matrix" values="0 0 0 0 0 0 0 0 0 0 0 0 0 0 0 0 0 0 127 0" result="hardAlpha"/>
<feOffset dy="2"/>
<feGaussianBlur stdDeviation="2.5"/>
<feColorMatrix type="matrix" values="0 0 0 0 0 0 0 0 0 0 0 0 0 0 0 0 0 0 0.16 0"/>
<feBlend mode="normal" in2="BackgroundImageFix" result="effect1_dropShadow_874_50438"/>
<feColorMatrix in="SourceAlpha" type="matrix" values="0 0 0 0 0 0 0 0 0 0 0 0 0 0 0 0 0 0 127 0" result="hardAlpha"/>
<feOffset dy="2"/>
<feGaussianBlur stdDeviation="5"/>
<feColorMatrix type="matrix" values="0 0 0 0 0 0 0 0 0 0 0 0 0 0 0 0 0 0 0.12 0"/>
<feBlend mode="normal" in2="effect1_dropShadow_874_50438" result="effect2_dropShadow_874_50438"/>
<feBlend mode="normal" in="SourceGraphic" in2="effect2_dropShadow_874_50438" result="shape"/>
</filter>
</defs>
</svg>
