<svg width="24" height="24" viewBox="0 0 24 24" fill="none" xmlns="http://www.w3.org/2000/svg">
<path d="M7.88227 9.08431C7.77512 9.03436 7.65917 9.006 7.54105 9.00085C7.42293 8.99571 7.30495 9.01388 7.19386 9.05433C7.08276 9.09478 6.98072 9.15671 6.89356 9.2366C6.8064 9.31648 6.73583 9.41275 6.68587 9.51991C6.63592 9.62707 6.60756 9.74302 6.60242 9.86114C6.59727 9.97926 6.61544 10.0972 6.65589 10.2083C6.73758 10.4327 6.90506 10.6154 7.12147 10.7163L11.3671 12.6975C11.5658 12.7903 11.7825 12.8385 12.0019 12.8385C12.2212 12.8385 12.4379 12.7903 12.6367 12.6975L16.8823 10.7163C17.0987 10.6154 17.2662 10.4327 17.3479 10.2083C17.4295 9.98396 17.4188 9.73633 17.3179 9.51991C17.217 9.30349 17.0343 9.13602 16.8099 9.05433C16.5855 8.97264 16.3379 8.98342 16.1215 9.08431L12.0019 11.0079L7.88227 9.08431Z" fill="#5C5F62"/>
<path fill-rule="evenodd" clip-rule="evenodd" d="M8.10156 5.40039C6.90809 5.40039 5.7635 5.8745 4.91958 6.71841C4.07567 7.56232 3.60156 8.70692 3.60156 9.90039V14.1004C3.60156 15.2939 4.07567 16.4385 4.91958 17.2824C5.7635 18.1263 6.90809 18.6004 8.10156 18.6004H15.9016C17.095 18.6004 18.2396 18.1263 19.0835 17.2824C19.9275 16.4385 20.4016 15.2939 20.4016 14.1004V9.90039C20.4016 8.70692 19.9275 7.56232 19.0835 6.71841C18.2396 5.8745 17.095 5.40039 15.9016 5.40039H8.10156ZM5.40156 9.90039C5.40156 9.18431 5.68603 8.49755 6.19237 7.9912C6.69872 7.48485 7.38548 7.20039 8.10156 7.20039H15.9016C16.6176 7.20039 17.3044 7.48485 17.8107 7.9912C18.3171 8.49755 18.6016 9.18431 18.6016 9.90039V14.1004C18.6016 14.8165 18.3171 15.5032 17.8107 16.0096C17.3044 16.5159 16.6176 16.8004 15.9016 16.8004H8.10156C7.38548 16.8004 6.69872 16.5159 6.19237 16.0096C5.68603 15.5032 5.40156 14.8165 5.40156 14.1004V9.90039Z" fill="#5C5F62"/>
</svg>
