<svg width="24" height="24" viewBox="0 0 24 24" fill="none" xmlns="http://www.w3.org/2000/svg">
<path fill-rule="evenodd" clip-rule="evenodd" d="M15.5984 12.0004C15.5984 12.9552 15.2192 13.8708 14.544 14.546C13.8689 15.2211 12.9532 15.6004 11.9984 15.6004C11.0437 15.6004 10.128 15.2211 9.45285 14.546C8.77772 13.8708 8.39844 12.9552 8.39844 12.0004C8.39844 11.0456 8.77772 10.1299 9.45285 9.45481C10.128 8.77968 11.0437 8.40039 11.9984 8.40039C12.9532 8.40039 13.8689 8.77968 14.544 9.45481C15.2192 10.1299 15.5984 11.0456 15.5984 12.0004ZM13.7984 12.0004C13.7984 12.4778 13.6088 12.9356 13.2712 13.2732C12.9337 13.6107 12.4758 13.8004 11.9984 13.8004C11.521 13.8004 11.0632 13.6107 10.7256 13.2732C10.3881 12.9356 10.1984 12.4778 10.1984 12.0004C10.1984 11.523 10.3881 11.0652 10.7256 10.7276C11.0632 10.39 11.521 10.2004 11.9984 10.2004C12.4758 10.2004 12.9337 10.39 13.2712 10.7276C13.6088 11.0652 13.7984 11.523 13.7984 12.0004Z" fill="#5C5F62"/>
<path fill-rule="evenodd" clip-rule="evenodd" d="M12 4.80078C9.0288 4.80078 6.7824 6.27678 5.3076 7.83918C4.65087 8.53264 4.08622 9.30782 3.6276 10.1456C3.45521 10.4612 3.30679 10.7893 3.1836 11.1272C3.0852 11.3996 3 11.7128 3 12.0008C3 12.2888 3.0852 12.602 3.1824 12.8744C3.288 13.1696 3.438 13.5032 3.6276 13.856C4.008 14.5604 4.5684 15.38 5.3076 16.1624C6.7824 17.7248 9.0276 19.2008 12 19.2008C14.9712 19.2008 17.2176 17.7248 18.6924 16.1624C19.3491 15.4689 19.9138 14.6937 20.3724 13.856C20.5448 13.5404 20.6932 13.2122 20.8164 12.8744C20.9148 12.602 21 12.2888 21 12.0008C21 11.7128 20.9148 11.3996 20.8176 11.1272C20.694 10.7893 20.5452 10.4612 20.3724 10.1456C19.9137 9.30784 19.3491 8.53266 18.6924 7.83918C17.2176 6.27678 14.9724 4.80078 12 4.80078ZM4.8012 12.0032V11.9984C4.806 11.9744 4.8216 11.8904 4.878 11.7308C4.97096 11.4796 5.08246 11.2358 5.2116 11.0012C5.59526 10.3017 6.06711 9.65446 6.6156 9.07518C7.866 7.75038 9.6696 6.60078 12 6.60078C14.3304 6.60078 16.134 7.75038 17.3832 9.07518C17.9317 9.65448 18.4035 10.3018 18.7872 11.0012C18.9432 11.2892 19.0524 11.5376 19.122 11.7308C19.1784 11.8892 19.194 11.9744 19.1988 11.9984V12.0032C19.194 12.0272 19.1784 12.1112 19.122 12.2708C19.029 12.5219 18.9175 12.7658 18.7884 13.0004C18.4047 13.6998 17.9329 14.3471 17.3844 14.9264C16.134 16.2512 14.3304 17.4008 12 17.4008C9.6696 17.4008 7.866 16.2512 6.6168 14.9264C6.06829 14.3471 5.59644 13.6998 5.2128 13.0004C5.08325 12.7658 4.97134 12.522 4.878 12.2708C4.8216 12.1124 4.806 12.0272 4.8012 12.0032Z" fill="#5C5F62"/>
</svg>
