<svg width="24" height="24" viewBox="0 0 24 24" fill="none" xmlns="http://www.w3.org/2000/svg">
<path d="M14.374 5.70172C13.5998 5.49759 12.8022 5.39632 12.0016 5.40052C9.06876 5.40052 6.96636 6.65452 5.61156 8.08012C5.00978 8.70993 4.50688 9.42727 4.11996 10.2077C3.80796 10.8461 3.60156 11.4989 3.60156 12.0005C3.60156 12.5021 3.80676 13.1549 4.11996 13.7921C4.32636 14.2169 4.59996 14.6729 4.94436 15.1313L6.23316 13.8425C6.04664 13.5754 5.88056 13.2946 5.73636 13.0025C5.47116 12.4589 5.40156 12.0989 5.40156 12.0005C5.40156 11.9021 5.47116 11.5421 5.73636 10.9985C6.04318 10.3833 6.44083 9.81777 6.91596 9.32092C7.98396 8.19652 9.63276 7.20052 12.0016 7.20052C12.2896 7.20052 12.5668 7.21492 12.8332 7.24372L14.374 5.70172Z" fill="#5C5F62"/>
<path fill-rule="evenodd" clip-rule="evenodd" d="M5.10117 17.52C4.94316 17.6916 4.85796 17.9179 4.86354 18.1511C4.86912 18.3843 4.96505 18.6063 5.1311 18.7702C5.29715 18.934 5.52035 19.027 5.75363 19.0295C5.98691 19.032 6.21205 18.9438 6.38157 18.7836L7.65597 17.5104C8.82597 18.162 10.2684 18.6 12.0012 18.6C14.9412 18.6 16.9716 17.34 18.2892 15.9096C19.5828 14.5056 20.1948 12.9384 20.3748 12.2184C20.4107 12.075 20.4107 11.925 20.3748 11.7816C20.1948 11.0616 19.5828 9.49438 18.2892 8.09038C18.0952 7.87962 17.891 7.67857 17.6772 7.48798L18.7848 6.38038C18.9503 6.21188 19.043 5.98505 19.0428 5.74883C19.0426 5.51261 18.9495 5.28594 18.7837 5.11773C18.6178 4.94952 18.3925 4.85326 18.1563 4.84971C17.9201 4.84617 17.692 4.93562 17.5212 5.09878L17.5116 5.10838L5.10957 17.5116L5.10117 17.52ZM12.0012 16.8C10.8276 16.8 9.83037 16.5552 8.99397 16.1724L10.3236 14.8416C10.9538 15.2135 11.6899 15.3654 12.4159 15.2733C13.1419 15.1813 13.8167 14.8505 14.3342 14.333C14.8517 13.8155 15.1825 13.1407 15.2745 12.4147C15.3666 11.6887 15.2147 10.9526 14.8428 10.3224L16.4028 8.76358C16.6056 8.93998 16.7928 9.12358 16.9656 9.30958C17.6777 10.0869 18.2219 11.0028 18.564 12C18.2219 12.9972 17.6777 13.9131 16.9656 14.6904C15.9336 15.81 14.3616 16.8 12.0012 16.8ZM12.0012 13.5C11.8968 13.5 11.7948 13.488 11.6964 13.4688L13.47 11.6952C13.5153 11.9134 13.5114 12.1389 13.4585 12.3554C13.4057 12.5719 13.3053 12.774 13.1647 12.9468C13.024 13.1196 12.8466 13.259 12.6453 13.3547C12.4441 13.4504 12.224 13.5 12.0012 13.5Z" fill="#5C5F62"/>
</svg>
