<svg width="14" height="18" viewBox="0 0 14 18" fill="none" xmlns="http://www.w3.org/2000/svg">
<path d="M0.399966 0C0.178982 0 0 0.179129 0 0.399966L0 17.6C0 17.821 0.179129 18 0.399966 18C0.620949 18 0.799932 17.8209 0.799932 17.6L0.799932 0.399966C0.799932 0.178983 0.620802 0 0.399966 0ZM11.6375 1.60004C10.8213 1.6059 9.68132 1.79047 8.2 2.43122C4.36284 4.09137 1.19997 1.87501 1.19997 1.87501L1.19997 9.10004C3.37326 10.4777 5.90034 10.619 8.2 9.65625C11.6029 8.23157 13.2 9.10632 13.2 9.10632L13.2 1.88129C13.2 1.88129 12.6871 1.59265 11.6375 1.60004Z" fill="#003347"/>
</svg>
