<svg width="26" height="26" viewBox="0 0 26 26" fill="none" xmlns="http://www.w3.org/2000/svg">
<path d="M9.66667 12.4004L5.12 14.4944C3.86133 15.0752 2.90667 16.0784 2.52933 17.3048C1.89333 19.37 1 22.6832 1 25.0004M16.3333 12.4004L20.88 14.4944C22.1387 15.0752 23.0933 16.0784 23.472 17.3048C24.1067 19.37 25 22.6832 25 25.0004M6.33333 25.0004C6.33333 23.6168 7 19.0004 7.668 17.8004" stroke="#053B6A" stroke-width="1.5" stroke-linecap="round" stroke-linejoin="round"/>
<path d="M7.66655 18.9508C9.58121 19.234 14.1279 18.4408 16.9999 13M12.9999 22.6C12.9999 22.6 19.6665 20.2 20.9999 14.8M23.6665 18.4C23.0599 21.0484 21.6665 23.8 19.6665 25M17.6665 9.4696L18.2279 6.8836C18.8879 3.8392 16.3639 1 12.9999 1C9.63588 1 7.11188 3.8392 7.77188 6.8836L8.33188 9.4696C8.77855 11.5216 10.7332 13 12.9999 13C15.2692 13 17.2225 11.5228 17.6665 9.4696Z" stroke="#053B6A" stroke-width="1.5" stroke-linecap="round" stroke-linejoin="round"/>
<path d="M7.6665 5.80093L11.7065 4.76413C12.5515 4.54477 13.4482 4.54477 14.2932 4.76413L18.3332 5.80093" stroke="#3CAEA3" stroke-width="1.5" stroke-linecap="round" stroke-linejoin="round"/>
</svg>
