<svg width="24" height="24" viewBox="0 0 24 24" fill="none" xmlns="http://www.w3.org/2000/svg">
<path d="M16.8008 19.2H14.4008C14.0825 19.2 13.7773 19.0736 13.5523 18.8486C13.3272 18.6235 13.2008 18.3183 13.2008 18V15C13.2008 14.8409 13.1376 14.6883 13.025 14.5758C12.9125 14.4632 12.7599 14.4 12.6008 14.4H11.4008C11.2417 14.4 11.089 14.4632 10.9765 14.5758C10.864 14.6883 10.8008 14.8409 10.8008 15V18C10.8008 18.3183 10.6744 18.6235 10.4493 18.8486C10.2243 19.0736 9.91904 19.2 9.60078 19.2H7.20078C6.56426 19.2 5.95381 18.9472 5.50372 18.4971C5.05364 18.047 4.80078 17.4365 4.80078 16.8V11.6916C4.80072 11.2187 4.89385 10.7504 5.07484 10.3135C5.25582 9.87656 5.52112 9.47958 5.85558 9.14523L10.304 4.69683C10.754 4.2469 11.3644 3.99414 12.0008 3.99414C12.6372 3.99414 13.2475 4.2469 13.6976 4.69683L18.146 9.14523C18.4804 9.47958 18.7457 9.87656 18.9267 10.3135C19.1077 10.7504 19.2008 11.2187 19.2008 11.6916V16.8C19.2008 17.4365 18.9479 18.047 18.4978 18.4971C18.0477 18.9472 17.4373 19.2 16.8008 19.2Z" fill="#0586C7"/>
</svg>
