<svg width="24" height="24" viewBox="0 0 24 24" fill="none" xmlns="http://www.w3.org/2000/svg">
<path d="M5.55078 11.6916L5.55078 11.6915C5.55074 11.3171 5.62446 10.9464 5.76774 10.6005C5.91102 10.2546 6.12105 9.94034 6.38583 9.67564L6.38591 9.67556L10.8342 5.22724C10.8343 5.22721 10.8343 5.22718 10.8343 5.22716C11.1437 4.91788 11.5633 4.74414 12.0008 4.74414C12.4383 4.74414 12.8578 4.91788 13.1673 5.22716C13.1673 5.22719 13.1673 5.22721 13.1673 5.22724L17.6157 9.67556L17.6157 9.67564C17.8805 9.94034 18.0905 10.2546 18.2338 10.6005C18.3771 10.9464 18.4508 11.3171 18.4508 11.6915V11.6916V16.8C18.4508 17.2376 18.2769 17.6573 17.9675 17.9668C17.6581 18.2762 17.2384 18.45 16.8008 18.45H14.4008C14.2814 18.45 14.167 18.4026 14.0826 18.3182C13.9982 18.2338 13.9508 18.1194 13.9508 18V15C13.9508 14.642 13.8086 14.2986 13.5554 14.0454C13.3022 13.7923 12.9588 13.65 12.6008 13.65H11.4008C11.0427 13.65 10.6994 13.7923 10.4462 14.0454C10.193 14.2986 10.0508 14.642 10.0508 15V18C10.0508 18.1194 10.0034 18.2338 9.91898 18.3182C9.83459 18.4026 9.72013 18.45 9.60078 18.45H7.20078C6.76317 18.45 6.34349 18.2762 6.03405 17.9668C5.72462 17.6573 5.55078 17.2376 5.55078 16.8L5.55078 11.6916Z" stroke="#565656" stroke-width="1.5"/>
</svg>
