<svg width="20" height="20" viewBox="0 0 20 20" fill="none" xmlns="http://www.w3.org/2000/svg">
<path fill-rule="evenodd" clip-rule="evenodd" d="M13.3334 5.625C13.0571 5.625 12.7921 5.73475 12.5968 5.9301C12.4014 6.12545 12.2917 6.3904 12.2917 6.66667C12.2917 6.94293 12.4014 7.20789 12.5968 7.40324C12.7921 7.59859 13.0571 7.70833 13.3334 7.70833C13.6096 7.70833 13.8746 7.59859 14.0699 7.40324C14.2653 7.20789 14.375 6.94293 14.375 6.66667C14.375 6.3904 14.2653 6.12545 14.0699 5.9301C13.8746 5.73475 13.6096 5.625 13.3334 5.625ZM11.0417 6.66667C11.0417 6.05888 11.2831 5.47598 11.7129 5.04621C12.1427 4.61644 12.7256 4.375 13.3334 4.375C13.9411 4.375 14.524 4.61644 14.9538 5.04621C15.3836 5.47598 15.625 6.05888 15.625 6.66667C15.625 7.27445 15.3836 7.85735 14.9538 8.28712C14.524 8.71689 13.9411 8.95833 13.3334 8.95833C12.7256 8.95833 12.1427 8.71689 11.7129 8.28712C11.2831 7.85735 11.0417 7.27445 11.0417 6.66667Z" fill="black"/>
<path fill-rule="evenodd" clip-rule="evenodd" d="M9.95252 1.04102H10.0475C11.9717 1.04102 13.4792 1.04102 14.6559 1.19935C15.8592 1.36102 16.8092 1.69935 17.555 2.44435C18.3009 3.19018 18.6384 4.14018 18.8 5.34435C18.9584 6.52018 18.9584 8.02768 18.9584 9.95185V10.0468C18.9584 11.971 18.9584 13.4785 18.8 14.6552C18.6384 15.8585 18.3 16.8085 17.555 17.5543C16.8092 18.3002 15.8592 18.6377 14.655 18.7993C13.4792 18.9577 11.9717 18.9577 10.0475 18.9577H9.95252C8.02835 18.9577 6.52085 18.9577 5.34419 18.7993C4.14085 18.6377 3.19085 18.2993 2.44502 17.5543C1.69919 16.8085 1.36169 15.8585 1.20002 14.6543C1.04169 13.4785 1.04169 11.971 1.04169 10.0468V9.95185C1.04169 8.02768 1.04169 6.52018 1.20002 5.34352C1.36169 4.14018 1.70002 3.19018 2.44502 2.44435C3.19085 1.69852 4.14085 1.36102 5.34502 1.19935C6.52085 1.04102 8.02835 1.04102 9.95252 1.04102ZM3.32919 16.6702C2.85419 16.1952 2.58169 15.5535 2.43835 14.4877C2.31085 13.5368 2.29419 12.3235 2.29169 10.6993L3.53752 9.60935C3.7841 9.39343 4.10355 9.27933 4.43112 9.29016C4.7587 9.30099 5.06991 9.43595 5.30169 9.66768L8.87669 13.2427C9.25809 13.6243 9.76189 13.859 10.2994 13.9057C10.8369 13.9523 11.3736 13.8079 11.815 13.4977L12.0634 13.3227C12.4106 13.0786 12.8304 12.9595 13.2541 12.9849C13.6778 13.0103 14.0803 13.1788 14.3959 13.4627L17.0817 15.881C17.1106 15.9065 17.1416 15.9296 17.1742 15.9502C17.0496 16.2177 16.8793 16.4613 16.6709 16.6702C16.1959 17.1452 15.5542 17.4177 14.4884 17.561C13.405 17.706 11.9817 17.7077 10 17.7077C8.01835 17.7077 6.59502 17.706 5.51169 17.561C4.44585 17.4177 3.80419 17.1443 3.32919 16.6702ZM5.51169 2.43768C4.44585 2.58102 3.80335 2.85435 3.32835 3.32852C2.85419 3.80352 2.58169 4.44518 2.43835 5.51102C2.31752 6.41102 2.29669 7.54435 2.29252 9.03852L2.71502 8.66852C3.20033 8.24396 3.82886 8.01972 4.4733 8.04123C5.11775 8.06274 5.72993 8.32838 6.18585 8.78435L9.76085 12.3593C9.93429 12.5325 10.1632 12.639 10.4074 12.66C10.6516 12.681 10.8954 12.6153 11.0959 12.4743L11.3442 12.2993C11.923 11.8926 12.6227 11.6943 13.3289 11.7368C14.035 11.7793 14.7059 12.0602 15.2317 12.5335L17.5434 14.6143L17.5617 14.4877C17.7067 13.4043 17.7084 11.981 17.7084 9.99935C17.7084 8.01768 17.7067 6.59435 17.5617 5.51102C17.4184 4.44518 17.145 3.80268 16.6709 3.32768C16.1959 2.85352 15.5542 2.58102 14.4884 2.43768C13.405 2.29268 11.9817 2.29102 10 2.29102C8.01835 2.29102 6.59502 2.29268 5.51169 2.43768Z" fill="black"/>
</svg>
