<svg width="22" height="20" viewBox="0 0 22 20" fill="none" xmlns="http://www.w3.org/2000/svg">
<path d="M5 7C5 6.33696 5.26339 5.70107 5.73223 5.23223C6.20107 4.76339 6.83696 4.5 7.5 4.5C8.16304 4.5 8.79893 4.76339 9.26777 5.23223C9.73661 5.70107 10 6.33696 10 7C10 7.66304 9.73661 8.29893 9.26777 8.76777C8.79893 9.23661 8.16304 9.5 7.5 9.5C6.83696 9.5 6.20107 9.23661 5.73223 8.76777C5.26339 8.29893 5 7.66304 5 7ZM7.5 5.5C7.10218 5.5 6.72064 5.65804 6.43934 5.93934C6.15804 6.22064 6 6.60218 6 7C6 7.39782 6.15804 7.77936 6.43934 8.06066C6.72064 8.34196 7.10218 8.5 7.5 8.5C7.89782 8.5 8.27936 8.34196 8.56066 8.06066C8.84196 7.77936 9 7.39782 9 7C9 6.60218 8.84196 6.22064 8.56066 5.93934C8.27936 5.65804 7.89782 5.5 7.5 5.5Z" fill="#5C5F62"/>
<path d="M13.0045 0H8.99488C7.6361 0 6.57624 -8.76539e-09 5.72762 0.0658823C4.86541 0.132941 4.16502 0.271765 3.53503 0.576471C2.48883 1.08408 1.63825 1.89417 1.10528 2.89059C0.78411 3.49059 0.639584 4.15765 0.569175 4.97882C0.5 5.78824 0.5 6.79529 0.5 8.09059V11.9094C0.5 13.0224 0.5 13.9235 0.544469 14.6682C0.547763 14.7443 0.552705 14.8227 0.559293 14.9035L0.562998 14.94C0.606233 15.4882 0.680348 15.9682 0.814992 16.4059C0.889931 16.6522 0.986693 16.8867 1.10528 17.1094C1.63825 18.1058 2.48883 18.9159 3.53503 19.4235C4.16502 19.7294 4.86541 19.8671 5.72762 19.9341C6.57624 20 7.63486 20 8.99488 20H13.0045C14.3633 20 15.4232 20 16.2718 19.9341C17.134 19.8671 17.8344 19.7282 18.4644 19.4235C19.5106 18.9159 20.3612 18.1058 20.8941 17.1094C21.5068 15.9624 21.5031 14.5765 21.4994 13.2965L21.4982 12.8941L21.4994 11.9094V8.09059C21.4994 6.79647 21.4994 5.78706 21.4302 4.97882C21.3598 4.15765 21.2141 3.49059 20.8941 2.89059C20.3612 1.89417 19.5106 1.08408 18.4644 0.576471C17.8344 0.270588 17.134 0.132941 16.2718 0.0658823C15.4232 -8.76539e-09 14.3646 0 13.0045 0ZM1.80073 14.9247L1.79332 14.8424C1.74267 14.1035 2.53818 13.3718 3.12616 12.8318C3.22087 12.7455 3.30816 12.6643 3.38804 12.5882C3.69932 12.2894 3.91055 12.1541 4.09955 12.0894C4.51036 11.9464 4.96105 11.9464 5.37187 12.0894C5.55963 12.1541 5.77086 12.2894 6.08214 12.5882C6.39713 12.8906 6.76895 13.3141 7.29764 13.9176C7.44529 14.0868 7.62872 14.2244 7.83596 14.3214C8.04321 14.4185 8.26961 14.4728 8.5004 14.4809C8.73119 14.4891 8.96118 14.4507 9.17537 14.3685C9.38956 14.2862 9.58313 14.1618 9.74345 14.0035L13.4529 10.3435C13.5604 10.2376 13.6728 10.1176 13.7889 9.99412C14.2151 9.54 14.7006 9.02235 15.2675 8.84235C15.6472 8.72205 16.0576 8.72205 16.4373 8.84235C17.3922 9.14588 18.289 10.1706 19.0684 11.0612C19.3575 11.3906 19.6292 11.7024 19.8837 11.9518C20.1938 12.2588 20.2642 12.4353 20.2629 12.8494C20.2592 13.8729 20.2382 14.6224 20.1703 15.2082C20.0999 15.8024 19.9813 16.2224 19.7935 16.5753C19.379 17.3504 18.7174 17.9805 17.9036 18.3753C17.4762 18.5824 16.9574 18.7 16.1717 18.7612C15.3787 18.8235 14.3695 18.8235 12.9761 18.8235H9.0233C7.62992 18.8235 6.62071 18.8235 5.82891 18.7612C5.04205 18.7 4.52324 18.5824 4.09584 18.3753C3.22744 17.953 2.53442 17.2635 2.12931 16.4188C1.95884 16.0412 1.85755 15.58 1.80073 14.9247ZM20.2642 10.6353L19.1215 9.50824C18.735 9.11415 18.3329 8.73426 17.9159 8.36941C17.5664 8.07765 17.2267 7.85294 16.8277 7.72706C16.1946 7.52638 15.5103 7.52638 14.8772 7.72706C14.4782 7.85294 14.1385 8.07765 13.7902 8.36941C13.4505 8.65177 13.0638 9.03412 12.5833 9.50824L8.85406 13.1859C8.81429 13.2253 8.76621 13.2563 8.71299 13.2768C8.65976 13.2973 8.60259 13.3069 8.54521 13.3049C8.48784 13.3029 8.43155 13.2894 8.38004 13.2652C8.32853 13.241 8.28296 13.2068 8.24632 13.1647L8.22779 13.1435C7.72133 12.5659 7.31617 12.1024 6.95918 11.7588C6.59354 11.4082 6.23037 11.1353 5.79556 10.9835C5.11075 10.7451 4.35943 10.7451 3.67462 10.9835C3.23981 11.1365 2.87788 11.4071 2.511 11.76C2.24122 12.0248 1.98244 12.2995 1.73526 12.5835V8.11765C1.73526 6.79059 1.73526 5.82941 1.80073 5.07529C1.86496 4.32588 1.98849 3.83176 2.20589 3.42471C2.62044 2.64965 3.28205 2.01953 4.09584 1.62471C4.52324 1.41765 5.04205 1.3 5.82891 1.23882C6.62071 1.17647 7.62992 1.17647 9.0233 1.17647H12.9761C14.3695 1.17647 15.3787 1.17647 16.1705 1.23882C16.9574 1.3 17.4762 1.41765 17.9036 1.62471C18.7174 2.01953 19.379 2.64965 19.7935 3.42471C20.0109 3.83176 20.1345 4.32588 20.1987 5.07529C20.2642 5.82941 20.2642 6.79059 20.2642 8.11765V10.6353Z" fill="#5C5F62"/>
</svg>
