<svg width="20" height="20" viewBox="0 0 20 20" fill="none" xmlns="http://www.w3.org/2000/svg">
<g clip-path="url(#clip0_102_5247)">
<path d="M9.17252 17.4987H8.00419C5.01669 17.4987 3.52335 17.4987 2.59502 16.5529C1.66669 15.607 1.66669 14.0845 1.66669 11.0404C1.66669 7.9962 1.66669 6.4737 2.59502 5.52786C3.52335 4.58203 5.01669 4.58203 8.00419 4.58203H11.1734C14.1609 4.58203 15.655 4.58203 16.5834 5.52786C17.2975 6.25536 17.4617 7.32453 17.5 9.16536" stroke="black" stroke-width="1.5" stroke-linecap="round" stroke-linejoin="round"/>
<path d="M13.3334 4.58268L13.25 4.32435C12.8375 3.04102 12.6317 2.39935 12.1409 2.03268C11.6492 1.66602 10.9975 1.66602 9.69171 1.66602H9.47254C8.16837 1.66602 7.51587 1.66602 7.02504 2.03268C6.53337 2.39935 6.32754 3.04102 5.91504 4.32435L5.83337 4.58268M14.2592 11.0452C14.4134 10.9035 14.49 10.8327 14.5834 10.8327C14.6767 10.8327 14.7534 10.9035 14.9075 11.0452L15.5017 11.5927C15.5734 11.6585 15.6092 11.6918 15.6534 11.7077C15.6984 11.7243 15.7467 11.7227 15.845 11.7185L16.6467 11.6868C16.8534 11.6785 16.9567 11.6752 17.0275 11.7343C17.0984 11.7935 17.1125 11.896 17.14 12.101L17.25 12.9227C17.2634 13.0177 17.2692 13.0643 17.2925 13.106C17.3159 13.146 17.3534 13.1752 17.4284 13.2343L18.075 13.7427C18.235 13.8693 18.315 13.9318 18.3309 14.0218C18.3467 14.1118 18.2925 14.1985 18.1859 14.3718L17.7475 15.0777C17.6975 15.1585 17.6725 15.1993 17.6642 15.2443C17.6559 15.2893 17.6659 15.3368 17.6859 15.4302L17.86 16.2452C17.9017 16.4452 17.9234 16.5452 17.8775 16.6252C17.8317 16.7052 17.7342 16.7368 17.54 16.8002L16.7684 17.051C16.6767 17.081 16.63 17.096 16.5942 17.126C16.5584 17.1568 16.5359 17.2002 16.4917 17.286L16.115 18.0118C16.0192 18.1977 15.9709 18.2902 15.8834 18.3218C15.7959 18.3535 15.7 18.3135 15.5067 18.2335L14.7667 17.9268C14.6759 17.8893 14.6309 17.8702 14.5834 17.8702C14.5359 17.8702 14.4909 17.8893 14.4 17.9268L13.66 18.2335C13.4667 18.3135 13.3709 18.3535 13.2834 18.3218C13.1959 18.2902 13.1475 18.1968 13.0517 18.0118L12.675 17.286C12.63 17.2002 12.6084 17.1568 12.5725 17.1268C12.5367 17.0968 12.49 17.081 12.3984 17.0518L11.6267 16.8002C11.4325 16.7368 11.335 16.7052 11.2892 16.6252C11.2434 16.5452 11.2642 16.446 11.3067 16.2452L11.4817 15.4302C11.5009 15.3368 11.5109 15.2902 11.5025 15.2452C11.4855 15.1849 11.4572 15.1284 11.4192 15.0785L10.9817 14.3718C10.8734 14.1985 10.82 14.1118 10.8359 14.0218C10.8517 13.9318 10.9317 13.8693 11.0917 13.7435L11.7384 13.2352C11.8134 13.1752 11.8509 13.146 11.8742 13.1052C11.8975 13.0643 11.9034 13.0177 11.9159 12.9218L12.0267 12.101C12.0542 11.8968 12.0684 11.7935 12.1392 11.7343C12.21 11.6752 12.3134 11.6785 12.52 11.6868L13.3225 11.7185C13.42 11.7227 13.4684 11.7243 13.5134 11.7077C13.5575 11.691 13.5934 11.6585 13.665 11.5927L14.2592 11.0452Z" stroke="black" stroke-width="1.5" stroke-linecap="round" stroke-linejoin="round"/>
</g>
<defs>
<clipPath id="clip0_102_5247">
<rect width="20" height="20" fill="white"/>
</clipPath>
</defs>
</svg>
