<svg width="24" height="24" viewBox="0 0 24 24" fill="none" xmlns="http://www.w3.org/2000/svg">
<path fill-rule="evenodd" clip-rule="evenodd" d="M12 12.5996C12.7956 12.5996 13.5587 12.2835 14.1213 11.7209C14.6839 11.1583 15 10.3953 15 9.59961C15 8.80396 14.6839 8.0409 14.1213 7.47829C13.5587 6.91568 12.7956 6.59961 12 6.59961C11.2044 6.59961 10.4413 6.91568 9.87868 7.47829C9.31607 8.0409 9 8.80396 9 9.59961C9 10.3953 9.31607 11.1583 9.87868 11.7209C10.4413 12.2835 11.2044 12.5996 12 12.5996ZM12 10.7996C12.3183 10.7996 12.6235 10.6732 12.8485 10.4481C13.0736 10.2231 13.2 9.91787 13.2 9.59961C13.2 9.28135 13.0736 8.97613 12.8485 8.75108C12.6235 8.52604 12.3183 8.39961 12 8.39961C11.6817 8.39961 11.3765 8.52604 11.1515 8.75108C10.9264 8.97613 10.8 9.28135 10.8 9.59961C10.8 9.91787 10.9264 10.2231 11.1515 10.4481C11.3765 10.6732 11.6817 10.7996 12 10.7996Z" fill="#5C5F62"/>
<path fill-rule="evenodd" clip-rule="evenodd" d="M5.10156 9.8724C5.10156 6.0732 8.19516 3 12.0016 3C15.808 3 18.9016 6.072 18.9016 9.8724C18.9016 13.1112 17.548 15.8544 16.0936 17.7696C15.6844 18.3084 15.2632 18.7872 14.854 19.2H17.1016C17.3403 19.2 17.5692 19.2948 17.738 19.4636C17.9067 19.6324 18.0016 19.8613 18.0016 20.1C18.0016 20.3387 17.9067 20.5676 17.738 20.7364C17.5692 20.9052 17.3403 21 17.1016 21H6.90156C6.66287 21 6.43395 20.9052 6.26517 20.7364C6.09638 20.5676 6.00156 20.3387 6.00156 20.1C6.00156 19.8613 6.09638 19.6324 6.26517 19.4636C6.43395 19.2948 6.66287 19.2 6.90156 19.2H9.14916C8.70503 18.7509 8.29094 18.2731 7.90956 17.7696C6.45516 15.8544 5.10156 13.1112 5.10156 9.8724ZM12.0016 4.8C9.18156 4.8 6.90156 7.0752 6.90156 9.8724C6.90156 12.6048 8.04756 14.976 9.34356 16.6812C9.88602 17.4058 10.5119 18.0639 11.2084 18.642C11.4844 18.8652 11.7172 19.0212 11.8912 19.1172C11.9368 19.1424 11.9728 19.1604 12.0016 19.1736C12.0304 19.1616 12.0664 19.1424 12.112 19.1172C12.286 19.0212 12.52 18.8652 12.796 18.642C13.492 18.0638 14.1175 17.4057 14.6596 16.6812C15.9556 14.976 17.1016 12.6048 17.1016 9.8724C17.1016 7.0752 14.8216 4.8 12.0016 4.8Z" fill="#5C5F62"/>
</svg>
