<svg width="24" height="24" viewBox="0 0 24 24" fill="none" xmlns="http://www.w3.org/2000/svg">
<path d="M12.8992 15.6596C13.2424 15.4615 13.5106 15.1557 13.6622 14.7896C13.8138 14.4235 13.8404 14.0176 13.7379 13.6349C13.6353 13.2522 13.4093 12.914 13.095 12.6727C12.7806 12.4315 12.3955 12.3008 11.9992 12.3008C11.603 12.3008 11.2178 12.4315 10.9034 12.6727C10.5891 12.914 10.3631 13.2522 10.2606 13.6349C10.158 14.0176 10.1846 14.4235 10.3362 14.7896C10.4879 15.1557 10.7561 15.4615 11.0992 15.6596V16.1996C11.0992 16.4383 11.194 16.6672 11.3628 16.836C11.5316 17.0048 11.7605 17.0996 11.9992 17.0996C12.2379 17.0996 12.4668 17.0048 12.6356 16.836C12.8044 16.6672 12.8992 16.4383 12.8992 16.1996V15.6596Z" fill="#5C5F62"/>
<path fill-rule="evenodd" clip-rule="evenodd" d="M7.50078 8.51361V8.09961C7.50078 7.50866 7.61718 6.9235 7.84332 6.37753C8.06947 5.83157 8.40094 5.33549 8.8188 4.91763C9.23666 4.49977 9.73274 4.1683 10.2787 3.94215C10.8247 3.71601 11.4098 3.59961 12.0008 3.59961C12.5917 3.59961 13.1769 3.71601 13.7229 3.94215C14.2688 4.1683 14.7649 4.49977 15.1828 4.91763C15.6006 5.33549 15.9321 5.83157 16.1582 6.37753C16.3844 6.9235 16.5008 7.50866 16.5008 8.09961V8.51361C17.2735 8.71333 17.958 9.16409 18.4467 9.79507C18.9354 10.4261 19.2006 11.2015 19.2008 11.9996V16.7996C19.2008 17.7544 18.8215 18.6701 18.1464 19.3452C17.4712 20.0203 16.5556 20.3996 15.6008 20.3996H8.40078C7.446 20.3996 6.53033 20.0203 5.8552 19.3452C5.18007 18.6701 4.80078 17.7544 4.80078 16.7996V11.9996C4.80071 11.2015 5.06589 10.4259 5.55464 9.79488C6.04338 9.16386 6.72797 8.71315 7.50078 8.51361ZM9.30078 8.09961C9.30078 7.38352 9.58524 6.69677 10.0916 6.19042C10.5979 5.68407 11.2847 5.39961 12.0008 5.39961C12.7169 5.39961 13.4036 5.68407 13.91 6.19042C14.4163 6.69677 14.7008 7.38352 14.7008 8.09961V8.39961H9.30078V8.09961ZM6.60078 11.9996C6.60078 11.5222 6.79042 11.0644 7.12799 10.7268C7.46555 10.3893 7.92339 10.1996 8.40078 10.1996H15.6008C16.0782 10.1996 16.536 10.3893 16.8736 10.7268C17.2111 11.0644 17.4008 11.5222 17.4008 11.9996V16.7996C17.4008 17.277 17.2111 17.7348 16.8736 18.0724C16.536 18.41 16.0782 18.5996 15.6008 18.5996H8.40078C7.92339 18.5996 7.46555 18.41 7.12799 18.0724C6.79042 17.7348 6.60078 17.277 6.60078 16.7996V11.9996Z" fill="#5C5F62"/>
</svg>
