<svg width="24" height="26" viewBox="0 0 24 26" fill="none" xmlns="http://www.w3.org/2000/svg">
<path d="M20.3438 18.586H18.6961C18.5836 18.586 18.4781 18.6393 18.4078 18.7332C18.2438 18.9491 18.068 19.1573 17.8828 19.3553C17.1255 20.1765 16.2285 20.831 15.2414 21.2825C14.2187 21.7504 13.1195 21.9905 12.0094 21.9883C10.8867 21.9883 9.79922 21.7496 8.77735 21.2825C7.79021 20.831 6.89321 20.1765 6.13594 19.3553C5.37731 18.5369 4.7724 17.5668 4.35469 16.4989C3.9211 15.3918 3.70313 14.2162 3.70313 13C3.70313 11.7838 3.92344 10.6082 4.35469 9.50121C4.77188 8.43227 5.37188 7.46996 6.13594 6.64477C6.9 5.81957 7.78828 5.16957 8.77735 4.71762C9.79922 4.25043 10.8867 4.01176 12.0094 4.01176C13.132 4.01176 14.2195 4.24789 15.2414 4.71762C16.2305 5.16957 17.1188 5.81957 17.8828 6.64477C18.068 6.84535 18.2414 7.05355 18.4078 7.26684C18.4781 7.36078 18.5859 7.4141 18.6961 7.4141H20.3438C20.4914 7.4141 20.5828 7.23637 20.5008 7.1018C18.7031 4.07523 15.5578 2.07191 11.9836 2.08207C6.36797 2.0973 1.86563 7.03578 1.92188 13.1118C1.97813 19.0912 6.47344 23.918 12.0094 23.918C15.5742 23.918 18.7055 21.9172 20.5008 18.8983C20.5805 18.7637 20.4914 18.586 20.3438 18.586ZM22.4273 12.8401L19.1016 9.99633C18.9773 9.88969 18.7969 9.98617 18.7969 10.1563V12.086H11.4375C11.3344 12.086 11.25 12.1774 11.25 12.2891V13.711C11.25 13.8227 11.3344 13.9141 11.4375 13.9141H18.7969V15.8438C18.7969 16.0139 18.9797 16.1104 19.1016 16.0037L22.4273 13.16C22.4498 13.141 22.4679 13.1167 22.4803 13.089C22.4928 13.0613 22.4993 13.0309 22.4993 13C22.4993 12.9692 22.4928 12.9388 22.4803 12.9111C22.4679 12.8834 22.4498 12.8591 22.4273 12.8401Z" fill="black"/>
</svg>
