<svg width="23" height="23" viewBox="0 0 23 23" fill="none" xmlns="http://www.w3.org/2000/svg">
<g clip-path="url(#clip0_102_5216)">
<path d="M19.0625 7.375C18.5898 7.375 18.1458 7.28548 17.7305 7.10645C17.3151 6.92741 16.9499 6.68392 16.6348 6.37598C16.3197 6.06803 16.0726 5.7028 15.8936 5.28027C15.7145 4.85775 15.625 4.41016 15.625 3.9375C15.625 3.46484 15.7145 3.02083 15.8936 2.60547C16.0726 2.1901 16.3161 1.82487 16.624 1.50977C16.932 1.19466 17.2972 0.947591 17.7197 0.768555C18.1423 0.589518 18.5898 0.5 19.0625 0.5C19.5352 0.5 19.9792 0.589518 20.3945 0.768555C20.8099 0.947591 21.1751 1.19108 21.4902 1.49902C21.8053 1.80697 22.0524 2.1722 22.2314 2.59473C22.4105 3.01725 22.5 3.46484 22.5 3.9375C22.5 4.41016 22.4105 4.85417 22.2314 5.26953C22.0524 5.6849 21.8089 6.05013 21.501 6.36523C21.193 6.68034 20.8278 6.92741 20.4053 7.10645C19.9827 7.28548 19.5352 7.375 19.0625 7.375ZM12.875 10.125V7.375H15.2168C15.3457 7.51823 15.4818 7.6543 15.625 7.7832V10.125C15.625 10.3184 15.5892 10.4974 15.5176 10.6621C15.446 10.8268 15.3493 10.9701 15.2275 11.0918C15.1058 11.2135 14.959 11.3138 14.7871 11.3926C14.6152 11.4714 14.4362 11.5072 14.25 11.5V10.125H12.875ZM8.75 11.5V10.125H7.375V7.375H10.125V10.125C10.125 10.3184 10.0892 10.4974 10.0176 10.6621C9.94596 10.8268 9.84928 10.9701 9.72754 11.0918C9.60579 11.2135 9.45898 11.3138 9.28711 11.3926C9.11523 11.4714 8.9362 11.5072 8.75 11.5ZM21.125 15.625V8.66406C21.3757 8.55664 21.6156 8.42773 21.8447 8.27734C22.0739 8.12695 22.2923 7.96224 22.5 7.7832V17H8.35254L3.25 22.1025V17H0.5V1.875H14.3359C14.1426 2.31185 14.0137 2.77018 13.9492 3.25H1.875V15.625H4.625V18.7725L7.77246 15.625H21.125Z" fill="#565656"/>
</g>
<defs>
<clipPath id="clip0_102_5216">
<rect width="22" height="22" fill="white" transform="translate(0.5 0.5)"/>
</clipPath>
</defs>
</svg>
