<svg width="24" height="26" viewBox="0 0 24 26" fill="none" xmlns="http://www.w3.org/2000/svg">
<path d="M12.018 25.0185C10.6912 25.012 9.6155 23.9415 9.6024 22.6149H14.4096C14.4125 22.9361 14.3517 23.2547 14.2305 23.5523C13.9151 24.2756 13.2711 24.8032 12.5 24.9704H12.4939H12.4783H12.4663H12.4531H12.4447C12.3042 24.9995 12.1614 25.0156 12.018 25.0185ZM21.6325 21.4131H2.40361V19.0095L4.80721 17.8077V11.1977C4.7439 9.50215 5.12682 7.81963 5.91768 6.31843C6.70491 4.92615 8.05052 3.93751 9.61442 3.60235V0.982422H14.4216V3.60235C17.5211 4.34026 19.2288 7.0371 19.2288 11.1977V17.8077L21.6325 19.0095V21.4131ZM24 10.5968H21.5964C21.4845 7.48886 19.9904 4.59325 17.5223 2.701L19.2288 0.982422C20.6663 2.10068 21.8277 3.53398 22.6239 5.17191C23.4472 6.86769 23.9154 8.7137 24 10.5968ZM2.40361 10.5968H0C0.0845588 8.7137 0.552805 6.86767 1.37606 5.17191C2.17221 3.53398 3.33374 2.10068 4.77116 0.982422L6.47772 2.701C4.00935 4.59302 2.5152 7.48877 2.40361 10.5968Z" fill="#0586C6"/>
</svg>
