<svg width="275" height="205" viewBox="0 0 275 205" fill="none" xmlns="http://www.w3.org/2000/svg">
<path d="M275 180.117H0V180.255H275V180.117Z" fill="#EBEBEB"/>
<path d="M247.445 188.967H229.229V189.104H247.445V188.967Z" fill="#EBEBEB"/>
<path d="M182.171 190.463H177.392V190.6H182.171V190.463Z" fill="#EBEBEB"/>
<path d="M228.679 183.863H218.124V184.001H228.679V183.863Z" fill="#EBEBEB"/>
<path d="M52.6074 184.787H28.8529V184.925H52.6074V184.787Z" fill="#EBEBEB"/>
<path d="M60.9894 184.787H57.5079V184.925H60.9894V184.787Z" fill="#EBEBEB"/>
<path d="M123.832 187.107H72.3085V187.245H123.832V187.107Z" fill="#EBEBEB"/>
<path d="M130.35 155.587H24.1506C23.3187 155.585 22.5213 155.254 21.9335 154.665C21.3457 154.076 21.0156 153.278 21.0156 152.446V3.15987C21.0229 2.33269 21.3562 1.54176 21.9432 0.958895C22.5302 0.376027 23.3234 0.048292 24.1506 0.046875H130.35C131.183 0.046875 131.982 0.377748 132.571 0.966706C133.16 1.55566 133.491 2.35446 133.491 3.18737V152.446C133.491 153.279 133.16 154.078 132.571 154.667C131.982 155.256 131.183 155.587 130.35 155.587ZM24.1506 0.156875C23.3551 0.158332 22.5927 0.475361 22.0307 1.03837C21.4688 1.60139 21.1531 2.36438 21.1531 3.15987V152.446C21.1531 153.242 21.4688 154.005 22.0307 154.568C22.5927 155.131 23.3551 155.448 24.1506 155.449H130.35C131.146 155.448 131.909 155.131 132.472 154.568C133.035 154.005 133.352 153.242 133.353 152.446V3.15987C133.352 2.36388 133.035 1.6009 132.472 1.03804C131.909 0.475182 131.146 0.158329 130.35 0.156875H24.1506Z" fill="#EBEBEB"/>
<path d="M249.32 155.587H143.115C142.283 155.585 141.485 155.254 140.896 154.665C140.308 154.077 139.976 153.279 139.975 152.446V3.15987C139.984 2.33219 140.318 1.54127 140.906 0.958551C141.494 0.375835 142.288 0.0482766 143.115 0.046875H249.32C250.147 0.0497375 250.939 0.378112 251.524 0.960825C252.11 1.54354 252.443 2.33364 252.45 3.15987V152.446C252.45 153.277 252.121 154.075 251.534 154.663C250.947 155.252 250.151 155.584 249.32 155.587ZM143.115 0.156875C142.319 0.158329 141.556 0.475182 140.994 1.03804C140.431 1.6009 140.114 2.36388 140.112 3.15987V152.446C140.114 153.242 140.431 154.005 140.994 154.568C141.556 155.131 142.319 155.448 143.115 155.449H249.32C250.116 155.448 250.879 155.131 251.442 154.568C252.005 154.005 252.322 153.242 252.323 152.446V3.15987C252.322 2.36388 252.005 1.6009 251.442 1.03804C250.879 0.475182 250.116 0.158329 249.32 0.156875H143.115Z" fill="#EBEBEB"/>
<path d="M232.848 57.3457H39.369V65.5957H232.848V57.3457Z" fill="#E6E6E6"/>
<path d="M233.096 56.4766H231.204V66.4701H233.096V56.4766Z" fill="#E0E0E0"/>
<path d="M169.153 56.4766H167.261V66.4701H169.153V56.4766Z" fill="#E0E0E0"/>
<path d="M105.209 56.4766H103.317V66.4701H105.209V56.4766Z" fill="#E0E0E0"/>
<path d="M41.261 56.4766H39.369V66.4701H41.261V56.4766Z" fill="#E0E0E0"/>
<path d="M207.394 56.4766H194.403V66.4701H207.394V56.4766Z" fill="#E0E0E0"/>
<path d="M201.988 44.1465H199.81V57.781H201.988V44.1465Z" fill="#E0E0E0"/>
<path d="M204.837 47.2658C207.01 45.0922 207.01 41.568 204.837 39.3943C202.663 37.2207 199.139 37.2207 196.965 39.3943C194.792 41.568 194.792 45.0922 196.965 47.2658C199.139 49.4395 202.663 49.4395 204.837 47.2658Z" fill="#E0E0E0"/>
<path d="M204.853 43.3311C204.852 44.113 204.619 44.877 204.184 45.5266C203.749 46.1762 203.131 46.6822 202.408 46.9806C201.685 47.2791 200.89 47.3566 200.123 47.2034C199.357 47.0502 198.653 46.6732 198.1 46.1199C197.548 45.5666 197.172 44.862 197.019 44.0951C196.867 43.3281 196.946 42.5333 197.245 41.811C197.545 41.0887 198.052 40.4715 198.702 40.0372C199.352 39.6029 200.116 39.3711 200.898 39.3711C201.418 39.3711 201.933 39.4736 202.413 39.6726C202.893 39.8717 203.329 40.1635 203.697 40.5313C204.064 40.8991 204.355 41.3357 204.553 41.8161C204.752 42.2965 204.854 42.8113 204.853 43.3311Z" fill="#EBEBEB"/>
<path d="M232.848 73.8457H39.369V82.0957H232.848V73.8457Z" fill="#E6E6E6"/>
<path d="M233.096 72.9766H231.204V82.9701H233.096V72.9766Z" fill="#E0E0E0"/>
<path d="M169.153 72.9766H167.261V82.9701H169.153V72.9766Z" fill="#E0E0E0"/>
<path d="M105.209 72.9766H103.317V82.9701H105.209V72.9766Z" fill="#E0E0E0"/>
<path d="M41.261 72.9766H39.369V82.9701H41.261V72.9766Z" fill="#E0E0E0"/>
<path d="M39.369 90.8965V99.1465H177.205C178.925 99.1465 180.628 99.4854 182.217 100.144C183.806 100.802 185.25 101.767 186.466 102.984C187.682 104.201 188.647 105.645 189.305 107.234C189.963 108.824 190.301 110.527 190.3 112.247V179.683H198.55V112.132C198.55 106.5 196.313 101.099 192.33 97.1162C188.348 93.1338 182.947 90.8965 177.315 90.8965H39.369Z" fill="#E6E6E6"/>
<path d="M169.153 90.0273H167.261V100.021H169.153V90.0273Z" fill="#E0E0E0"/>
<path d="M105.209 90.0273H103.317V100.021H105.209V90.0273Z" fill="#E0E0E0"/>
<path d="M41.261 90.0273H39.369V100.021H41.261V90.0273Z" fill="#E0E0E0"/>
<path d="M199.419 179.929V178.037H189.426V179.929H199.419Z" fill="#E0E0E0"/>
<path d="M199.424 122.037V120.145H189.431V122.037H199.424Z" fill="#E0E0E0"/>
<path d="M137.5 204.954C196.395 204.954 244.139 202.166 244.139 198.728C244.139 195.289 196.395 192.502 137.5 192.502C78.6045 192.502 30.8604 195.289 30.8604 198.728C30.8604 202.166 78.6045 204.954 137.5 204.954Z" fill="#F5F5F5"/>
<path d="M149.87 186.805H156.327C156.865 186.805 157.381 187.019 157.762 187.399C158.142 187.78 158.356 188.296 158.356 188.834V190.484H147.84V188.834C147.84 188.296 148.054 187.78 148.435 187.399C148.815 187.019 149.331 186.805 149.87 186.805Z" stroke="#263238" stroke-width="2" stroke-miterlimit="10"/>
<path d="M142.027 189.037H165.127C165.47 189.037 165.798 189.173 166.041 189.416C166.283 189.658 166.419 189.987 166.419 190.33V199.68H140.734V190.346C140.732 190.175 140.764 190.005 140.828 189.846C140.892 189.688 140.987 189.543 141.107 189.421C141.227 189.3 141.37 189.203 141.528 189.137C141.686 189.071 141.856 189.037 142.027 189.037Z" fill="#263238"/>
<path opacity="0.2" d="M142.027 189.037H154.71C155.053 189.037 155.381 189.173 155.624 189.416C155.866 189.658 156.002 189.987 156.002 190.33V199.68H140.734V190.346C140.732 190.175 140.764 190.005 140.828 189.846C140.892 189.688 140.987 189.543 141.107 189.421C141.227 189.3 141.37 189.203 141.528 189.137C141.686 189.071 141.856 189.037 142.027 189.037Z" fill="white"/>
<path opacity="0.2" d="M166.441 192.178H140.734V192.733H166.441V192.178Z" fill="black"/>
<path d="M74.6023 89.1477L76.9398 86.3977C76.9398 86.3977 76.3898 84.1207 76.9398 83.5707C77.4898 83.0207 78.5898 81.2387 79.7338 80.9857C80.8778 80.7327 83.4023 83.3837 82.5113 84.6707C81.6203 85.9577 80.8613 87.1401 80.2013 87.1511H79.5523L76.6153 90.0002L74.6023 89.1477Z" fill="#E4897B"/>
<path d="M58.3002 94.701C61.3967 95.119 66.4017 95.8615 68.5797 94.404C70.7577 92.9465 75.7902 87.166 75.7902 87.166L78.4797 88.7005C78.4797 88.7005 71.9512 98.694 70.1032 99.464C68.2552 100.234 57.4532 100.212 57.4532 100.212L58.3002 94.701Z" fill="#407BFF"/>
<path opacity="0.6" d="M78.4634 88.7009C78.4634 88.7009 71.9349 98.6944 70.0869 99.4589C69.0804 99.8824 65.4119 100.069 62.2824 100.146C59.6699 100.223 57.4369 100.212 57.4369 100.212L58.0529 96.2139L58.2839 94.7014C61.3804 95.1194 66.3854 95.8674 68.5634 94.4044C70.7414 92.9414 75.7739 87.1719 75.7739 87.1719L78.4634 88.7009Z" fill="white"/>
<path opacity="0.2" d="M62.2824 100.147C59.6699 100.224 57.4369 100.213 57.4369 100.213L58.0529 96.2148C59.7539 97.1727 61.2034 98.5205 62.2824 100.147Z" fill="black"/>
<path d="M42.7794 87.166C42.0498 87.555 41.4433 88.1401 41.0283 88.8553C40.6134 89.5706 40.4065 90.3875 40.4309 91.214C40.3869 94.25 38.7534 98.6005 39.1879 101.664C39.6224 104.728 42.8124 104.343 43.8244 100.482C44.8364 96.6205 43.0379 94.096 43.4504 91.786C43.6027 91.0707 43.8986 90.3938 44.3203 89.7963C44.7419 89.1988 45.2805 88.6932 45.9034 88.31L42.7794 87.166Z" fill="#263238"/>
<path d="M73.0238 195.446L69.9768 195.985L68.7283 191.833L67.5898 188.016L71.1043 186.789L72.1218 191.376L73.0238 195.446Z" fill="#E4897B"/>
<path opacity="0.2" d="M72.1382 191.469L68.7447 191.915L67.5952 188.059L71.1042 186.811L72.1382 191.469Z" fill="black"/>
<path d="M52.6791 196.853H49.5881L49.0766 192.491L48.6146 188.515L52.2886 187.904L52.4976 192.64L52.6791 196.853Z" fill="#E4897B"/>
<path opacity="0.2" d="M52.4976 192.679L49.0766 192.531L48.6146 188.532L52.2886 187.916L52.4976 192.679Z" fill="black"/>
<path d="M72.4243 189.049L67.4138 189.934C62.3593 177.339 58.7623 166.834 56.2268 158.095C54.8573 153.387 53.7133 149.201 52.9268 145.489L53.0753 159.2V190.088H48.1253C35.7503 131.145 44.5173 117.708 44.5173 117.708L59.3233 115.244C59.9085 117.988 60.3236 120.765 60.5663 123.56L61.2318 128.472L67.0178 158.37L72.4243 189.049Z" fill="#263238"/>
<path d="M48.8624 194.747C48.8624 194.423 52.8389 194.676 52.8389 194.676C52.8389 194.676 55.2809 197.162 57.6569 197.723C60.0329 198.284 58.7019 199.703 56.0509 199.703H49.5004C47.6084 199.697 48.7854 198.091 48.8624 194.747Z" fill="#263238"/>
<path d="M54.9288 195.688C54.3539 195.618 53.7956 195.449 53.2788 195.188C53.264 195.182 53.2507 195.172 53.2403 195.16C53.2296 195.134 53.2296 195.104 53.2403 195.078C53.2403 195.039 53.5868 194.115 54.1258 193.89C54.207 193.853 54.2952 193.834 54.3843 193.834C54.4735 193.834 54.5616 193.853 54.6428 193.89C54.8188 193.978 54.9068 194.088 54.9013 194.225C54.8958 194.363 54.6043 194.643 54.2853 194.814C54.5858 194.764 54.8942 194.798 55.1763 194.913C55.2279 194.941 55.2732 194.979 55.3092 195.026C55.3451 195.072 55.3711 195.125 55.3853 195.182C55.4149 195.254 55.4217 195.333 55.405 195.409C55.3883 195.484 55.3488 195.553 55.2918 195.606C55.1841 195.675 55.0557 195.704 54.9288 195.688ZM53.6473 195.138C54.2303 195.386 54.9563 195.606 55.1488 195.452C55.1488 195.452 55.2148 195.397 55.1488 195.237C55.1409 195.208 55.1271 195.181 55.1082 195.157C55.0893 195.133 55.0656 195.114 55.0388 195.1C54.5816 194.98 54.1005 194.988 53.6473 195.122V195.138ZM54.3568 194.038C54.302 194.039 54.2478 194.05 54.1973 194.071C53.8843 194.275 53.6452 194.574 53.5153 194.924C54.1038 194.704 54.6703 194.374 54.6813 194.214C54.6813 194.159 54.5933 194.104 54.5383 194.082C54.4825 194.051 54.4206 194.032 54.3568 194.027V194.038Z" fill="#407BFF"/>
<path d="M69.1573 194.747C69.1573 194.423 73.1338 194.676 73.1338 194.676C73.1338 194.676 75.5758 197.162 77.9463 197.723C80.3168 198.284 78.9968 199.703 76.3403 199.703H69.7843C67.8978 199.697 69.0748 198.091 69.1573 194.747Z" fill="#263238"/>
<path d="M75.2237 195.688C74.649 195.618 74.0907 195.448 73.5737 195.188L73.5407 195.16C73.5351 195.147 73.5322 195.133 73.5322 195.119C73.5322 195.105 73.5351 195.091 73.5407 195.078C73.5407 195.039 73.8872 194.115 74.4262 193.89C74.5065 193.853 74.5937 193.834 74.682 193.834C74.7702 193.834 74.8574 193.853 74.9377 193.89C75.1192 193.978 75.2072 194.088 75.2017 194.225C75.1962 194.363 74.9047 194.643 74.5802 194.814C74.8807 194.764 75.189 194.798 75.4712 194.913C75.5243 194.939 75.5709 194.977 75.6079 195.024C75.645 195.07 75.6715 195.124 75.6857 195.182C75.7146 195.254 75.7206 195.334 75.7029 195.409C75.6852 195.485 75.6446 195.554 75.5867 195.606C75.479 195.674 75.3506 195.704 75.2237 195.688ZM73.9422 195.138C74.5252 195.386 75.2512 195.606 75.4382 195.452C75.4382 195.452 75.5042 195.397 75.4657 195.237C75.4458 195.178 75.4046 195.129 75.3502 195.1C74.8879 194.976 74.4004 194.984 73.9422 195.122V195.138ZM74.6517 194.038C74.5951 194.038 74.5391 194.05 74.4867 194.071C74.1768 194.277 73.94 194.575 73.8102 194.924C74.3932 194.704 74.9652 194.374 74.9762 194.214C74.9762 194.159 74.8882 194.104 74.8332 194.082C74.7774 194.051 74.7155 194.032 74.6517 194.027V194.038Z" fill="#407BFF"/>
<path opacity="0.2" d="M56.227 158.094C54.8575 153.386 53.7904 149.201 52.9709 145.488C53.0406 141.09 53.3601 136.7 53.928 132.338C53.928 132.338 56.1005 149.3 56.227 158.094Z" fill="black"/>
<path d="M48.8789 120.117L56.6449 119.429V116.91L48.8789 117.581V120.117Z" fill="black"/>
<path d="M48.1968 117.643L44.2973 117.978L43.9508 120.558L48.1968 120.178V117.643Z" fill="black"/>
<path d="M57.239 116.861V119.38L58.9825 119.226V116.713L57.239 116.861Z" fill="black"/>
<path d="M54.5933 117.148C54.5002 117.063 54.3906 116.998 54.2714 116.957C54.1522 116.917 54.0258 116.901 53.9003 116.911L52.0633 117.071C51.8362 117.09 51.6247 117.194 51.4708 117.362C51.3169 117.53 51.232 117.75 51.2328 117.978V119.15C51.2329 119.276 51.2593 119.401 51.3104 119.517C51.3616 119.632 51.4363 119.736 51.5298 119.821C51.6961 119.978 51.9169 120.065 52.1458 120.063H52.2503L54.0873 119.903C54.3144 119.884 54.5259 119.78 54.6798 119.612C54.8336 119.444 54.9186 119.224 54.9178 118.996V117.83C54.9144 117.7 54.8838 117.572 54.8279 117.454C54.772 117.337 54.6921 117.232 54.5933 117.148ZM54.0158 119.43L52.1843 119.59C52.1225 119.596 52.0601 119.589 52.0013 119.569C51.9424 119.549 51.8886 119.517 51.8433 119.474C51.7985 119.433 51.7627 119.383 51.7381 119.327C51.7135 119.271 51.7006 119.211 51.7003 119.15V117.978C51.7012 117.867 51.7435 117.761 51.8187 117.68C51.894 117.598 51.9969 117.548 52.1073 117.538L53.9388 117.384H53.9773C54.087 117.386 54.1924 117.427 54.2743 117.5C54.3198 117.542 54.356 117.593 54.3806 117.65C54.4052 117.706 54.4177 117.768 54.4173 117.83V118.006H54.3458L53.8343 118.044C53.7521 118.051 53.6759 118.09 53.6224 118.153C53.5688 118.216 53.5422 118.297 53.5483 118.38C53.5511 118.421 53.562 118.461 53.5804 118.497C53.5989 118.534 53.6245 118.567 53.6558 118.593C53.687 118.62 53.7233 118.64 53.7625 118.653C53.8016 118.665 53.8429 118.669 53.8838 118.666L54.3953 118.627V119.012C54.3911 119.115 54.3508 119.214 54.2814 119.29C54.2121 119.367 54.118 119.416 54.0158 119.43Z" fill="white"/>
<path d="M41.3825 102.402C41.9325 104.217 42.3835 105.79 42.7355 107.193C43.6315 110.723 44.1551 114.338 44.2975 117.978L58.9825 116.713C59.571 106.368 59.3125 100.681 59.043 97.837C58.7515 94.8065 58.284 94.6965 58.284 94.6965C58.284 94.6965 54.984 94.3775 52.1405 94.3995C49.9268 94.4732 47.7212 94.7048 45.5405 95.0925C43.9601 95.3551 42.3957 95.7058 40.8545 96.143C40.6707 96.1939 40.4993 96.2821 40.3512 96.4022C40.203 96.5223 40.0812 96.6717 39.9935 96.8411C39.9057 97.0104 39.8538 97.196 39.8411 97.3863C39.8284 97.5766 39.8551 97.7675 39.9195 97.947C40.079 98.4145 40.2275 98.86 40.3705 99.3C40.7445 100.389 41.0745 101.434 41.3825 102.402Z" fill="#407BFF"/>
<path opacity="0.6" d="M39.9195 97.9467C40.079 98.4087 40.2275 98.8597 40.3705 99.2997C40.4145 99.4207 40.453 99.5417 40.497 99.6572C40.662 100.207 40.8325 100.708 40.992 101.197L41.3715 102.413C41.784 103.727 42.1305 104.91 42.4165 105.993C42.521 106.411 42.6255 106.818 42.7245 107.209L42.8565 107.726C43.4008 109.918 43.7831 112.148 44.0005 114.397C44.1215 115.558 44.204 116.718 44.2865 117.978L58.9715 116.718C59.56 106.367 59.296 100.686 59.0265 97.8422C58.7295 94.8117 58.2675 94.7017 58.2675 94.7017C58.2675 94.7017 55.666 94.4432 53.0755 94.4102H52.1405C51.8765 94.4102 51.5905 94.4102 51.3375 94.4487C51.0845 94.4872 50.6665 94.4817 50.331 94.5092C48.7859 94.6098 47.2473 94.7934 45.722 95.0592L45.5515 95.0867L44.622 95.2517C43.357 95.4937 42.103 95.8017 40.86 96.1372C40.6755 96.188 40.5034 96.2764 40.3546 96.3968C40.2058 96.5172 40.0835 96.667 39.9952 96.8369C39.9069 97.0067 39.8546 97.1929 39.8416 97.3839C39.8286 97.5748 39.8551 97.7664 39.9195 97.9467Z" fill="white"/>
<path d="M50.3639 97.5348C46.9374 97.0948 45.9089 95.6318 45.9089 95.6318C48.1089 93.5803 46.2774 90.0273 46.2774 90.0273L50.4024 90.7973C50.3062 91.3719 50.2529 91.9529 50.2429 92.5353C50.2099 95.0378 51.3429 95.0598 51.3429 95.0598C52.0634 96.4183 50.3639 97.5348 50.3639 97.5348Z" fill="#E4897B"/>
<path opacity="0.2" d="M50.4025 90.7973C50.3062 91.3719 50.2529 91.9529 50.243 92.5353C49.4176 92.5124 48.6136 92.2674 47.9158 91.826C47.2179 91.3846 46.6519 90.7633 46.2775 90.0273L50.4025 90.7973Z" fill="black"/>
<path d="M60.1485 117.642L53.5485 118.368L52.8115 115.86L52.5475 118.368L43.456 118.841L43.654 115.101L43.7915 112.511L43.7145 112.285L43.0545 110.393L42.0205 107.412L41.531 102.814L40.783 95.8677L42.3065 95.4937L43.819 95.1307L44.9355 94.8667L51.519 100.631L52.5475 93.7832L53.5815 93.9097L55.2315 94.1022L57.613 94.3937L59.8625 103.056L59.5215 110.63L59.3895 113.594L59.34 114.722L60.1485 117.642Z" fill="#407BFF"/>
<path opacity="0.7" d="M59.5214 110.63L59.3894 113.6L43.6539 115.096L43.7914 112.511L43.7144 112.291L48.2794 111.813C48.1584 109.761 47.7844 106.197 46.6294 103.458C45.3827 100.705 43.9398 98.0457 42.3119 95.4997L43.8244 95.1367C45.4178 97.2662 46.713 99.6033 47.6744 102.083C48.7058 105.206 49.5507 108.386 50.2044 111.609L56.4524 110.955C56.6904 108.035 56.6259 105.099 56.2599 102.193C55.8309 99.3992 54.4999 96.0002 53.5924 93.9102L55.2424 94.1082C56.2434 96.2642 57.5249 99.4597 57.7779 102.166C58.0124 105.036 58.0583 107.919 57.9154 110.795L59.5214 110.63Z" fill="white"/>
<path opacity="0.2" d="M43.0545 110.4L42.0205 107.414L41.531 102.821C41.7822 102.729 42.042 102.663 42.3065 102.623C42.3065 102.623 44.0885 107.216 43.0545 110.4Z" fill="black"/>
<path d="M53.3505 83.8514C53.3505 83.8514 55.061 77.3945 48.9505 77.004C41.0745 76.509 38.6435 87.894 46.3325 89.599C54.0215 91.304 53.3505 83.8514 53.3505 83.8514Z" fill="#263238"/>
<path d="M53.3503 89.1468C53.3173 89.2678 53.2843 89.3888 53.2513 89.4988C53.0566 90.2141 52.6232 90.8414 52.0229 91.2766C51.4227 91.7117 50.6918 91.9286 49.9513 91.8913C49.6889 91.9009 49.426 91.8918 49.1648 91.8638L48.6148 91.7923C42.4658 90.7968 42.1633 79.5878 48.1253 79.2468C51.7058 79.0488 52.9653 80.8968 53.4328 84.5873C53.6818 86.0996 53.6538 87.6445 53.3503 89.1468Z" fill="#E4897B"/>
<path d="M51.1008 84.5273C51.4102 85.0455 51.7794 85.5254 52.2008 85.9573C52.104 86.1114 51.9664 86.2356 51.8033 86.3162C51.6402 86.3967 51.458 86.4306 51.2768 86.4138L51.1008 84.5273Z" fill="#DE5753"/>
<path d="M48.8897 84.3556C48.8897 84.6471 48.7742 84.9056 48.5762 84.9056C48.3782 84.9056 48.2022 84.6911 48.1802 84.3996C48.1582 84.1081 48.3012 83.8496 48.4937 83.8496C48.6862 83.8496 48.8677 84.0586 48.8897 84.3556Z" fill="#263238"/>
<path d="M48.4004 83.8728L49.0164 83.5703C49.0164 83.5703 48.7579 84.1313 48.4004 83.8728Z" fill="#263238"/>
<path d="M52.5473 84.0044C52.5473 84.3014 52.4263 84.5544 52.2338 84.5544C52.0413 84.5544 51.8598 84.3454 51.8323 84.0539C51.8048 83.7624 51.9533 83.5039 52.1458 83.5039C52.3383 83.5039 52.5198 83.7129 52.5473 84.0044Z" fill="#263238"/>
<path d="M52.0687 83.5197L52.6847 83.2227C52.6847 83.2227 52.4097 83.7837 52.0687 83.5197Z" fill="#263238"/>
<path d="M48.7194 81.8812C48.4344 81.862 48.1488 81.9086 47.8847 82.0173C47.6205 82.126 47.3849 82.2939 47.1959 82.5082" stroke="#263238" stroke-width="0.72468" stroke-linecap="round" stroke-linejoin="round"/>
<path d="M51.3208 81.5845C51.5618 81.5083 51.8171 81.4886 52.0669 81.5267C52.3168 81.5649 52.5545 81.6599 52.7618 81.8045" stroke="#263238" stroke-width="0.72468" stroke-linecap="round" stroke-linejoin="round"/>
<path d="M44.5504 85.5164C44.5504 85.5164 46.0629 82.4804 45.6889 80.2199C45.6889 80.2199 52.6354 76.9199 53.3889 84.1194C53.3889 84.1194 53.7354 77.6789 47.5589 77.8714C41.3824 78.0639 41.9104 87.0839 45.2379 89.5974C45.2104 89.5974 43.5989 87.4194 44.5504 85.5164Z" fill="#263238"/>
<path d="M45.1608 86.2432C45.1034 85.8306 44.8848 85.4576 44.5528 85.206C44.2208 84.9544 43.8025 84.8448 43.3898 84.9012C42.2898 85.0827 41.8773 87.3927 44.6713 87.7887C45.1003 87.8437 45.2763 87.4477 45.1608 86.2432Z" fill="#E4897B"/>
<path d="M49.396 87.0742C49.5175 87.4313 49.7467 87.7421 50.052 87.9637C50.3573 88.1852 50.7238 88.3068 51.101 88.3117" stroke="#263238" stroke-width="0.5" stroke-linecap="round" stroke-linejoin="round"/>
<path d="M50.6005 84.6912C50.6015 84.9832 50.5159 85.2689 50.3543 85.5121C50.1928 85.7554 49.9626 85.9452 49.6931 86.0574C49.4235 86.1696 49.1267 86.1993 48.8403 86.1426C48.5538 86.0859 48.2907 85.9454 48.0842 85.7389C47.8777 85.5325 47.7372 85.2693 47.6805 84.9829C47.6238 84.6964 47.6535 84.3996 47.7657 84.13C47.878 83.8605 48.0677 83.6303 48.311 83.4688C48.5542 83.3072 48.84 83.2216 49.132 83.2227C49.5214 83.2227 49.8949 83.3774 50.1703 83.6528C50.4457 83.9282 50.6005 84.3017 50.6005 84.6912Z" stroke="#263238" stroke-width="0.5" stroke-linecap="round" stroke-linejoin="round"/>
<path d="M54.4503 84.1029C54.4492 84.3931 54.3622 84.6765 54.2001 84.9173C54.0381 85.158 53.8084 85.3454 53.54 85.4557C53.2715 85.566 52.9764 85.5943 52.692 85.537C52.4075 85.4797 52.1463 85.3395 51.9415 85.1339C51.7367 84.9283 51.5973 84.6666 51.5411 84.3819C51.4849 84.0972 51.5143 83.8022 51.6256 83.5342C51.7369 83.2662 51.9251 83.0371 52.1665 82.876C52.4079 82.7149 52.6916 82.6289 52.9818 82.6289C53.1753 82.6282 53.367 82.6659 53.5459 82.7397C53.7248 82.8136 53.8872 82.9223 54.0238 83.0594C54.1603 83.1964 54.2684 83.3593 54.3416 83.5384C54.4148 83.7175 54.4518 83.9094 54.4503 84.1029Z" stroke="#263238" stroke-width="0.5" stroke-linecap="round" stroke-linejoin="round"/>
<path d="M50.6005 84.3848C50.6005 84.3848 51.1505 83.7578 51.5575 84.2528" stroke="#263238" stroke-width="0.5" stroke-linecap="round" stroke-linejoin="round"/>
<path d="M47.6633 84.6914L44.4293 84.9169" stroke="#263238" stroke-width="0.5" stroke-linecap="round" stroke-linejoin="round"/>
<path d="M46.7942 77.382C48.3556 77.3321 49.9067 77.6525 51.3207 78.317C53.2732 79.3785 53.3667 81.0065 53.3667 81.0065L52.6847 80.7535L51.3207 79.6535C51.5023 79.9916 51.5968 80.3697 51.5957 80.7535C51.5957 80.7535 51.1502 79.8625 50.6002 79.714C50.675 79.9379 50.6842 80.1786 50.6267 80.4077C50.5692 80.6367 50.4474 80.8445 50.2757 81.0065C50.1527 80.5402 49.873 80.1305 49.4837 79.846C49.4837 79.846 49.5882 80.3575 48.5652 81.0065C48.5789 80.7656 48.5329 80.5251 48.4312 80.3063C48.3295 80.0875 48.1752 79.8972 47.9822 79.7525C47.9822 79.7525 47.4927 80.682 46.8217 80.8195C46.8217 80.8195 47.3222 80.3575 47.2232 80.077C46.6636 80.5797 45.9663 80.9035 45.2212 81.0065C44.0772 81.1 42.5867 78.7295 46.7942 77.382Z" fill="#263238"/>
<path d="M43.4504 81.2165C43.4504 81.2165 45.7989 91.056 50.7324 92.079L51.7004 91.7875C51.7004 91.7875 49.0769 91.8315 47.2454 88.8945C45.4139 85.9575 44.1654 81.0625 44.1654 81.0625L43.4504 81.2165Z" fill="black"/>
<path d="M54.7034 79.4333C52.2504 82.4638 45.8099 80.2528 43.5329 81.9963C41.2559 83.7398 41.6189 85.2963 41.6189 85.3238C40.0294 85.8133 40.8929 83.2008 40.8929 83.2008C39.2099 78.0803 42.3229 75.1268 47.1024 74.5658C51.5794 74.0158 52.8114 78.5478 52.8114 78.5478L54.7034 79.4333Z" fill="#407BFF"/>
<path opacity="0.2" d="M52.8004 78.5211C51.7939 80.3086 45.4964 79.8466 43.1424 80.6386C40.7884 81.4306 40.8819 83.1741 40.8819 83.1741C39.1989 78.0536 42.3119 75.1001 47.0914 74.5391C51.5794 74.0111 52.8004 78.5211 52.8004 78.5211Z" fill="black"/>
<path d="M43.797 75.7214C45.7 75.0284 47.823 76.6399 48.6535 77.8114C49.484 78.9829 51.2165 78.5484 51.2495 77.2614C51.2825 75.9744 50.0835 73.483 50.0835 73.483C50.0835 73.483 42.202 73.3399 41.1625 77.7564C41.7728 76.7883 42.706 76.0674 43.797 75.7214Z" fill="#407BFF"/>
<path d="M49.6158 92.1172C50.0012 91.7043 50.5043 91.4201 51.0568 91.3032C51.4557 91.188 51.879 91.188 52.2778 91.3032C52.1531 91.5315 51.982 91.7311 51.7755 91.8893C51.569 92.0475 51.3317 92.1607 51.0788 92.2217C50.8455 92.3273 50.5896 92.3731 50.3341 92.3548C50.0787 92.3366 49.8318 92.2549 49.6158 92.1172Z" fill="#263238"/>
<path d="M46.0739 94.4042L48.8954 95.7627L50.2484 97.0167L50.5729 95.7077L50.4024 93.5352L52.6354 94.4042L53.3669 97.2312L52.0414 96.4722L51.0514 99.4642L48.1969 97.5337L47.5699 98.7547L44.9354 95.4932L46.0739 94.4042Z" fill="#407BFF"/>
<path opacity="0.5" d="M44.9354 95.4932L47.5699 98.7547L48.1969 97.5337L51.0514 99.4642L52.0414 96.4722L53.3669 97.2312L52.6354 94.4042L50.4024 93.5352L50.5729 95.7077L50.2484 97.0167L48.8954 95.7627L46.0739 94.4042L44.9354 95.4932Z" fill="white"/>
<path opacity="0.2" d="M47.5698 98.755L48.1968 97.534L51.0513 99.4645L48.3398 96.5L47.5698 98.755Z" fill="black"/>
<path opacity="0.2" d="M51.0513 99.4656L52.0413 96.4736L53.3668 97.2326L51.8268 95.3516L51.0513 99.4656Z" fill="black"/>
<path d="M57.9814 106.747C57.9814 106.747 57.4644 114.964 64.8124 114.447C71.2364 114.018 77.7869 92.1552 79.3214 86.6937C79.4212 86.3408 79.6339 86.0303 79.9269 85.8098C80.2199 85.5893 80.5771 85.4709 80.9439 85.4727H81.9504" stroke="#263238" stroke-miterlimit="10"/>
<path d="M59.3398 107.401H52.1843L53.3503 96.209H60.5113L59.3398 107.401Z" fill="#263238"/>
<path opacity="0.2" d="M53.7903 107.401H52.1843L53.3503 96.209H54.9563L53.7903 107.401Z" fill="white"/>
<path d="M82.5334 85.5065C82.5345 85.6242 82.5006 85.7396 82.436 85.838C82.3714 85.9364 82.279 86.0134 82.1706 86.0592C82.0621 86.105 81.9425 86.1175 81.827 86.0952C81.7114 86.0729 81.605 86.0168 81.5214 85.9339C81.4378 85.8511 81.3806 85.7453 81.3573 85.6299C81.3339 85.5145 81.3454 85.3948 81.3901 85.2859C81.4349 85.1771 81.5111 85.084 81.6089 85.0185C81.7067 84.953 81.8217 84.918 81.9394 84.918C82.096 84.918 82.2463 84.9798 82.3575 85.09C82.4688 85.2002 82.532 85.3499 82.5334 85.5065Z" fill="#263238"/>
<path d="M48.3398 108.282L50.6003 106.748C50.6003 106.748 50.7213 105.483 50.9688 105.224C51.2163 104.966 54.9398 103.855 55.7098 103.921C56.4798 103.987 56.6173 106.748 55.8913 107.474C55.1653 108.2 52.1953 108.816 51.9753 108.574L49.6158 110.048L48.3398 108.282Z" fill="#E4897B"/>
<path d="M40.1174 96.6816C38.0054 97.8091 35.5029 113.798 38.6544 116.383C41.8059 118.968 51.0514 109.662 51.0514 109.662L49.5224 106.362C49.5224 106.362 43.8739 111.13 42.4329 110.322C40.9919 109.513 42.4329 104.992 42.4329 104.992C42.6647 103.435 42.6647 101.852 42.4329 100.295C42.3188 99.5651 42.054 98.8668 41.6554 98.2447C41.2567 97.6226 40.733 97.0903 40.1174 96.6816Z" fill="#407BFF"/>
<path opacity="0.6" d="M40.1174 96.6816C38.0054 97.8091 35.5029 113.798 38.6544 116.383C41.8059 118.968 51.0514 109.662 51.0514 109.662L49.5224 106.362C49.5224 106.362 43.8739 111.13 42.4329 110.322C40.9919 109.513 42.4329 104.992 42.4329 104.992C42.6647 103.435 42.6647 101.852 42.4329 100.295C42.3188 99.5651 42.054 98.8668 41.6554 98.2447C41.2567 97.6226 40.733 97.0903 40.1174 96.6816Z" fill="white"/>
<path d="M232.848 135.951C232.848 144.459 230.51 151.351 227.628 151.351H161.227C158.339 151.351 156.002 144.448 156.002 135.951C156.002 127.453 158.339 120.551 161.227 120.551H227.628C230.51 120.54 232.848 127.437 232.848 135.951Z" fill="#407BFF"/>
<path opacity="0.4" d="M232.848 135.951C232.848 144.459 230.51 151.351 227.628 151.351H161.227C158.339 151.351 156.002 144.448 156.002 135.951C156.002 127.453 158.339 120.551 161.227 120.551H227.628C230.51 120.54 232.848 127.437 232.848 135.951Z" fill="white"/>
<path d="M166.925 119.055H161.425C158.043 119.055 155.304 126.562 155.304 135.83C155.304 145.097 158.054 152.599 161.425 152.599H166.925C170.302 152.599 173.041 145.092 173.041 135.83C173.041 126.568 170.302 119.055 166.925 119.055Z" fill="#407BFF"/>
<path opacity="0.4" d="M161.425 152.6C164.803 152.6 167.541 145.092 167.541 135.83C167.541 126.569 164.803 119.061 161.425 119.061C158.047 119.061 155.309 126.569 155.309 135.83C155.309 145.092 158.047 152.6 161.425 152.6Z" fill="white"/>
<path opacity="0.2" d="M166.925 119.055H161.425C158.043 119.055 155.304 126.562 155.304 135.83C155.304 145.097 158.054 152.599 161.425 152.599H166.925C170.302 152.599 173.041 145.092 173.041 135.83C173.041 126.568 170.302 119.055 166.925 119.055Z" fill="white"/>
<path d="M160.325 119.055H154.825C151.443 119.055 148.704 126.562 148.704 135.83C148.704 145.097 151.454 152.599 154.825 152.599H160.325C163.702 152.599 166.441 145.092 166.441 135.83C166.441 126.568 163.702 119.055 160.325 119.055Z" fill="#407BFF"/>
<path opacity="0.4" d="M154.825 152.6C158.203 152.6 160.941 145.092 160.941 135.83C160.941 126.569 158.203 119.061 154.825 119.061C151.447 119.061 148.709 126.569 148.709 135.83C148.709 145.092 151.447 152.6 154.825 152.6Z" fill="white"/>
<path opacity="0.2" d="M160.325 119.055H154.825C151.443 119.055 148.704 126.562 148.704 135.83C148.704 145.097 151.454 152.599 154.825 152.599H160.325C163.702 152.599 166.441 145.092 166.441 135.83C166.441 126.568 163.702 119.055 160.325 119.055Z" fill="white"/>
<path d="M158.598 135.951C158.598 144.459 156.261 151.351 153.379 151.351H103.477C100.59 151.351 98.2521 144.448 98.2521 135.951C98.2521 127.453 100.59 120.551 103.477 120.551H153.379C156.261 120.54 158.598 127.437 158.598 135.951Z" fill="#407BFF"/>
<path opacity="0.4" d="M158.598 135.951C158.598 144.459 156.261 151.351 153.379 151.351H103.477C100.59 151.351 98.2521 144.448 98.2521 135.951C98.2521 127.453 100.59 120.551 103.477 120.551H153.379C156.261 120.54 158.598 127.437 158.598 135.951Z" fill="white"/>
<path d="M116.875 119.055H111.375C107.992 119.055 105.253 126.562 105.253 135.83C105.253 145.097 108.003 152.599 111.375 152.599H116.875C120.252 152.599 122.991 145.092 122.991 135.83C122.991 126.568 120.252 119.055 116.875 119.055Z" fill="#407BFF"/>
<path opacity="0.4" d="M111.375 152.6C114.753 152.6 117.491 145.092 117.491 135.83C117.491 126.569 114.753 119.061 111.375 119.061C107.997 119.061 105.259 126.569 105.259 135.83C105.259 145.092 107.997 152.6 111.375 152.6Z" fill="white"/>
<path opacity="0.2" d="M116.875 119.055H111.375C107.992 119.055 105.253 126.562 105.253 135.83C105.253 145.097 108.003 152.599 111.375 152.599H116.875C120.252 152.599 122.991 145.092 122.991 135.83C122.991 126.568 120.252 119.055 116.875 119.055Z" fill="white"/>
<path d="M110.479 120.541H82.2361V151.341H110.479C113.361 151.341 115.698 144.439 115.698 135.941C115.698 127.444 113.361 120.541 110.479 120.541Z" fill="#407BFF"/>
<path opacity="0.4" d="M110.479 120.541H82.2361V151.341H110.479C113.361 151.341 115.698 144.439 115.698 135.941C115.698 127.444 113.361 120.541 110.479 120.541Z" fill="white"/>
<path d="M106.595 33.8438H75.7734V199.498H106.595V33.8438Z" fill="#407BFF"/>
<path opacity="0.4" d="M106.595 33.8438H75.7734V199.498H106.595V33.8438Z" fill="white"/>
<path d="M106.997 159.172H75.372C74.9468 159.172 74.6021 159.517 74.6021 159.942V164.276C74.6021 164.701 74.9468 165.046 75.372 165.046H106.997C107.422 165.046 107.767 164.701 107.767 164.276V159.942C107.767 159.517 107.422 159.172 106.997 159.172Z" fill="#407BFF"/>
<path d="M106.997 109.123H75.372C74.9468 109.123 74.6021 109.468 74.6021 109.893V114.227C74.6021 114.652 74.9468 114.997 75.372 114.997H106.997C107.422 114.997 107.767 114.652 107.767 114.227V109.893C107.767 109.468 107.422 109.123 106.997 109.123Z" fill="#407BFF"/>
<path d="M109.417 199.696H72.9521L74.6021 197.793H107.767L109.417 199.696Z" fill="#407BFF"/>
<path d="M106.997 77.2227H75.372C74.9468 77.2227 74.6021 77.5674 74.6021 77.9927V87.8267C74.6021 88.2519 74.9468 88.5967 75.372 88.5967H106.997C107.422 88.5967 107.767 88.2519 107.767 87.8267V77.9927C107.767 77.5674 107.422 77.2227 106.997 77.2227Z" fill="#407BFF"/>
<path opacity="0.2" d="M106.997 159.172H75.372C74.9468 159.172 74.6021 159.517 74.6021 159.942V164.276C74.6021 164.701 74.9468 165.046 75.372 165.046H106.997C107.422 165.046 107.767 164.701 107.767 164.276V159.942C107.767 159.517 107.422 159.172 106.997 159.172Z" fill="white"/>
<path opacity="0.2" d="M106.997 109.123H75.372C74.9468 109.123 74.6021 109.468 74.6021 109.893V114.227C74.6021 114.652 74.9468 114.997 75.372 114.997H106.997C107.422 114.997 107.767 114.652 107.767 114.227V109.893C107.767 109.468 107.422 109.123 106.997 109.123Z" fill="white"/>
<path opacity="0.2" d="M106.997 77.2227H75.372C74.9468 77.2227 74.6021 77.5674 74.6021 77.9927V87.8267C74.6021 88.2519 74.9468 88.5967 75.372 88.5967H106.997C107.422 88.5967 107.767 88.2519 107.767 87.8267V77.9927C107.767 77.5674 107.422 77.2227 106.997 77.2227Z" fill="white"/>
<path d="M75.7626 78.8672H74.4371C73.6231 78.8672 72.9631 80.6767 72.9631 82.9097C72.9631 85.1427 73.6231 86.9522 74.4371 86.9522H75.7626C76.5821 86.9522 77.2421 85.1427 77.2421 82.9097C77.2421 80.6767 76.5821 78.8672 75.7626 78.8672Z" fill="#407BFF"/>
<path opacity="0.4" d="M74.4371 86.9522C75.2512 86.9522 75.9111 85.1423 75.9111 82.9097C75.9111 80.6771 75.2512 78.8672 74.4371 78.8672C73.6231 78.8672 72.9631 80.6771 72.9631 82.9097C72.9631 85.1423 73.6231 86.9522 74.4371 86.9522Z" fill="white"/>
<path opacity="0.1" d="M75.7626 78.8672H74.4371C73.6231 78.8672 72.9631 80.6767 72.9631 82.9097C72.9631 85.1427 73.6231 86.9522 74.4371 86.9522H75.7626C76.5821 86.9522 77.2421 85.1427 77.2421 82.9097C77.2421 80.6767 76.5821 78.8672 75.7626 78.8672Z" fill="white"/>
<path d="M73.7001 81.6387H67.3531C66.9351 81.6387 66.5941 82.1887 66.5941 82.9092C66.5941 83.6297 66.9351 84.1797 67.3531 84.1797H73.7001C74.1181 84.1797 74.4536 83.6297 74.4536 82.9092C74.4536 82.1887 74.1016 81.6387 73.7001 81.6387Z" fill="#407BFF"/>
<path opacity="0.4" d="M68.1066 82.9092C68.1066 83.6077 67.7711 84.1797 67.3531 84.1797C66.9351 84.1797 66.5941 83.6297 66.5941 82.9092C66.5941 82.1887 66.9351 81.6387 67.3531 81.6387C67.7711 81.6387 68.1066 82.2107 68.1066 82.9092Z" fill="white"/>
<path opacity="0.1" d="M73.7001 81.6387H67.3531C66.9351 81.6387 66.5941 82.1887 66.5941 82.9092C66.5941 83.6297 66.9351 84.1797 67.3531 84.1797H73.7001C74.1181 84.1797 74.4536 83.6297 74.4536 82.9092C74.4536 82.1887 74.1016 81.6387 73.7001 81.6387Z" fill="white"/>
<path d="M66.0935 79.4492H68.3925C69.806 79.4492 70.95 81.0002 70.95 82.9087C70.95 84.8172 69.806 86.3682 68.3925 86.3682H66.0935C64.6855 86.3682 63.5415 84.8172 63.5415 82.9087C63.5415 81.0002 64.6855 79.4492 66.0935 79.4492Z" fill="#407BFF"/>
<path opacity="0.1" d="M66.0935 79.4492H68.3925C69.806 79.4492 70.95 81.0002 70.95 82.9087C70.95 84.8172 69.806 86.3682 68.3925 86.3682H66.0935C64.6855 86.3682 63.5415 84.8172 63.5415 82.9087C63.5415 81.0002 64.6855 79.4492 66.0935 79.4492Z" fill="white"/>
<path opacity="0.2" d="M65.8351 82.9087C65.8351 84.8172 66.9791 86.3682 68.3926 86.3682C69.8061 86.3682 70.9501 84.8172 70.9501 82.9087C70.9501 81.0002 69.8061 79.4492 68.3926 79.4492C66.9791 79.4492 65.8351 81.0002 65.8351 82.9087Z" fill="black"/>
<path d="M167.095 138.949H167.986C169.68 138.949 171.05 137.057 171.05 134.72C171.05 132.382 169.68 130.49 167.986 130.49H167.095C165.401 130.49 164.032 132.388 164.032 134.72C164.032 137.052 165.401 138.949 167.095 138.949Z" fill="#407BFF"/>
<path opacity="0.4" d="M164.923 134.72C164.923 132.388 166.298 130.49 167.987 130.49C169.675 130.49 171.05 132.388 171.05 134.72C171.05 137.052 169.681 138.949 167.987 138.949C166.293 138.949 164.923 137.057 164.923 134.72Z" fill="white"/>
<path opacity="0.2" d="M167.095 138.949H167.986C169.68 138.949 171.05 137.057 171.05 134.72C171.05 132.382 169.68 130.49 167.986 130.49H167.095C165.401 130.49 164.032 132.388 164.032 134.72C164.032 137.052 165.401 138.949 167.095 138.949Z" fill="white"/>
<path d="M168.993 126.502C165.775 126.502 163.163 130.28 163.163 134.939C163.163 139.597 165.775 143.381 168.993 143.381C172.21 143.381 174.823 139.603 174.823 134.939C174.823 130.275 172.216 126.502 168.993 126.502ZM166.65 134.719H164.29C164.31 133.286 164.636 131.874 165.247 130.577L166.958 133.707C166.781 134.017 166.676 134.363 166.65 134.719ZM166.65 135.269C166.684 135.589 166.785 135.898 166.947 136.176L165.236 139.306C164.639 138.042 164.313 136.667 164.279 135.269H166.65ZM169.229 135.269H173.717C173.686 136.682 173.356 138.073 172.749 139.35L169.13 135.742C169.176 135.588 169.208 135.429 169.224 135.269H169.229ZM169.229 134.719C169.214 134.532 169.179 134.348 169.125 134.169L172.744 130.555C173.367 131.864 173.699 133.292 173.717 134.741L169.229 134.719ZM172.469 130.033L168.85 133.613C168.739 133.445 168.595 133.301 168.426 133.19L169.207 127.646C170.5 127.712 171.644 128.63 172.469 130.033ZM168.652 127.646L167.915 133.058C167.701 133.068 167.495 133.145 167.326 133.278L165.55 130C166.336 128.663 167.436 127.772 168.652 127.646ZM165.55 139.883L167.337 136.622C167.504 136.754 167.708 136.831 167.92 136.842L168.646 142.254C167.431 142.105 166.331 141.214 165.55 139.883ZM169.207 142.265L168.459 136.693C168.628 136.583 168.772 136.439 168.883 136.27L172.48 139.85C171.638 141.258 170.5 142.182 169.196 142.265H169.207Z" fill="#407BFF"/>
<path d="M180.317 131.866L177.342 130.293C176.924 129.738 176.568 129.139 176.28 128.506C176.126 127.956 174.08 126.003 173.277 126.229C172.474 126.454 170.489 130.079 171.237 130.579C172.332 131.174 173.486 131.653 174.68 132.009C175.101 132.049 175.524 132.049 175.945 132.009L178.695 134.209L180.317 131.866Z" fill="#263238"/>
<path d="M196.79 130.524C196.79 130.524 187.341 134.049 186.28 134.077C185.218 134.104 178.2 129.963 178.2 129.963L176 132.911C176 132.911 182.33 138.455 183.854 139.637C185.377 140.82 198.193 137.938 198.193 137.938C198.544 136.677 198.6 135.353 198.357 134.067C198.114 132.781 197.577 131.569 196.79 130.524Z" fill="#263238"/>
<path opacity="0.3" d="M196.79 130.524C196.79 130.524 187.341 134.049 186.28 134.077C185.218 134.104 178.2 129.963 178.2 129.963L176 132.911C176 132.911 182.33 138.455 183.854 139.637C185.377 140.82 198.193 137.938 198.193 137.938C198.544 136.677 198.6 135.353 198.357 134.067C198.114 132.781 197.577 131.569 196.79 130.524Z" fill="white"/>
<path d="M188.419 196.591L184.701 197.372L180.735 190.849L184.448 190.062L188.419 196.591Z" fill="#E4897B"/>
<path d="M183.953 195.799H188.1C188.168 195.8 188.234 195.824 188.287 195.867C188.34 195.91 188.377 195.969 188.392 196.036L189.068 199.083C189.083 199.148 189.084 199.215 189.072 199.281C189.06 199.346 189.035 199.409 188.999 199.465C188.963 199.52 188.915 199.568 188.86 199.606C188.805 199.643 188.743 199.669 188.678 199.682C188.641 199.688 188.604 199.688 188.568 199.682C187.22 199.682 186.241 199.578 184.553 199.578C183.513 199.578 180.373 199.688 178.937 199.688C177.502 199.688 177.287 198.269 177.898 198.137C180.538 197.587 182.523 196.767 183.37 196.008C183.531 195.867 183.739 195.793 183.953 195.799Z" fill="#263238"/>
<path d="M182.82 196.397C182.588 196.414 182.358 196.352 182.166 196.221C182.102 196.17 182.052 196.103 182.022 196.027C181.992 195.951 181.983 195.868 181.995 195.787C181.992 195.74 182.004 195.693 182.028 195.652C182.053 195.612 182.089 195.58 182.133 195.561C182.512 195.363 183.618 196.045 183.739 196.111C183.754 196.116 183.767 196.127 183.775 196.141C183.784 196.156 183.786 196.172 183.783 196.188C183.779 196.205 183.77 196.22 183.759 196.233C183.747 196.245 183.733 196.255 183.717 196.26C183.423 196.336 183.123 196.382 182.82 196.397ZM182.314 195.688C182.28 195.675 182.243 195.675 182.21 195.688C182.21 195.688 182.16 195.715 182.155 195.781C182.148 195.835 182.155 195.89 182.174 195.94C182.193 195.991 182.224 196.036 182.265 196.073C182.649 196.249 183.086 196.27 183.486 196.133C183.127 195.912 182.729 195.762 182.314 195.693V195.688Z" fill="#407BFF"/>
<path d="M183.7 196.283H183.662C183.31 196.091 182.628 195.337 182.699 194.974C182.71 194.913 182.741 194.858 182.789 194.819C182.836 194.78 182.896 194.759 182.958 194.76C183.019 194.751 183.082 194.757 183.142 194.775C183.202 194.793 183.257 194.823 183.304 194.864C183.7 195.189 183.783 196.173 183.788 196.217C183.788 196.233 183.784 196.248 183.776 196.262C183.769 196.275 183.758 196.286 183.744 196.294L183.7 196.283ZM183.013 194.892H182.974C182.87 194.892 182.864 194.952 182.859 194.974C182.815 195.194 183.249 195.766 183.601 196.03C183.578 195.642 183.438 195.27 183.2 194.963C183.146 194.917 183.078 194.891 183.007 194.892H183.013Z" fill="#407BFF"/>
<path opacity="0.2" d="M184.448 190.062L180.735 190.849L182.781 194.215L186.499 193.428L184.448 190.062Z" fill="black"/>
<path d="M200.695 174.48C200.497 174.48 198.237 174.48 198.028 174.441C193.954 174.027 189.934 173.201 186.027 171.977C182.523 170.927 180.103 169.942 180.103 169.942C179.306 174.584 186.835 192.393 186.835 192.393L180.686 192.773C180.686 192.773 163.482 167.401 170.814 159.492C176.286 153.591 191.136 159.998 191.136 159.998L195.014 151.809L211.453 152.749C211.453 152.749 215.006 175.244 200.695 174.48Z" fill="#263238"/>
<path d="M180.972 193.505L187.104 192.52L186.516 190.854L179.844 192.245L180.972 193.505Z" fill="#407BFF"/>
<path d="M230.07 189.627L230.395 193.037L222.524 194.06L222.205 190.65L230.07 189.627Z" fill="#E4897B"/>
<path d="M230.043 193.548L229.652 189.407C229.648 189.339 229.666 189.271 229.703 189.214C229.741 189.157 229.797 189.115 229.861 189.093L232.831 188.136C232.959 188.096 233.097 188.109 233.216 188.171C233.334 188.232 233.424 188.339 233.464 188.466C233.467 188.503 233.467 188.539 233.464 188.576C233.569 189.918 233.579 190.903 233.733 192.586C233.832 193.62 234.234 196.738 234.372 198.168C234.509 199.598 233.112 199.917 232.925 199.345C232.105 196.771 231.126 194.868 230.29 194.098C230.143 193.951 230.055 193.756 230.043 193.548Z" fill="#263238"/>
<path d="M230.747 194.617C230.789 194.846 230.75 195.083 230.637 195.288C230.591 195.356 230.529 195.411 230.456 195.447C230.382 195.484 230.301 195.501 230.219 195.497C230.173 195.504 230.125 195.497 230.083 195.476C230.04 195.455 230.005 195.422 229.982 195.381C229.751 195.024 230.324 193.858 230.39 193.731C230.395 193.717 230.405 193.704 230.418 193.695C230.43 193.687 230.445 193.682 230.461 193.682C230.478 193.681 230.495 193.686 230.509 193.696C230.523 193.706 230.533 193.72 230.538 193.737C230.64 194.021 230.71 194.317 230.747 194.617ZM230.087 195.194C230.087 195.23 230.099 195.265 230.12 195.293C230.12 195.293 230.153 195.337 230.219 195.337C230.273 195.339 230.327 195.327 230.376 195.303C230.425 195.279 230.467 195.244 230.5 195.2C230.638 194.803 230.621 194.368 230.45 193.984C230.252 194.36 230.129 194.771 230.087 195.194Z" fill="#407BFF"/>
<path d="M230.544 193.758V193.797C230.384 194.165 229.697 194.897 229.334 194.897C229.273 194.892 229.215 194.865 229.172 194.822C229.129 194.778 229.102 194.721 229.097 194.66C229.082 194.6 229.081 194.537 229.093 194.476C229.105 194.415 229.131 194.358 229.169 194.308C229.449 193.879 230.423 193.709 230.472 193.698C230.487 193.696 230.501 193.699 230.515 193.704C230.528 193.71 230.54 193.719 230.549 193.731C230.549 193.74 230.548 193.75 230.544 193.758ZM229.224 194.572V194.611C229.224 194.715 229.295 194.721 229.317 194.721C229.543 194.721 230.071 194.259 230.302 193.879C229.916 193.94 229.557 194.117 229.273 194.385C229.235 194.44 229.218 194.506 229.224 194.572Z" fill="#407BFF"/>
<path opacity="0.2" d="M222.211 190.651L222.53 194.061L226.589 193.533L226.265 190.117L222.211 190.651Z" fill="black"/>
<path d="M225.302 194.956C225.302 194.956 203.11 201.446 197.582 197.53C194.865 195.605 193.826 190.732 193.666 185.199C193.589 181.442 193.789 177.684 194.266 173.957C194.986 167.995 196.13 163.094 196.631 162.357C196.631 162.357 211.481 161.945 211.074 165.657C210.667 169.37 202.747 188.499 204.474 190.017C206.201 191.535 224.906 189.291 224.906 189.291L225.302 194.956Z" fill="#263238"/>
<path d="M224.136 188.851L224.592 195.693L226.308 195.259L225.533 188.488L224.136 188.851Z" fill="#407BFF"/>
<path opacity="0.5" d="M180.972 193.505L187.104 192.52L186.516 190.854L179.844 192.245L180.972 193.505Z" fill="white"/>
<path opacity="0.5" d="M224.136 188.851L224.592 195.693L226.308 195.259L225.533 188.488L224.136 188.851Z" fill="white"/>
<path d="M187.765 122.373C187.847 122.642 187.726 122.923 187.55 122.923C187.374 122.923 187.176 122.769 187.116 122.499C187.055 122.23 187.154 121.949 187.33 121.949C187.506 121.949 187.71 122.114 187.765 122.373Z" fill="#263238"/>
<path d="M188.04 122.576C187.897 123.489 187.626 124.378 187.237 125.216C187.456 125.31 187.693 125.355 187.931 125.348C188.169 125.342 188.404 125.283 188.617 125.178L188.04 122.576Z" fill="#892B29"/>
<path d="M187.083 120.849C187.041 120.862 187.007 120.89 186.986 120.928C186.965 120.966 186.961 121.011 186.973 121.053C186.987 121.084 187.013 121.109 187.044 121.124C187.08 121.157 187.127 121.175 187.176 121.174C187.375 121.111 187.585 121.096 187.79 121.13C187.995 121.163 188.19 121.244 188.359 121.366C188.39 121.396 188.431 121.413 188.474 121.413C188.517 121.413 188.559 121.396 188.59 121.366C188.62 121.335 188.637 121.294 188.637 121.251C188.637 121.207 188.62 121.166 188.59 121.135C188.38 120.969 188.134 120.856 187.871 120.806C187.609 120.756 187.338 120.771 187.083 120.849Z" fill="#263238"/>
<path d="M188.892 126.411C188.98 126.565 189.074 126.713 189.173 126.856C189.742 127.674 190.545 128.301 191.477 128.655C191.712 128.748 191.955 128.819 192.203 128.869C192.852 129.019 193.526 129.022 194.176 128.877C194.826 128.732 195.435 128.444 195.96 128.033C196.429 127.659 196.82 127.195 197.109 126.669C198.358 124.469 197.769 122.484 197.048 119.046C196.895 118.239 196.536 117.484 196.008 116.855C195.48 116.225 194.799 115.742 194.03 115.451C193.262 115.159 192.431 115.07 191.618 115.191C190.806 115.312 190.037 115.64 189.387 116.142C186.45 118.392 187.336 123.556 188.892 126.411Z" fill="#B97964"/>
<path opacity="0.2" d="M191.477 128.655C191.712 128.748 191.955 128.82 192.203 128.869C192.852 129.019 193.526 129.022 194.176 128.877C194.826 128.733 195.436 128.444 195.96 128.033C195.696 127.668 195.388 127.337 195.041 127.049C193.723 127.23 192.486 127.788 191.477 128.655Z" fill="black"/>
<path d="M199.485 131.207C198.226 133.176 193.985 133.72 193.985 133.72C193.985 133.72 191.235 133.72 191.565 132.769C193.001 132.114 193.54 131.218 193.595 130.239C193.609 129.638 193.504 129.04 193.287 128.479C193.177 128.165 193.039 127.857 192.902 127.555L196.944 122.445C196.95 125.096 197.368 129.848 199.485 131.207Z" fill="#B97964"/>
<path d="M188.787 114.711C189.568 114.095 191.911 112.984 193.528 112.984C198.539 112.984 198.698 115.866 198.698 115.866C198.281 115.4 197.742 115.059 197.142 114.882C202.587 119.964 197.642 126.223 197.642 126.223C195.547 125.854 193.242 127.136 193.242 127.136C193.242 127.136 191.911 124.199 190.822 123.423C189.599 122.417 188.819 120.972 188.65 119.397C188.65 118.143 187.61 119.001 187.61 119.001C186.56 118.418 187.643 115.619 188.787 114.711Z" fill="#263238"/>
<path d="M191.895 122.55C191.916 122.886 191.862 123.223 191.737 123.535C191.613 123.848 191.421 124.13 191.175 124.36C190.564 124.838 189.849 123.991 189.673 122.946C189.525 122.017 189.646 120.62 190.432 120.587C191.219 120.554 191.89 121.599 191.895 122.55Z" fill="#B97964"/>
<path d="M189.101 117.797C189.101 117.797 188.942 125.772 190.636 128.247C190.636 128.247 188.502 126.756 188.524 118.165L189.101 117.797Z" fill="black"/>
<path d="M191.477 116.78C191.477 116.78 194.469 119.684 196.719 120.228C198.968 120.773 199.777 119.425 199.777 119.425L199.485 117.005C199.485 117.005 199.546 118.87 198.638 119.057C197.731 119.244 195.646 118.831 193.171 116.428L191.477 116.78Z" fill="#407BFF"/>
<path opacity="0.4" d="M191.477 116.78C191.477 116.78 194.469 119.684 196.719 120.228C198.968 120.773 199.777 119.425 199.777 119.425L199.485 117.005C199.485 117.005 199.546 118.87 198.638 119.057C197.731 119.244 195.646 118.831 193.171 116.428L191.477 116.78Z" fill="white"/>
<path d="M186.45 119.227C186.45 119.227 186.159 115.69 187.55 114.04C188.942 112.39 192.913 111.483 195.487 112.093C198.061 112.704 199.463 116.026 199.568 116.702C199.804 118.275 193.925 115.503 190.592 116.752C187.259 118 186.45 119.227 186.45 119.227Z" fill="#407BFF"/>
<path opacity="0.2" d="M186.45 119.227C186.45 119.227 186.159 115.69 187.55 114.04C188.942 112.39 192.913 111.483 195.487 112.093C198.061 112.704 199.463 116.026 199.568 116.702C199.804 118.275 193.925 115.503 190.592 116.752C187.259 118 186.45 119.227 186.45 119.227Z" fill="black"/>
<path d="M187.979 113.606C187.979 113.606 188.183 111.852 188.733 111.406C189.283 110.961 193.87 110.389 195.25 110.944C196.631 111.5 198.726 113.975 199.127 116.906L196.9 117.198C196.9 117.198 196.169 113.898 194.183 112.952C191.901 111.896 187.979 113.606 187.979 113.606Z" fill="#407BFF"/>
<path d="M185.383 121.009C185.383 121.009 187.187 121.433 188.628 119.216C190.069 117 193.182 116.84 195.646 117.396C197.39 117.79 199.189 117.883 200.964 117.671L199.551 116.703C199.551 116.703 197.747 117.126 194.601 116.153C191.455 115.179 187.324 117.297 186.461 119.227L185.383 121.009Z" fill="#407BFF"/>
<path d="M211.789 153.316L192.643 156.401C192.324 151.924 191.78 147.64 191.164 143.801C191.098 143.35 191.021 142.91 190.949 142.475C190.79 141.524 190.559 140.435 190.295 139.313C189.64 136.508 188.799 133.477 188.419 131.794C188.419 131.794 195.509 129.226 201.152 130.656C207.823 132.344 211.789 153.316 211.789 153.316Z" fill="#407BFF"/>
<path opacity="0.2" d="M206.393 170.389C206.267 170.818 202.23 184.023 193.666 185.2C193.589 181.443 193.789 177.686 194.266 173.958C196.196 174.271 198.146 174.444 200.101 174.475C202.213 174.398 205.843 171.802 206.393 170.389Z" fill="black"/>
<path opacity="0.7" d="M211.255 150.82L192.45 154.092C192.379 153.207 192.291 152.327 192.192 151.458L200.59 149.808C200.04 147.096 198.94 142.185 197.373 138.522C196.067 135.581 194.103 132.98 191.631 130.921C191.961 130.844 192.307 130.772 192.67 130.706C198.517 135.106 201.47 145.188 202.493 149.434L207.806 148.378C207.339 145.897 206.156 140.392 204.451 136.377C203.515 134.223 202.212 132.249 200.601 130.541C200.794 130.58 200.986 130.624 201.151 130.673C201.657 130.807 202.133 131.031 202.559 131.333C206.877 136.674 209.044 144.902 209.742 147.993L210.512 147.844C210.815 148.955 211.057 149.973 211.255 150.82Z" fill="white"/>
<path opacity="0.2" d="M191.164 143.801C191.098 143.35 191.021 142.91 190.949 142.476C190.79 141.524 190.559 140.435 190.295 139.313C190.756 138.903 191.303 138.6 191.895 138.428C191.895 138.428 192.451 141.777 191.164 143.801Z" fill="black"/>
<path d="M172.629 141.602L169.285 141.234C168.689 140.871 168.136 140.443 167.635 139.958C167.288 139.507 164.681 138.44 164.005 138.946C163.328 139.452 162.822 143.549 163.708 143.742C164.943 143.892 166.191 143.915 167.431 143.808C167.836 143.685 168.228 143.525 168.603 143.329L171.98 144.341L172.629 141.602Z" fill="#263238"/>
<path d="M189.618 132.289C189.618 132.289 179.966 141.051 178.987 141.463C178.008 141.876 169.978 140.6 169.978 140.6L168.993 144.147C168.993 144.147 176.919 146.974 178.767 147.519C180.615 148.063 191.477 140.666 191.477 140.666C191.477 140.666 193.501 134.797 189.618 132.289Z" fill="#263238"/>
<path opacity="0.4" d="M189.618 132.289C189.618 132.289 179.966 141.051 178.987 141.463C178.008 141.876 169.978 140.6 169.978 140.6L168.993 144.147C168.993 144.147 176.919 146.974 178.767 147.519C180.615 148.063 191.477 140.666 191.477 140.666C191.477 140.666 193.501 134.797 189.618 132.289Z" fill="white"/>
</svg>
