<svg width="291" height="225" viewBox="0 0 291 225" fill="none" xmlns="http://www.w3.org/2000/svg">
<path d="M269 184.848H22V184.975H269V184.848Z" fill="#EBEBEB"/>
<path d="M186.912 189.293H170.551V189.42H186.912V189.293Z" fill="#EBEBEB"/>
<path d="M221.521 193.436H217.229V193.563H221.521V193.436Z" fill="#EBEBEB"/>
<path d="M197.261 191.512H187.781V191.639H197.261V191.512Z" fill="#EBEBEB"/>
<path d="M69.2509 189.201H47.915V189.329H69.2509V189.201Z" fill="#EBEBEB"/>
<path d="M145.994 189.201H142.867V189.329H145.994V189.201Z" fill="#EBEBEB"/>
<path d="M114.378 191.43H91.9951V191.557H114.378V191.43Z" fill="#EBEBEB"/>
<path d="M139.078 161.983H43.6913C42.9441 161.981 42.2279 161.672 41.7 161.124C41.1721 160.575 40.8755 159.831 40.8755 159.055V19.9017C40.8821 19.1307 41.1814 18.3934 41.7087 17.8501C42.2359 17.3068 42.9484 17.0013 43.6913 17H139.078C139.826 17 140.543 17.3084 141.072 17.8574C141.601 18.4064 141.899 19.151 141.899 19.9273V159.055C141.899 159.832 141.601 160.576 141.072 161.125C140.543 161.674 139.826 161.983 139.078 161.983ZM43.6913 17.1025C42.9769 17.1039 42.2921 17.3994 41.7873 17.9242C41.2825 18.449 40.999 19.1602 40.999 19.9017V159.055C40.999 159.797 41.2825 160.508 41.7873 161.033C42.2921 161.558 42.9769 161.853 43.6913 161.855H139.078C139.793 161.853 140.478 161.558 140.984 161.033C141.489 160.509 141.774 159.797 141.775 159.055V19.9017C141.774 19.1597 141.489 18.4485 140.984 17.9239C140.478 17.3992 139.793 17.1039 139.078 17.1025H43.6913Z" fill="#EBEBEB"/>
<path d="M245.935 161.983H150.544C149.796 161.981 149.079 161.673 148.551 161.124C148.022 160.575 147.724 159.831 147.723 159.055V19.9017C147.731 19.1302 148.031 18.393 148.559 17.8498C149.087 17.3066 149.8 17.0013 150.544 17H245.935C246.677 17.0027 247.389 17.3088 247.915 17.8519C248.441 18.3951 248.74 19.1315 248.746 19.9017V159.055C248.746 159.83 248.45 160.573 247.923 161.122C247.397 161.67 246.682 161.98 245.935 161.983ZM150.544 17.1025C149.829 17.1039 149.144 17.3992 148.638 17.9239C148.133 18.4485 147.848 19.1597 147.847 19.9017V159.055C147.848 159.797 148.133 160.509 148.638 161.033C149.144 161.558 149.829 161.853 150.544 161.855H245.935C246.65 161.853 247.336 161.558 247.841 161.033C248.347 160.509 248.631 159.797 248.633 159.055V19.9017C248.631 19.1597 248.347 18.4485 247.841 17.9239C247.336 17.3992 246.65 17.1039 245.935 17.1025H150.544Z" fill="#EBEBEB"/>
<path d="M159.139 97.5703L236.282 97.5703V36.1321L159.139 36.1321V97.5703Z" fill="#EBEBEB"/>
<path d="M237.769 36.127H236.282V97.5652H237.769V36.127Z" fill="#E6E6E6"/>
<path d="M233.506 94.69V39.0039L161.911 39.0039V94.69H233.506Z" fill="#FAFAFA"/>
<path d="M163.398 39.0098H161.911V94.6959H163.398V39.0098Z" fill="#E6E6E6"/>
<path d="M224.604 94.6907L211.493 39.0098H203.303L216.418 94.6907H224.604Z" fill="white"/>
<path d="M214.185 94.6907L201.075 39.0098H196.011L209.122 94.6907H214.185Z" fill="white"/>
<path d="M187.011 94.6907L173.9 39.0098H168.837L181.948 94.6907H187.011Z" fill="white"/>
<path opacity="0.5" d="M239.217 37.0858V127.372C239.217 128.188 238.905 128.97 238.349 129.547C237.793 130.124 237.039 130.448 236.253 130.448H231.16C230.379 130.448 229.629 130.128 229.074 129.558C228.519 128.988 228.203 128.213 228.196 127.403C228.126 122.389 228.408 84.6563 231.387 77.6738C231.566 77.2456 231.649 76.7807 231.629 76.3144C231.609 75.8481 231.488 75.3925 231.273 74.9823C226.481 65.7542 220.208 52.6402 219.417 37.1986C219.397 36.7819 219.459 36.3653 219.599 35.9741C219.739 35.583 219.954 35.2255 220.231 34.9234C220.508 34.6213 220.842 34.3808 221.212 34.2167C221.581 34.0526 221.979 33.9682 222.381 33.9688H236.248C236.641 33.968 237.03 34.0484 237.393 34.2053C237.756 34.3621 238.085 34.5923 238.361 34.8823C238.637 35.1724 238.855 35.5166 239.002 35.8949C239.149 36.2731 239.222 36.678 239.217 37.0858Z" fill="#F5F5F5"/>
<path d="M232.123 77.5402H238.866C239.16 77.5402 239.442 77.4193 239.65 77.2041C239.858 76.9889 239.976 76.6968 239.977 76.3918C239.977 76.0859 239.86 75.7925 239.652 75.5761C239.443 75.3598 239.161 75.2383 238.866 75.2383H232.123C231.829 75.2396 231.547 75.3618 231.34 75.5779C231.133 75.7941 231.016 76.0867 231.016 76.3918C231.017 76.6959 231.134 76.9872 231.342 77.2023C231.549 77.4174 231.83 77.5388 232.123 77.5402Z" fill="#E0E0E0"/>
<path opacity="0.5" d="M157.262 37.0858V127.372C157.262 128.188 157.574 128.97 158.13 129.547C158.686 130.124 159.44 130.448 160.226 130.448H165.309C166.09 130.448 166.84 130.128 167.395 129.558C167.95 128.988 168.265 128.213 168.273 127.403C168.342 122.389 168.066 84.6564 165.087 77.6738C164.908 77.2456 164.825 76.7808 164.845 76.3145C164.864 75.8481 164.986 75.3926 165.201 74.9823C169.987 65.7543 176.266 52.6402 177.057 37.1986C177.077 36.7819 177.015 36.3653 176.875 35.9742C176.735 35.583 176.52 35.2255 176.243 34.9234C175.965 34.6213 175.632 34.3809 175.262 34.2167C174.893 34.0526 174.495 33.9683 174.093 33.9688H160.241C159.847 33.9667 159.457 34.0461 159.093 34.2023C158.729 34.3586 158.399 34.5885 158.121 34.8787C157.844 35.1689 157.625 35.5135 157.478 35.8925C157.33 36.2715 157.257 36.6771 157.262 37.0858Z" fill="#F5F5F5"/>
<path d="M164.356 77.5402H157.608C157.314 77.5402 157.032 77.4193 156.823 77.2041C156.615 76.9889 156.497 76.6968 156.496 76.3918C156.496 76.0859 156.613 75.7925 156.822 75.5761C157.03 75.3598 157.313 75.2383 157.608 75.2383H164.356C164.65 75.2396 164.931 75.3618 165.138 75.5779C165.346 75.7941 165.462 76.0867 165.462 76.3918C165.461 76.6959 165.344 76.9872 165.137 77.2023C164.929 77.4174 164.649 77.5388 164.356 77.5402Z" fill="#E0E0E0"/>
<path d="M52.8999 97.5703L130.043 97.5703V36.1321L52.8999 36.1321L52.8999 97.5703Z" fill="#EBEBEB"/>
<path d="M131.525 36.127H130.038V97.5652H131.525V36.127Z" fill="#E6E6E6"/>
<path d="M127.267 94.69V39.0039L55.6712 39.0039V94.69H127.267Z" fill="#FAFAFA"/>
<path d="M57.1583 39.0098H55.6714V94.6959H57.1583V39.0098Z" fill="#E6E6E6"/>
<path d="M118.36 94.6907L105.249 39.0098H97.0586L110.174 94.6907H118.36Z" fill="white"/>
<path d="M107.941 94.6907L94.8301 39.0098H89.7666L102.877 94.6907H107.941Z" fill="white"/>
<path d="M80.7661 94.6907L67.6553 39.0098H62.5918L75.7026 94.6907H80.7661Z" fill="white"/>
<path opacity="0.5" d="M132.972 37.0858V127.372C132.972 128.188 132.66 128.97 132.104 129.547C131.548 130.124 130.794 130.448 130.008 130.448H124.915C124.134 130.448 123.385 130.128 122.83 129.558C122.275 128.988 121.959 128.213 121.951 127.403C121.877 122.389 122.159 84.6564 125.137 77.6738C125.316 77.2456 125.399 76.7808 125.38 76.3145C125.36 75.8481 125.238 75.3926 125.024 74.9823C120.232 65.7543 113.958 52.6402 113.168 37.1986C113.148 36.7819 113.209 36.3653 113.349 35.9742C113.489 35.583 113.704 35.2255 113.982 34.9234C114.259 34.6213 114.593 34.3809 114.962 34.2167C115.332 34.0526 115.73 33.9683 116.132 33.9688H129.993C130.387 33.9667 130.778 34.0461 131.141 34.2023C131.505 34.3586 131.836 34.5885 132.113 34.8787C132.39 35.1689 132.609 35.5135 132.757 35.8925C132.904 36.2715 132.977 36.6771 132.972 37.0858Z" fill="#F5F5F5"/>
<path d="M125.883 77.5402H132.656C132.949 77.5388 133.23 77.4174 133.437 77.2023C133.644 76.9872 133.761 76.6959 133.763 76.3918C133.763 76.0867 133.646 75.7941 133.439 75.5779C133.232 75.3618 132.95 75.2396 132.656 75.2383H125.883C125.589 75.2383 125.306 75.3598 125.098 75.5761C124.889 75.7925 124.772 76.0859 124.772 76.3918C124.773 76.6968 124.891 76.9889 125.099 77.2041C125.308 77.4193 125.59 77.5402 125.883 77.5402Z" fill="#E0E0E0"/>
<path opacity="0.5" d="M51.0174 37.0858V127.372C51.0174 127.776 51.094 128.176 51.243 128.549C51.3919 128.922 51.6103 129.261 51.8855 129.547C52.1607 129.833 52.4875 130.059 52.8471 130.214C53.2067 130.368 53.5921 130.448 53.9814 130.448H59.0794C59.8604 130.448 60.6099 130.128 61.1649 129.558C61.7199 128.988 62.0356 128.213 62.0434 127.403C62.1126 122.389 61.836 84.6564 58.8571 77.6738C58.6781 77.2457 58.5952 76.7808 58.6149 76.3145C58.6346 75.8482 58.7563 75.3926 58.9708 74.9823C63.7626 65.7543 70.0364 52.6402 70.8268 37.1986C70.8469 36.7819 70.7851 36.3653 70.6451 35.9742C70.5052 35.5831 70.2901 35.2256 70.0128 34.9234C69.7355 34.6213 69.402 34.3809 69.0323 34.2168C68.6627 34.0527 68.2648 33.9683 67.8628 33.9688H54.0011C53.6069 33.9661 53.2161 34.0449 52.8515 34.2009C52.487 34.3568 52.1562 34.5866 51.8783 34.8769C51.6005 35.1672 51.3812 35.512 51.2334 35.8913C51.0855 36.2706 51.0121 36.6767 51.0174 37.0858Z" fill="#F5F5F5"/>
<path d="M58.1114 77.5402H51.3634C51.0703 77.5388 50.7896 77.4174 50.5824 77.2023C50.3751 76.9872 50.2581 76.6959 50.2568 76.3918C50.2568 76.0867 50.3733 75.7941 50.5806 75.5779C50.788 75.3618 51.0695 75.2396 51.3634 75.2383H58.1114C58.4062 75.2383 58.6889 75.3598 58.8974 75.5761C59.1058 75.7925 59.2229 76.0859 59.2229 76.3918C59.2216 76.6968 59.1039 76.9889 58.8956 77.2041C58.6873 77.4193 58.4054 77.5402 58.1114 77.5402Z" fill="#E0E0E0"/>
<path d="M209.132 112.402C209.071 115.385 207.887 118.224 205.833 120.311C203.778 122.399 201.018 123.567 198.143 123.567C195.269 123.567 192.508 122.399 190.454 120.311C188.4 118.224 187.215 115.385 187.154 112.402H209.132Z" fill="#E0E0E0"/>
<path d="M192.119 115.018C192.066 117.312 191.15 119.494 189.567 121.097C187.985 122.7 185.861 123.598 183.649 123.598C181.438 123.598 179.314 122.7 177.731 121.097C176.149 119.494 175.233 117.312 175.18 115.018H192.119Z" fill="#EBEBEB"/>
<path d="M129.761 135.318H234.074V123.809L129.761 123.809V135.318Z" fill="#EBEBEB"/>
<path d="M131.021 134.135H169.395V124.989H131.021V134.135Z" fill="#F5F5F5"/>
<path d="M170.758 134.135H209.132V124.989H170.758V134.135Z" fill="#F5F5F5"/>
<path d="M212.902 184.849H215.209L210.283 135.314H207.981L212.902 184.849Z" fill="#F5F5F5"/>
<path d="M233.195 184.849H235.497L230.572 135.314H228.27L233.195 184.849Z" fill="#F5F5F5"/>
<path d="M150.934 184.849H148.627L153.552 135.314H155.859L150.934 184.849Z" fill="#F5F5F5"/>
<path d="M130.645 184.849H128.338L133.264 135.314H135.571L130.645 184.849Z" fill="#F5F5F5"/>
<path d="M104.992 146.141H115.469V182.356C115.469 183.018 115.216 183.653 114.765 184.121C114.314 184.589 113.702 184.852 113.064 184.852H104.992V146.141Z" fill="#EBEBEB"/>
<path d="M104.973 184.842H67.0088C66.6928 184.842 66.38 184.777 66.0881 184.652C65.7962 184.526 65.531 184.342 65.3076 184.111C65.0842 183.879 64.907 183.603 64.7861 183.301C64.6652 182.998 64.603 182.673 64.603 182.345V146.135H104.973V184.842Z" fill="#F5F5F5"/>
<path d="M114.457 141.234H65.6004C64.2117 141.234 63.0859 142.403 63.0859 143.844V150.268C63.0859 151.709 64.2117 152.877 65.6004 152.877H114.457C115.846 152.877 116.971 151.709 116.971 150.268V143.844C116.971 142.403 115.846 141.234 114.457 141.234Z" fill="#E6E6E6"/>
<path d="M145.5 207.999C198.399 207.999 241.282 205.401 241.282 202.196C241.282 198.991 198.399 196.393 145.5 196.393C92.6012 196.393 49.7183 198.991 49.7183 202.196C49.7183 205.401 92.6012 207.999 145.5 207.999Z" fill="#F5F5F5"/>
<path d="M188.409 193.875L184.378 194.485L181.869 185.016L185.895 184.406L188.409 193.875Z" fill="#FFC3BD"/>
<path d="M205.067 197.889H201.001L199.85 188.123H203.916L205.067 197.889Z" fill="#FFC3BD"/>
<path d="M200.467 197.403H205.407C205.488 197.403 205.567 197.431 205.631 197.483C205.694 197.535 205.739 197.608 205.758 197.69L206.598 201.437C206.617 201.528 206.616 201.622 206.596 201.712C206.575 201.803 206.535 201.887 206.479 201.959C206.422 202.031 206.35 202.089 206.269 202.128C206.188 202.168 206.099 202.187 206.01 202.186C204.414 202.16 203.248 202.063 201.243 202.063C200.008 202.063 196.303 202.196 194.579 202.196C192.855 202.196 192.632 200.443 193.329 200.284C196.456 199.576 198.802 198.597 199.795 197.659C199.981 197.489 200.22 197.398 200.467 197.403Z" fill="#263238"/>
<path d="M184.071 193.326L188.098 191.358C188.171 191.323 188.254 191.315 188.333 191.335C188.411 191.354 188.481 191.4 188.532 191.465L190.824 194.48C190.881 194.552 190.92 194.637 190.94 194.727C190.959 194.818 190.958 194.912 190.937 195.002C190.916 195.092 190.876 195.176 190.818 195.247C190.761 195.319 190.689 195.375 190.607 195.413C189.125 196.095 187.006 197.033 185.173 197.925C183.617 198.72 182.011 199.405 180.366 199.976C178.796 200.57 177.773 199.094 178.39 198.699C181.147 196.9 181.572 196.864 183.33 194.085C183.504 193.765 183.761 193.503 184.071 193.326Z" fill="#263238"/>
<path opacity="0.2" d="M181.869 185.02L183.163 189.901L187.194 189.291L185.9 184.41L181.869 185.02Z" fill="black"/>
<path opacity="0.2" d="M203.916 188.123H199.85L200.448 193.157H204.509L203.916 188.123Z" fill="black"/>
<path d="M181.508 189.169L188.33 188.143C188.33 188.143 183.311 162.069 184.472 148.991C184.827 145.018 185.534 141.301 186.793 135.385C188.389 127.92 190.39 119.856 192.03 113.545C193.759 106.88 195.078 102.184 195.078 102.184L180.821 101.041C180.821 101.041 174.275 134.877 173.905 147.74C173.475 161.1 181.508 189.169 181.508 189.169Z" fill="#407BFF"/>
<path opacity="0.3" d="M181.508 189.169L188.33 188.143C188.33 188.143 183.311 162.069 184.472 148.991C184.827 145.018 185.534 141.301 186.793 135.385C188.389 127.92 190.39 119.856 192.03 113.545C193.759 106.88 195.078 102.184 195.078 102.184L180.821 101.041C180.821 101.041 174.275 134.877 173.905 147.74C173.475 161.1 181.508 189.169 181.508 189.169Z" fill="black"/>
<path opacity="0.2" d="M186.794 135.375C188.389 127.91 190.39 119.846 192.03 113.535L190.548 110.213C186.996 114.545 186.092 128.033 186.794 135.375Z" fill="black"/>
<path d="M188.513 101.646C188.513 101.646 190.128 137.764 191.872 150.007C193.779 163.413 198.556 192.184 198.556 192.184H206C206 192.184 203.11 156.451 202.458 149.437C201.065 134.452 202.508 102.785 202.508 102.785L188.513 101.646Z" fill="#407BFF"/>
<path opacity="0.3" d="M188.513 101.646C188.513 101.646 190.128 137.764 191.872 150.007C193.779 163.413 198.556 192.184 198.556 192.184H206C206 192.184 203.11 156.451 202.458 149.437C201.065 134.452 202.508 102.785 202.508 102.785L188.513 101.646Z" fill="black"/>
<path d="M197.667 192.352H206.435L206.405 189.634L196.609 189.455L197.667 192.352Z" fill="#263238"/>
<path d="M180.673 189.462L188.809 188.232L188.404 185.52L179.29 186.755L180.673 189.462Z" fill="#263238"/>
<path d="M199.134 198.135C198.856 198.159 198.579 198.083 198.348 197.92C198.277 197.858 198.221 197.779 198.186 197.69C198.15 197.6 198.137 197.503 198.146 197.407C198.145 197.35 198.159 197.293 198.187 197.243C198.215 197.193 198.255 197.153 198.304 197.125C198.754 196.884 200.073 197.725 200.221 197.817C200.237 197.828 200.25 197.844 200.258 197.862C200.266 197.88 200.268 197.9 200.265 197.92C200.263 197.939 200.255 197.957 200.243 197.972C200.23 197.986 200.214 197.997 200.196 198.002C199.848 198.088 199.492 198.133 199.134 198.135ZM198.521 197.264C198.479 197.263 198.437 197.271 198.398 197.289C198.368 197.289 198.339 197.33 198.339 197.407C198.33 197.475 198.338 197.543 198.361 197.607C198.384 197.67 198.422 197.727 198.472 197.771C198.694 197.961 199.228 197.987 199.914 197.843C199.49 197.559 199.017 197.363 198.521 197.264Z" fill="#407BFF"/>
<path d="M200.171 197.972C200.157 197.977 200.141 197.977 200.127 197.972C199.702 197.736 198.882 196.808 198.961 196.342C198.974 196.268 199.012 196.201 199.068 196.153C199.124 196.105 199.195 196.079 199.267 196.08C199.34 196.068 199.415 196.074 199.486 196.096C199.557 196.118 199.623 196.157 199.677 196.209C200.171 196.608 200.265 197.823 200.265 197.875C200.268 197.892 200.266 197.911 200.259 197.927C200.252 197.943 200.24 197.957 200.226 197.967C200.208 197.974 200.189 197.976 200.171 197.972ZM199.346 196.28H199.302C199.178 196.28 199.168 196.357 199.163 196.383C199.114 196.66 199.657 197.357 200.058 197.69C200.025 197.208 199.853 196.746 199.564 196.368C199.504 196.312 199.426 196.281 199.346 196.28Z" fill="#407BFF"/>
<path d="M183.953 194.024C183.414 194.439 182.426 195.1 181.853 194.931C181.769 194.906 181.692 194.861 181.628 194.798C181.565 194.736 181.516 194.658 181.488 194.572C181.467 194.522 181.46 194.468 181.466 194.414C181.472 194.36 181.491 194.309 181.522 194.265C181.849 193.783 183.691 193.839 183.899 193.844C183.918 193.847 183.937 193.855 183.953 193.867C183.968 193.88 183.98 193.897 183.988 193.916C183.993 193.936 183.993 193.956 183.987 193.976C183.981 193.995 183.969 194.012 183.953 194.024ZM181.695 194.362V194.388C181.684 194.406 181.679 194.428 181.679 194.449C181.679 194.471 181.684 194.492 181.695 194.511C181.714 194.568 181.746 194.62 181.788 194.662C181.83 194.704 181.881 194.735 181.937 194.752C182.259 194.844 182.881 194.588 183.632 194.049C182.876 194.049 181.928 194.126 181.695 194.383V194.362Z" fill="#407BFF"/>
<path d="M183.953 194.024C183.945 194.034 183.935 194.041 183.924 194.047C183.913 194.052 183.901 194.055 183.889 194.055C183.345 194.055 182.085 193.676 181.952 193.214C181.922 193.107 181.952 192.948 182.164 192.804C182.247 192.753 182.338 192.719 182.433 192.705C182.528 192.691 182.625 192.697 182.718 192.722C183.37 192.891 183.943 193.865 183.968 193.906C183.977 193.921 183.982 193.938 183.982 193.955C183.982 193.972 183.977 193.989 183.968 194.004C183.968 194.004 183.958 194.019 183.953 194.024ZM182.184 193.04C182.12 193.101 182.135 193.142 182.14 193.163C182.219 193.44 183.128 193.788 183.701 193.85C183.458 193.437 183.1 193.111 182.673 192.917C182.605 192.896 182.533 192.89 182.462 192.901C182.391 192.911 182.323 192.938 182.263 192.978C182.234 192.994 182.207 193.015 182.184 193.04Z" fill="#407BFF"/>
<path d="M186.303 70.7325C185.315 72.8481 184.286 74.9552 183.216 77.0537L180.044 83.3083C179.55 84.3336 178.987 85.359 178.503 86.3843C178.132 87.1598 177.657 87.8763 177.09 88.5119C176.393 89.2884 175.513 89.8627 174.536 90.178C174.038 90.3283 173.523 90.4076 173.005 90.4139C172.541 90.4064 172.078 90.3462 171.627 90.2344C170.857 90.0295 170.124 89.6953 169.458 89.245C168.876 88.859 168.334 88.4105 167.843 87.9069C167.601 87.666 167.378 87.3943 167.166 87.1584C166.953 86.9226 166.766 86.6458 166.529 86.3279L168.707 84.108L169.344 84.4669C169.567 84.59 169.794 84.7079 170.016 84.8155C170.435 85.0234 170.869 85.1949 171.315 85.3282C171.66 85.4432 172.021 85.4919 172.382 85.4717C172.669 85.4717 172.807 85.3692 172.852 85.2769C172.896 85.1846 172.956 85.118 173.059 84.9078C173.197 84.6162 173.319 84.3166 173.425 84.0106C173.874 82.8623 174.324 81.76 174.798 80.6578C175.737 78.4704 176.707 76.3069 177.708 74.1674C178.202 73.0959 178.696 72.0244 179.239 70.9683C179.783 69.9122 180.277 68.8459 180.825 67.7949L186.303 70.7325Z" fill="#FFC3BD"/>
<path d="M188.053 67.968C189.175 71.8386 181.527 82.3637 181.527 82.3637L173.717 77.1447C175.159 73.7987 176.944 70.624 179.043 67.6758C182.204 63.4719 186.823 63.7179 188.053 67.968Z" fill="#263238"/>
<path opacity="0.2" d="M183.044 73.2641C181.068 74.2023 178.953 77.6782 178.642 80.4415L181.537 82.3742C183.36 79.8246 184.998 77.1377 186.437 74.3356C185.83 73.341 185.306 72.1926 183.044 73.2641Z" fill="black"/>
<path d="M206.158 66.3168C204.975 70.8582 204.122 75.4851 203.604 80.1588C203.229 83.4245 203.002 86.5416 202.868 89.3869C202.542 96.0157 202.696 101.071 202.508 102.778L180.821 101.04C177.818 77.0264 183.43 64.7121 183.43 64.7121C185.145 64.3939 186.877 64.185 188.617 64.0867C188.982 64.0867 189.358 64.0559 189.738 64.0508C192.822 64.1123 195.9 64.3588 198.956 64.789C199.539 64.8659 200.127 64.9582 200.695 65.0607C203.6 65.5632 206.158 66.3168 206.158 66.3168Z" fill="#263238"/>
<path d="M191.59 67.1333C191.59 67.1333 193.047 68.0408 193.566 70.963C195.32 70.1889 199.889 66.9539 199.924 64.652C199.5 64.1979 199.03 63.7939 198.521 63.4473C196.413 65.0486 194.073 66.2927 191.59 67.1333Z" fill="white"/>
<path d="M191.59 67.1338C190.825 67.3066 190.104 67.6459 189.475 68.1293C188.846 68.6127 188.322 69.2292 187.94 69.9381C186.176 69.1589 188.241 64.4167 189.52 63.8681C190.057 63.5455 190.664 63.3692 191.284 63.3555C191.284 63.3555 189.708 66.4674 191.59 67.1338Z" fill="white"/>
<path d="M203.792 65.3186L200.186 64.1651C200.067 64.1228 199.936 64.1294 199.821 64.1838C199.706 64.2381 199.616 64.336 199.569 64.4573C198.689 66.5388 194.629 75.6745 188.878 80.6884C187.628 78.1347 187.009 75.2988 187.076 72.4353C187.144 69.5718 187.895 66.7705 189.264 64.283C189.287 64.243 189.299 64.1971 189.298 64.1505C189.298 64.1038 189.285 64.0583 189.261 64.0189C189.236 63.9795 189.202 63.9478 189.162 63.9275C189.121 63.9071 189.076 63.8989 189.031 63.9037L184.259 64.3394C184.144 64.347 184.035 64.3963 183.951 64.4787C183.867 64.5611 183.814 64.6715 183.8 64.7906C181.824 78.4019 179.562 85.4819 179.562 85.4819C179.562 90.9264 179.912 97.1707 179.937 102.913C179.937 103.073 179.998 103.227 180.108 103.34C180.217 103.454 180.365 103.518 180.52 103.518H202.804C202.956 103.518 203.102 103.457 203.211 103.348C203.321 103.239 203.386 103.09 203.392 102.933L204.049 86.2406C204.049 86.2406 197.543 76.1923 204.103 66.1389C204.156 66.0686 204.19 65.9854 204.202 65.8974C204.214 65.8094 204.204 65.7196 204.173 65.6369C204.141 65.5541 204.09 65.4813 204.023 65.4255C203.956 65.3697 203.877 65.3329 203.792 65.3186Z" fill="#407BFF"/>
<path opacity="0.2" d="M188.513 103.64C188.483 103.641 188.453 103.629 188.431 103.608C188.408 103.588 188.393 103.559 188.39 103.528C187.64 95.9227 187.764 88.2523 188.76 80.6779C188.763 80.661 188.768 80.6447 188.777 80.6301C188.785 80.6155 188.797 80.6028 188.81 80.5927C188.823 80.5827 188.838 80.5755 188.854 80.5717C188.87 80.5678 188.887 80.5673 188.903 80.5702C188.935 80.5776 188.962 80.597 188.981 80.6246C188.999 80.6521 189.007 80.6858 189.002 80.7189C188.013 88.2698 187.89 95.9159 188.637 103.497C188.639 103.531 188.629 103.566 188.608 103.592C188.587 103.619 188.556 103.636 188.523 103.64H188.513Z" fill="black"/>
<g opacity="0.2">
<path d="M203.155 65.1123L200.754 64.3535C195.843 74.3557 194.208 87.0801 195.893 102.188C195.957 102.768 196.021 103.362 196.021 103.511H198.491C198.491 103.224 198.447 102.809 198.343 101.896C196.698 87.0904 198.313 74.7146 203.155 65.1123Z" fill="white"/>
<path d="M185.208 64.2566C182.12 74.4689 181.177 87.1882 182.397 102.092C182.451 102.758 182.501 103.337 182.501 103.512H184.971C184.971 103.24 184.936 102.789 184.857 101.871C183.622 86.7986 184.64 74.0691 187.88 64.0156L185.208 64.2566Z" fill="white"/>
</g>
<path d="M198.743 53.9414C197.963 56.9713 197.014 62.5594 198.956 64.7792C197.975 65.6953 196.816 66.3807 195.556 66.7886C194.297 67.1965 192.968 67.3173 191.659 67.1426C189.11 66.876 189.1 65.0202 189.738 64.041C193.097 63.4873 193.196 60.9342 192.756 58.499L198.743 53.9414Z" fill="#FFC3BD"/>
<path opacity="0.2" d="M196.303 55.8027L192.761 58.4942C192.869 59.0618 192.927 59.6384 192.934 60.2168C194.214 60.1297 196.041 58.8275 196.264 57.4689C196.376 56.9209 196.39 56.3559 196.303 55.8027Z" fill="black"/>
<path d="M195.711 50.6661C190.746 49.1281 187.421 45.6573 186.927 42.248C187.54 42.8632 190.696 43.0581 190.696 43.0581C192.672 42.1148 196.624 42.8171 197.153 44.8011C200.053 44.1706 200.038 51.2351 195.711 50.6661Z" fill="#263238"/>
<path d="M199.401 49.3437C198.882 53.4861 198.783 55.9418 196.614 57.9207C193.354 60.889 188.518 58.582 187.831 54.332C187.214 50.5177 188.162 44.3811 192.203 43.0533C193.098 42.7575 194.051 42.7019 194.973 42.8916C195.894 43.0814 196.755 43.5103 197.473 44.1384C198.192 44.7665 198.746 45.5733 199.083 46.4836C199.42 47.3938 199.529 48.3778 199.401 49.3437Z" fill="#FFC3BD"/>
<path d="M194.836 45.0272C195.186 47.1599 196.288 50.9792 198.842 52.2045C203.397 50.6665 204.222 46.4216 201.119 45.4578C198.017 44.494 194.529 43.1457 194.836 45.0272Z" fill="#263238"/>
<path d="M198.146 49.0972C193.206 47.4464 189.422 44.5396 189.506 40.5254C190.108 41.1508 191.753 41.6071 191.753 41.6071C192.741 40.3203 202.34 40.1563 201.811 46.6056C203.521 46.7338 202.463 49.7432 198.146 49.0972Z" fill="#263238"/>
<path d="M200.665 45.971C200.665 45.971 201.801 44.228 204.014 46.1043C202.904 45.958 201.783 45.9134 200.665 45.971Z" fill="#263238"/>
<path d="M200.828 45.8209C200.828 45.8209 202.458 46.0619 202.587 43.6523C202.06 44.4251 201.472 45.1506 200.828 45.8209Z" fill="#263238"/>
<path d="M200.72 52.921C200.536 53.4038 200.261 53.8438 199.912 54.2153C199.562 54.5868 199.145 54.8822 198.684 55.0844C197.449 55.5971 196.654 54.5051 196.857 53.1978C197.034 52.0238 197.894 50.3371 199.203 50.3576C199.49 50.3667 199.771 50.4498 200.02 50.5994C200.268 50.749 200.477 50.9605 200.628 51.2147C200.778 51.4689 200.865 51.7579 200.881 52.0558C200.897 52.3536 200.842 52.6509 200.72 52.921Z" fill="#FFC3BD"/>
<path d="M193.23 50.0157C193.23 50.3541 193.018 50.6156 192.806 50.6002C192.593 50.5848 192.435 50.2926 192.455 49.9542C192.475 49.6159 192.667 49.3544 192.885 49.3698C193.102 49.3852 193.255 49.6774 193.23 50.0157Z" fill="#263238"/>
<path d="M189.536 49.7169C189.511 50.0553 189.323 50.3167 189.106 50.3014C188.888 50.286 188.74 49.9938 188.76 49.6554C188.78 49.317 188.972 49.0556 189.185 49.071C189.397 49.0863 189.555 49.3786 189.536 49.7169Z" fill="#263238"/>
<path d="M190.696 49.9844C190.228 50.9537 189.633 51.851 188.927 52.6503C189.142 52.8258 189.389 52.9522 189.654 53.0211C189.919 53.0901 190.195 53.1 190.464 53.0501L190.696 49.9844Z" fill="#ED847E"/>
<path d="M192.43 55.3926C192.289 55.4052 192.147 55.4052 192.005 55.3926C191.981 55.3926 191.957 55.3823 191.939 55.364C191.922 55.3458 191.912 55.321 191.912 55.2952C191.912 55.2693 191.922 55.2446 191.939 55.2263C191.957 55.208 191.981 55.1978 192.005 55.1978C192.411 55.2397 192.82 55.1817 193.199 55.0285C193.579 54.8753 193.918 54.6311 194.189 54.316C194.198 54.3068 194.208 54.2996 194.22 54.2946C194.231 54.2897 194.243 54.2871 194.256 54.2871C194.268 54.2871 194.28 54.2897 194.292 54.2946C194.303 54.2996 194.314 54.3068 194.322 54.316C194.338 54.3362 194.347 54.3616 194.347 54.3877C194.347 54.4139 194.338 54.4393 194.322 54.4595C194.083 54.7386 193.793 54.965 193.468 55.1252C193.143 55.2855 192.79 55.3764 192.43 55.3926Z" fill="#263238"/>
<path d="M194.451 48.8713C194.417 48.8717 194.383 48.8635 194.353 48.8475C194.323 48.8314 194.297 48.8079 194.278 48.779C194.151 48.5647 193.978 48.384 193.772 48.2514C193.566 48.1188 193.333 48.0379 193.092 48.0151C193.041 48.0139 192.992 47.9926 192.955 47.9555C192.919 47.9184 192.897 47.8683 192.895 47.8152C192.895 47.7621 192.915 47.7113 192.951 47.6738C192.987 47.6363 193.036 47.6152 193.087 47.6152C193.394 47.6363 193.691 47.7335 193.954 47.8985C194.217 48.0635 194.438 48.2916 194.599 48.5637C194.627 48.6079 194.637 48.6619 194.627 48.7138C194.617 48.7657 194.587 48.8113 194.544 48.8405C194.515 48.8561 194.483 48.8665 194.451 48.8713Z" fill="#263238"/>
<path d="M188.029 48.273C187.993 48.283 187.956 48.283 187.92 48.273C187.875 48.2461 187.842 48.202 187.829 48.1503C187.815 48.0985 187.821 48.0431 187.846 47.9961C187.992 47.7175 188.2 47.479 188.452 47.3006C188.705 47.1223 188.995 47.0092 189.298 46.9708C189.35 46.9692 189.4 46.988 189.438 47.0232C189.477 47.0584 189.501 47.1075 189.506 47.1605C189.508 47.1869 189.505 47.2135 189.496 47.2386C189.488 47.2637 189.475 47.2868 189.458 47.3064C189.441 47.3261 189.42 47.342 189.397 47.353C189.374 47.364 189.349 47.3701 189.323 47.3707C189.083 47.3998 188.854 47.4893 188.655 47.6314C188.456 47.7734 188.294 47.9638 188.182 48.1858C188.165 48.2118 188.142 48.2333 188.115 48.2484C188.089 48.2636 188.059 48.272 188.029 48.273Z" fill="#263238"/>
<path d="M168.871 84.1063L165.541 81.543L164.667 86.2236C164.667 86.2236 167.769 88.3153 168.742 86.6133L168.871 84.1063Z" fill="#FFC3BD"/>
<path d="M161.45 81.1699L162.019 85.461L164.666 86.2351L165.541 81.5544L161.45 81.1699Z" fill="#FFC3BD"/>
<path d="M208.164 69.1328C208.999 70.3376 209.705 71.5013 210.432 72.7215C211.158 73.9416 211.83 75.1618 212.477 76.4332C213.124 77.7046 213.722 78.9966 214.275 80.391C214.862 81.8441 215.31 83.3534 215.614 84.8974C215.796 85.8489 215.846 86.8226 215.762 87.7888C215.701 88.431 215.548 89.0601 215.307 89.6549C215.159 90.0165 214.974 90.3603 214.754 90.6803C214.713 90.7455 214.667 90.8072 214.616 90.8648L214.492 91.0084L214.25 91.2955C213.598 92.0091 212.835 92.6036 211.993 93.0539C211.23 93.4709 210.418 93.7811 209.577 93.9767C208.068 94.3239 206.516 94.4191 204.978 94.2587C204.247 94.182 203.522 94.0622 202.804 93.8998C202.088 93.7427 201.382 93.5389 200.69 93.2898L201.307 90.1881C203.674 90.1522 206.247 89.8805 208.1 89.05C208.524 88.861 208.927 88.6238 209.3 88.3425C209.6 88.1082 209.863 87.8282 210.081 87.512L210.15 87.3992L210.185 87.3428C210.185 87.3838 210.125 87.4351 210.106 87.4505C210.086 87.4658 210.106 87.4505 210.106 87.3223C210.085 86.9237 210.023 86.5284 209.923 86.1432C209.628 85.0246 209.234 83.9366 208.747 82.8928C208.253 81.765 207.665 80.6268 207.058 79.4938C206.45 78.3608 205.798 77.2381 205.141 76.1154C204.484 74.9926 203.768 73.8647 203.111 72.8189L208.164 69.1328Z" fill="#FFC3BD"/>
<path d="M206.158 66.3174C209.878 67.5119 214.428 78.6215 214.428 78.6215L205.378 82.9535C203.843 80.2586 202.67 77.3593 201.89 74.3356C201.446 72.613 202.903 65.2767 206.158 66.3174Z" fill="#263238"/>
<path d="M199.718 85.464L163.406 80.543L159.401 112.376L195.713 117.297L199.718 85.464Z" fill="#263238"/>
<path opacity="0.1" d="M174.171 82.0001L163.404 80.541L159.398 112.374L170.165 113.833L174.171 82.0001Z" fill="black"/>
<path d="M202.221 90.588L198.99 87.9375L197.794 93.2026C197.794 93.2026 201.025 94.8175 202.033 93.1206L202.221 90.588Z" fill="#FFC3BD"/>
<path d="M195.611 87.916L194.821 92.3198L197.795 93.2016L198.99 87.9365L195.611 87.916Z" fill="#FFC3BD"/>
<path d="M161.752 163.771H117.93V202.191H161.752V163.771Z" fill="#407BFF"/>
<path opacity="0.1" d="M130.922 163.771H117.93V202.191H130.922V163.771Z" fill="black"/>
<path d="M136.376 86.9336H92.5532V125.353H136.376V86.9336Z" fill="#407BFF"/>
<path opacity="0.1" d="M110.935 86.9336H92.5532V125.353H110.935V86.9336Z" fill="black"/>
<path d="M69.251 202.197H113.074L113.074 125.353H69.251V202.197Z" fill="#407BFF"/>
<path opacity="0.1" d="M102.522 149.608C103.905 160.502 109.957 163.363 113.054 177.02V137.437C106.642 130.506 101.154 138.709 102.522 149.608Z" fill="white"/>
<path opacity="0.1" d="M87.806 134.877C88.3036 136.516 88.2472 138.282 87.6463 139.882C87.0453 141.483 85.9357 142.823 84.5011 143.68C81.6162 145.377 78.3311 143.762 76.0488 140.86C73.7665 137.959 75.1645 133.586 78.0248 131.883C80.885 130.181 86.8279 131.273 87.806 134.877Z" fill="white"/>
<path opacity="0.1" d="M74.028 184.644C69.9475 171.852 75.0407 155.16 84.6687 152.274C94.2968 149.387 98.234 157.472 100.082 162.086C107.926 169.51 110.742 188.955 100.082 194.051C96.7223 198.967 78.1084 197.429 74.028 184.644Z" fill="white"/>
<path opacity="0.1" d="M100.082 125.354H69.251V202.197H100.082V125.354Z" fill="black"/>
<path d="M165.517 125.354H128.497V163.773H165.517V125.354Z" fill="#407BFF"/>
<path opacity="0.4" d="M165.517 125.354H128.497V163.773H165.517V125.354Z" fill="white"/>
<path d="M101.904 121.66C106.65 116.735 106.65 108.75 101.904 103.824C97.1583 98.8992 89.4639 98.8992 84.718 103.824C79.9722 108.75 79.9722 116.735 84.718 121.66C89.4639 126.585 97.1583 126.585 101.904 121.66Z" fill="#407BFF"/>
<path opacity="0.4" d="M101.904 121.66C106.65 116.735 106.65 108.75 101.904 103.824C97.1583 98.8992 89.4639 98.8992 84.718 103.824C79.9722 108.75 79.9722 116.735 84.718 121.66C89.4639 126.585 97.1583 126.585 101.904 121.66Z" fill="black"/>
</svg>
