<svg width="290" height="217" viewBox="0 0 290 217" fill="none" xmlns="http://www.w3.org/2000/svg">
<path d="M289.167 191.072H0.833252V191.213H289.167V191.072Z" fill="#EBEBEB"/>
<path d="M260.276 200.131H245.15V200.272H260.276V200.131Z" fill="#EBEBEB"/>
<path d="M206.565 198.303H186.826V198.444H206.565V198.303Z" fill="#EBEBEB"/>
<path d="M240.594 194.906H225.347V195.047H240.594V194.906Z" fill="#EBEBEB"/>
<path d="M64.7791 195.852H39.8728V195.992H64.7791V195.852Z" fill="#EBEBEB"/>
<path d="M34.7355 195.852H31.0852V195.992H34.7355V195.852Z" fill="#EBEBEB"/>
<path d="M109.056 198.229H76.6472V198.369H109.056V198.229Z" fill="#EBEBEB"/>
<path d="M137.503 165.959H26.1546C25.2823 165.958 24.4463 165.618 23.83 165.015C23.2137 164.413 22.8676 163.596 22.8676 162.744V9.90964C22.8752 9.06279 23.2247 8.25307 23.8401 7.65635C24.4556 7.05963 25.2873 6.72411 26.1546 6.72266H137.503C138.377 6.72266 139.214 7.06139 139.832 7.66435C140.449 8.2673 140.796 9.08508 140.796 9.93779V162.744C140.796 163.597 140.449 164.414 139.832 165.017C139.214 165.62 138.377 165.959 137.503 165.959ZM26.1546 6.83527C25.3206 6.83676 24.5212 7.16133 23.9319 7.73772C23.3427 8.31411 23.0118 9.09524 23.0118 9.90964V162.744C23.0118 163.558 23.3427 164.339 23.9319 164.916C24.5212 165.492 25.3206 165.817 26.1546 165.818H137.503C138.338 165.817 139.138 165.492 139.728 164.916C140.318 164.34 140.65 163.559 140.652 162.744V9.90964C140.65 9.09472 140.318 8.31361 139.728 7.73738C139.138 7.16114 138.338 6.83676 137.503 6.83527H26.1546Z" fill="#EBEBEB"/>
<path d="M262.242 165.959H150.888C150.015 165.958 149.178 165.618 148.561 165.016C147.944 164.413 147.597 163.596 147.595 162.744V9.90964C147.604 9.06228 147.955 8.25256 148.571 7.656C149.188 7.05943 150.02 6.72409 150.888 6.72266H262.242C263.109 6.72559 263.939 7.06177 264.553 7.65833C265.167 8.25489 265.516 9.06377 265.524 9.90964V162.744C265.524 163.595 265.178 164.411 264.563 165.013C263.948 165.616 263.114 165.956 262.242 165.959ZM150.888 6.83527C150.053 6.83676 149.253 7.16114 148.663 7.73738C148.073 8.31361 147.741 9.09472 147.739 9.90964V162.744C147.741 163.559 148.073 164.34 148.663 164.916C149.253 165.492 150.053 165.817 150.888 165.818H262.242C263.077 165.817 263.877 165.492 264.467 164.916C265.057 164.34 265.389 163.559 265.391 162.744V9.90964C265.389 9.09472 265.057 8.31361 264.467 7.73738C263.877 7.16114 263.077 6.83676 262.242 6.83527H150.888Z" fill="#EBEBEB"/>
<path d="M236.598 34.6113H171.665V132.501H236.598V34.6113Z" fill="#EBEBEB"/>
<path d="M125.826 132.508H171.665V34.6179H125.826L125.826 132.508Z" fill="#F5F5F5"/>
<path d="M125.831 34.6113H125.012V132.501H125.831V34.6113Z" fill="#E6E6E6"/>
<path d="M235.375 131.313V35.8105L172.888 35.8105V131.313H235.375Z" fill="#F5F5F5"/>
<path d="M235.381 92.6638H202.361V35.8105H202.937V92.1007H235.381V92.6638Z" fill="#E0E0E0"/>
<path d="M236.598 132.508H247.07V34.6179H236.598V132.508Z" fill="#E0E0E0"/>
<path d="M172.887 131.307H183.36V35.8042H172.887V131.307Z" fill="#E0E0E0"/>
<path d="M213.756 47.7148H187.131V85.5138H213.756V47.7148Z" fill="#E6E6E6"/>
<path d="M209.466 50.8281H191.41C190.77 50.8281 190.251 51.3348 190.251 51.9599V75.9636C190.251 76.5887 190.77 77.0954 191.41 77.0954H209.466C210.106 77.0954 210.625 76.5887 210.625 75.9636V51.9599C210.625 51.3348 210.106 50.8281 209.466 50.8281Z" fill="#F0F0F0"/>
<path d="M213.756 85.5195H218.646V47.7206H213.756V85.5195Z" fill="#E0E0E0"/>
<path d="M200.441 60.8728C200.216 60.8728 200 60.7856 199.841 60.6303C199.682 60.4751 199.593 60.2646 199.593 60.0451V55.4955C199.593 55.2754 199.682 55.0643 199.841 54.9082C200 54.752 200.215 54.6636 200.441 54.6621C200.666 54.6636 200.882 54.752 201.04 54.9082C201.199 55.0643 201.288 55.2754 201.288 55.4955V60.0451C201.288 60.1538 201.266 60.2614 201.224 60.3618C201.181 60.4622 201.119 60.5535 201.04 60.6303C200.961 60.7072 200.868 60.7682 200.765 60.8098C200.662 60.8514 200.552 60.8728 200.441 60.8728Z" fill="#FAFAFA"/>
<path d="M197.385 60.8728C197.16 60.8728 196.944 60.7856 196.785 60.6303C196.626 60.4751 196.537 60.2646 196.537 60.0451V55.4955C196.537 55.2754 196.626 55.0643 196.785 54.9082C196.944 54.752 197.159 54.6636 197.385 54.6621C197.61 54.6636 197.826 54.752 197.984 54.9082C198.143 55.0643 198.232 55.2754 198.232 55.4955V60.0451C198.232 60.2646 198.143 60.4751 197.984 60.6303C197.825 60.7856 197.609 60.8728 197.385 60.8728Z" fill="#FAFAFA"/>
<path d="M194.328 60.8728C194.104 60.8728 193.888 60.7856 193.729 60.6303C193.57 60.4751 193.481 60.2646 193.481 60.0451V55.4955C193.481 55.2754 193.57 55.0643 193.729 54.9082C193.887 54.752 194.103 54.6636 194.328 54.6621C194.554 54.6636 194.769 54.752 194.928 54.9082C195.087 55.0643 195.176 55.2754 195.176 55.4955V60.0451C195.176 60.2646 195.087 60.4751 194.928 60.6303C194.769 60.7856 194.553 60.8728 194.328 60.8728Z" fill="#FAFAFA"/>
<path d="M203.497 60.8728C203.275 60.8684 203.064 60.7792 202.909 60.6245C202.754 60.4697 202.667 60.2617 202.667 60.0451V55.4955C202.667 55.2754 202.756 55.0643 202.915 54.9082C203.073 54.752 203.289 54.6636 203.514 54.6621C203.74 54.6636 203.955 54.752 204.114 54.9082C204.273 55.0643 204.362 55.2754 204.362 55.4955V60.0451C204.362 60.1552 204.34 60.2642 204.296 60.3658C204.252 60.4673 204.188 60.5593 204.108 60.6364C204.027 60.7135 203.932 60.7741 203.827 60.8147C203.722 60.8553 203.61 60.875 203.497 60.8728Z" fill="#FAFAFA"/>
<path d="M206.553 60.8728C206.328 60.8728 206.113 60.7856 205.954 60.6303C205.795 60.4751 205.705 60.2646 205.705 60.0451V55.4955C205.705 55.2754 205.794 55.0643 205.953 54.9082C206.112 54.752 206.328 54.6636 206.553 54.6621C206.778 54.6636 206.994 54.752 207.153 54.9082C207.312 55.0643 207.401 55.2754 207.401 55.4955V60.0451C207.401 60.1538 207.379 60.2614 207.336 60.3618C207.294 60.4622 207.231 60.5535 207.152 60.6303C207.074 60.7072 206.98 60.7682 206.877 60.8098C206.775 60.8514 206.664 60.8728 206.553 60.8728Z" fill="#FAFAFA"/>
<path d="M194.328 67.3541C194.328 67.4655 194.295 67.5743 194.231 67.6669C194.168 67.7595 194.078 67.8317 193.972 67.8743C193.867 67.9169 193.751 67.9281 193.639 67.9063C193.527 67.8846 193.425 67.831 193.344 67.7522C193.263 67.6735 193.208 67.5732 193.186 67.4639C193.164 67.3547 193.175 67.2415 193.219 67.1386C193.263 67.0357 193.337 66.9478 193.431 66.8859C193.526 66.824 193.638 66.791 193.752 66.791C193.905 66.791 194.051 66.8503 194.159 66.9559C194.268 67.0615 194.328 67.2048 194.328 67.3541Z" fill="#FAFAFA"/>
<path d="M194.328 72.7252C194.328 72.8365 194.295 72.9454 194.231 73.038C194.168 73.1306 194.078 73.2028 193.972 73.2454C193.867 73.288 193.751 73.2992 193.639 73.2774C193.527 73.2557 193.425 73.2021 193.344 73.1233C193.263 73.0446 193.208 72.9443 193.186 72.835C193.164 72.7258 193.175 72.6126 193.219 72.5097C193.263 72.4068 193.337 72.3189 193.431 72.257C193.526 72.1951 193.638 72.1621 193.752 72.1621C193.905 72.1621 194.051 72.2214 194.159 72.327C194.268 72.4326 194.328 72.5758 194.328 72.7252Z" fill="#E6E6E6"/>
<path d="M196.773 72.7252C196.773 72.8365 196.739 72.9454 196.676 73.038C196.613 73.1306 196.523 73.2028 196.417 73.2454C196.312 73.288 196.196 73.2992 196.084 73.2774C195.972 73.2557 195.869 73.2021 195.789 73.1233C195.708 73.0446 195.653 72.9443 195.631 72.835C195.609 72.7258 195.62 72.6126 195.664 72.5097C195.707 72.4068 195.781 72.3189 195.876 72.257C195.971 72.1951 196.082 72.1621 196.197 72.1621C196.349 72.1621 196.496 72.2214 196.604 72.327C196.712 72.4326 196.773 72.5758 196.773 72.7252Z" fill="#E6E6E6"/>
<path d="M199.206 72.7252C199.206 72.8365 199.172 72.9454 199.109 73.038C199.046 73.1306 198.956 73.2028 198.85 73.2454C198.745 73.288 198.629 73.2992 198.517 73.2774C198.405 73.2557 198.303 73.2021 198.222 73.1233C198.141 73.0446 198.086 72.9443 198.064 72.835C198.042 72.7258 198.053 72.6126 198.097 72.5097C198.141 72.4068 198.214 72.3189 198.309 72.257C198.404 72.1951 198.516 72.1621 198.63 72.1621C198.783 72.1621 198.929 72.2214 199.037 72.327C199.146 72.4326 199.206 72.5758 199.206 72.7252Z" fill="#E6E6E6"/>
<path d="M195.199 98.2617H190.412V127.198H195.199V98.2617Z" fill="#E6E6E6"/>
<path d="M195.199 103.758H190.412V106.156H195.199V103.758Z" fill="#E0E0E0"/>
<path d="M195.199 113.418H190.412V114.437H195.199V113.418Z" fill="#E0E0E0"/>
<path d="M195.205 127.197H197.038V98.2611H195.205V127.197Z" fill="#E0E0E0"/>
<path d="M193.85 101.133C193.851 101.335 193.791 101.533 193.676 101.701C193.562 101.869 193.399 102.001 193.208 102.079C193.017 102.157 192.807 102.177 192.604 102.138C192.401 102.099 192.214 102.002 192.068 101.859C191.922 101.716 191.822 101.534 191.782 101.336C191.742 101.138 191.763 100.932 191.843 100.746C191.923 100.559 192.057 100.4 192.23 100.289C192.402 100.177 192.605 100.118 192.812 100.119C193.087 100.121 193.35 100.228 193.544 100.418C193.739 100.607 193.848 100.864 193.85 101.133Z" fill="#F5F5F5"/>
<path d="M201.311 98.2617H196.525V127.198H201.311V98.2617Z" fill="#E6E6E6"/>
<path d="M201.311 103.758H196.525V106.156H201.311V103.758Z" fill="#E0E0E0"/>
<path d="M201.311 113.418H196.525V114.437H201.311V113.418Z" fill="#E0E0E0"/>
<path d="M201.317 127.197H203.151V98.2611H201.317V127.197Z" fill="#E0E0E0"/>
<path d="M199.962 101.133C199.963 101.335 199.903 101.533 199.788 101.701C199.674 101.869 199.511 102.001 199.32 102.079C199.129 102.157 198.919 102.177 198.716 102.138C198.513 102.099 198.326 102.002 198.18 101.859C198.034 101.716 197.934 101.534 197.894 101.336C197.854 101.138 197.875 100.932 197.955 100.746C198.035 100.559 198.169 100.4 198.342 100.289C198.514 100.177 198.717 100.118 198.924 100.119C199.199 100.121 199.462 100.228 199.656 100.418C199.85 100.607 199.96 100.864 199.962 101.133Z" fill="#F5F5F5"/>
<path d="M207.43 98.2617H202.643V127.198H207.43V98.2617Z" fill="#E6E6E6"/>
<path d="M207.43 103.758H202.643V106.156H207.43V103.758Z" fill="#E0E0E0"/>
<path d="M207.43 113.418H202.643V114.437H207.43V113.418Z" fill="#E0E0E0"/>
<path d="M207.43 127.197H209.263V98.2611H207.43V127.197Z" fill="#E0E0E0"/>
<path d="M206.076 101.133C206.077 101.335 206.016 101.533 205.902 101.701C205.788 101.869 205.625 102.001 205.434 102.079C205.243 102.157 205.033 102.177 204.83 102.138C204.627 102.099 204.44 102.002 204.294 101.859C204.147 101.716 204.048 101.534 204.008 101.336C203.968 101.138 203.989 100.932 204.069 100.746C204.148 100.559 204.283 100.4 204.456 100.289C204.628 100.177 204.831 100.118 205.038 100.119C205.312 100.121 205.576 100.228 205.77 100.418C205.964 100.607 206.074 100.864 206.076 101.133Z" fill="#F5F5F5"/>
<path d="M213.543 98.2617H208.757V127.198H213.543V98.2617Z" fill="#E6E6E6"/>
<path d="M213.543 103.758H208.757V106.156H213.543V103.758Z" fill="#E0E0E0"/>
<path d="M213.543 113.418H208.757V114.437H213.543V113.418Z" fill="#E0E0E0"/>
<path d="M213.543 127.197H215.377V98.2611H213.543V127.197Z" fill="#E0E0E0"/>
<path d="M212.188 101.133C212.189 101.335 212.129 101.533 212.014 101.701C211.9 101.869 211.737 102.001 211.546 102.079C211.355 102.157 211.145 102.177 210.942 102.138C210.739 102.099 210.552 102.002 210.406 101.859C210.26 101.716 210.16 101.534 210.12 101.336C210.08 101.138 210.101 100.932 210.181 100.746C210.261 100.559 210.395 100.4 210.568 100.289C210.74 100.177 210.943 100.118 211.15 100.119C211.425 100.121 211.688 100.228 211.882 100.418C212.077 100.607 212.186 100.864 212.188 101.133Z" fill="#F5F5F5"/>
<path d="M219.655 98.2617H214.869V127.198H219.655V98.2617Z" fill="#E6E6E6"/>
<path d="M219.655 103.758H214.869V106.156H219.655V103.758Z" fill="#E0E0E0"/>
<path d="M219.655 113.418H214.869V114.437H219.655V113.418Z" fill="#E0E0E0"/>
<path d="M219.655 127.197H221.489V98.2611H219.655V127.197Z" fill="#E0E0E0"/>
<path d="M218.3 101.133C218.301 101.335 218.24 101.533 218.126 101.701C218.012 101.869 217.849 102.001 217.658 102.079C217.467 102.157 217.257 102.177 217.054 102.138C216.851 102.099 216.664 102.002 216.518 101.859C216.372 101.716 216.272 101.534 216.232 101.336C216.192 101.138 216.213 100.932 216.293 100.746C216.372 100.559 216.507 100.4 216.68 100.289C216.852 100.177 217.055 100.118 217.262 100.119C217.537 100.121 217.8 100.228 217.994 100.418C218.188 100.607 218.298 100.864 218.3 101.133Z" fill="#F5F5F5"/>
<path d="M225.768 98.2617H220.981V127.198H225.768V98.2617Z" fill="#E6E6E6"/>
<path d="M225.768 103.758H220.981V106.156H225.768V103.758Z" fill="#E0E0E0"/>
<path d="M225.768 113.418H220.981V114.437H225.768V113.418Z" fill="#E0E0E0"/>
<path d="M225.768 127.197H227.601V98.2611H225.768V127.197Z" fill="#E0E0E0"/>
<path d="M224.413 101.133C224.414 101.335 224.354 101.533 224.239 101.701C224.125 101.869 223.962 102.001 223.771 102.079C223.58 102.157 223.37 102.177 223.167 102.138C222.964 102.099 222.777 102.002 222.631 101.859C222.485 101.716 222.385 101.534 222.345 101.336C222.305 101.138 222.326 100.932 222.406 100.746C222.486 100.559 222.62 100.4 222.793 100.289C222.965 100.177 223.168 100.118 223.375 100.119C223.65 100.121 223.913 100.228 224.107 100.418C224.302 100.607 224.411 100.864 224.413 101.133Z" fill="#F5F5F5"/>
<path d="M193.1 98.2616H192.523V92.1016H202.649V92.6646H193.1V98.2616Z" fill="#E0E0E0"/>
<path d="M199.212 92.3828H198.635V98.2669H199.212V92.3828Z" fill="#E0E0E0"/>
<path d="M205.325 92.3828H204.749V98.2669H205.325V92.3828Z" fill="#E0E0E0"/>
<path d="M211.438 92.3828H210.861V98.2669H211.438V92.3828Z" fill="#E0E0E0"/>
<path d="M217.55 92.3828H216.973V98.2669H217.55V92.3828Z" fill="#E0E0E0"/>
<path d="M223.663 92.3828H223.087V98.2669H223.663V92.3828Z" fill="#E0E0E0"/>
<path d="M231.448 61.8086H222.331V79.0498H231.448V61.8086Z" fill="#EBEBEB"/>
<path d="M230.56 61.8086H222.331V79.0498H230.56V61.8086Z" fill="white"/>
<path d="M227.256 35.8105H226.529V61.8075H227.256V35.8105Z" fill="#E0E0E0"/>
<path d="M92.4482 71.8926H68.8799L69.3585 73.8352H86.3183L90.7932 91.9829H73.8161L74.2948 93.9255H91.2546L95.7295 112.073H78.7697L79.1734 113.689L68.8799 71.8926H62.2424L91.6525 191.213H98.2899L83.9597 133.098L84.2019 134.101H101.173L105.648 152.248H88.6768L89.1555 154.191H106.115L110.59 172.339H93.6304L94.1091 174.276H111.069L115.25 191.213H121.87L92.4482 71.8926ZM83.7233 132.141L79.2599 114.01H96.2197L100.695 132.158L83.7233 132.141Z" fill="#E0E0E0"/>
<path d="M50.4905 191.213H52.2666L81.6882 71.8926H79.9178L50.4905 191.213Z" fill="#F5F5F5"/>
<path d="M57.1161 191.213H52.2664L81.6879 71.8926H86.5377L57.1161 191.213Z" fill="#E6E6E6"/>
<path d="M26.9104 191.213H28.6865L58.1081 71.8926H56.3319L26.9104 191.213Z" fill="#F5F5F5"/>
<path d="M33.5303 191.213H28.6863L58.1078 71.8926H62.9576L33.5303 191.213Z" fill="#E6E6E6"/>
<path d="M57.6292 73.8352H79.4387L79.9173 71.8926H58.1078L57.6292 73.8352Z" fill="#F5F5F5"/>
<path d="M52.6755 93.925H74.4851L74.9637 91.9824H53.1542L52.6755 93.925Z" fill="#F5F5F5"/>
<path d="M47.7219 114.011H69.5315L70.0101 112.068H48.2006L47.7219 114.011Z" fill="#F5F5F5"/>
<path d="M42.7683 134.101H64.5779L65.0565 132.158H43.2469L42.7683 134.101Z" fill="#F5F5F5"/>
<path d="M37.8147 154.191H59.6242L60.1029 152.248H38.2933L37.8147 154.191Z" fill="#F5F5F5"/>
<path d="M32.8616 174.275H54.6711L55.1498 172.338H33.3402L32.8616 174.275Z" fill="#F5F5F5"/>
<path d="M221.017 156.776V151.793C221.017 151.142 220.752 150.517 220.281 150.057C219.809 149.597 219.17 149.338 218.503 149.338C217.837 149.339 217.199 149.599 216.729 150.059C216.258 150.519 215.994 151.143 215.994 151.793V156.776C215.994 158.738 215.21 160.623 213.809 162.03L207.563 168.291C206.924 168.933 206.455 169.718 206.198 170.578C205.94 171.438 205.902 172.346 206.087 173.223L209.847 191.073H227.147L230.924 173.223C231.109 172.346 231.071 171.438 230.814 170.578C230.556 169.718 230.087 168.933 229.448 168.291L223.203 162.03C221.802 160.623 221.018 158.738 221.017 156.776Z" fill="#EBEBEB"/>
<path d="M218.508 149.338H216.985V151.224H218.508V149.338Z" fill="#EBEBEB"/>
<path d="M219.494 156.776V151.793C219.494 151.143 219.229 150.519 218.759 150.059C218.289 149.599 217.651 149.339 216.985 149.338C216.318 149.338 215.679 149.597 215.207 150.057C214.736 150.517 214.471 151.142 214.471 151.793V156.776C214.47 158.738 213.686 160.623 212.285 162.03L206.046 168.291C205.404 168.932 204.933 169.717 204.675 170.577C204.416 171.437 204.378 172.346 204.564 173.223L208.329 191.073H225.629L229.389 173.223C229.574 172.346 229.536 171.438 229.279 170.578C229.021 169.718 228.552 168.933 227.913 168.291L221.696 162.03C220.288 160.626 219.497 158.741 219.494 156.776Z" fill="#E0E0E0"/>
<path d="M216.985 151.229H182.385V153.25H216.985C217.246 153.231 217.49 153.116 217.669 152.929C217.847 152.741 217.946 152.495 217.946 152.239C217.946 151.983 217.847 151.737 217.669 151.55C217.49 151.362 217.246 151.248 216.985 151.229Z" fill="#EBEBEB"/>
<path d="M186.411 156.776V151.793C186.411 151.143 186.146 150.519 185.676 150.059C185.206 149.599 184.568 149.339 183.902 149.338C183.235 149.338 182.596 149.597 182.124 150.057C181.653 150.517 181.388 151.142 181.388 151.793V156.776C181.387 158.738 180.603 160.623 179.202 162.03L172.957 168.291C172.317 168.933 171.849 169.718 171.591 170.578C171.334 171.438 171.296 172.346 171.481 173.223L175.24 191.073H192.541L196.323 173.223C196.508 172.346 196.47 171.438 196.213 170.578C195.956 169.718 195.487 168.933 194.847 168.291L188.596 162.03C187.195 160.623 186.411 158.738 186.411 156.776Z" fill="#EBEBEB"/>
<path d="M183.902 149.338H182.379V151.224H183.902V149.338Z" fill="#EBEBEB"/>
<path d="M184.888 156.776V151.793C184.888 151.143 184.624 150.519 184.154 150.059C183.684 149.599 183.046 149.339 182.38 149.338C182.05 149.338 181.723 149.401 181.418 149.525C181.114 149.648 180.837 149.829 180.604 150.057C180.371 150.285 180.186 150.556 180.06 150.854C179.935 151.152 179.87 151.471 179.871 151.793V156.776C179.868 158.739 179.082 160.623 177.68 162.03L171.44 168.291C170.8 168.932 170.33 169.717 170.072 170.577C169.815 171.437 169.778 172.346 169.964 173.223L173.724 191.073H191.024L194.784 173.223C194.97 172.346 194.933 171.437 194.675 170.577C194.418 169.717 193.948 168.932 193.308 168.291L187.097 162.03C185.688 160.626 184.896 158.741 184.888 156.776Z" fill="#F5F5F5"/>
<path d="M183.418 152.236C183.419 152.437 183.359 152.634 183.245 152.801C183.132 152.968 182.97 153.099 182.781 153.177C182.591 153.254 182.382 153.275 182.181 153.237C181.979 153.198 181.793 153.102 181.648 152.961C181.502 152.819 181.402 152.639 181.362 152.442C181.321 152.245 181.342 152.041 181.42 151.855C181.498 151.67 181.631 151.511 181.802 151.4C181.973 151.288 182.174 151.229 182.38 151.229C182.653 151.23 182.916 151.336 183.11 151.525C183.304 151.714 183.415 151.969 183.418 152.236Z" fill="#EBEBEB"/>
<path d="M229.736 173.223H196.052L192.223 191.072H225.906L229.736 173.223Z" fill="#EBEBEB"/>
<path d="M56.1928 16.0254H30.0525V21.6617H56.1928V16.0254Z" fill="#FAFAFA"/>
<path d="M68.6493 21.6602H42.509V27.2965H68.6493V21.6602Z" fill="#F5F5F5"/>
<path d="M222.216 19.9102H196.076V25.5465H222.216V19.9102Z" fill="#FAFAFA"/>
<path d="M234.677 14.2734H208.537V19.9098H234.677V14.2734Z" fill="#F5F5F5"/>
<path d="M55.5761 53.7227H29.4358V59.359H55.5761V53.7227Z" fill="#F5F5F5"/>
<path d="M256.072 139.742H229.932V145.379H256.072V139.742Z" fill="#F5F5F5"/>
<path d="M145 216.5C206.751 216.5 256.81 213.646 256.81 210.126C256.81 206.606 206.751 203.752 145 203.752C83.2487 203.752 33.1897 206.606 33.1897 210.126C33.1897 213.646 83.2487 216.5 145 216.5Z" fill="#F5F5F5"/>
<path d="M142.238 67.1284C141.506 67.821 140.848 68.4066 140.139 69.0147C139.43 69.6228 138.72 70.2028 137.999 70.7828C136.546 71.9089 135.064 73.0351 133.484 74.1049C131.877 75.208 130.202 76.2122 128.467 77.1117C127.533 77.6044 126.57 78.0444 125.584 78.4293C124.4 78.8928 123.165 79.2234 121.905 79.4146L121.611 79.4597C121.409 79.4793 121.206 79.4793 121.005 79.4597C119.719 79.3735 118.46 79.0566 117.291 78.525C116.41 78.1323 115.562 77.673 114.754 77.1511C113.339 76.2312 112.001 75.2032 110.752 74.0767C109.552 72.9956 108.445 71.8808 107.378 70.6983C106.311 69.5367 105.31 68.3186 104.38 67.0496C104.036 66.5668 103.873 65.9831 103.919 65.3968C103.965 64.8105 104.216 64.2575 104.63 63.8309C105.045 63.4044 105.597 63.1304 106.194 63.0552C106.792 62.9799 107.397 63.108 107.909 63.4178L107.978 63.4628L111.703 65.7545C112.943 66.5091 114.177 67.2523 115.406 67.928C116.56 68.5874 117.751 69.1814 118.975 69.7073C119.474 69.9314 119.993 70.1086 120.526 70.2366C120.959 70.3379 121.328 70.3492 121.207 70.2873L120.313 70.3548C120.791 70.1827 121.255 69.9776 121.703 69.7411C122.28 69.437 122.92 69.0823 123.554 68.6825C124.188 68.2827 124.84 67.8435 125.486 67.3762C126.132 66.9088 126.795 66.4471 127.446 65.9516C128.75 64.955 130.065 63.9246 131.356 62.8604L133.294 61.2556L135.18 59.6677L135.272 59.5945C136.295 58.73 137.624 58.29 138.975 58.3683C140.326 58.4466 141.592 59.037 142.504 60.0137C143.415 60.9904 143.9 62.276 143.855 63.5967C143.809 64.9173 143.237 66.1685 142.261 67.0834L142.238 67.1284Z" fill="#CF7A64"/>
<path d="M106.941 67.3584L101.174 67.9215L102.437 61.2266C102.437 61.2266 107.737 61.3223 108.14 64.0813L106.941 67.3584Z" fill="#263238"/>
<path d="M96.4559 64.2568L97.3036 62.0045C97.4665 61.5658 97.7839 61.1979 98.1992 60.9668C98.6144 60.7357 99.1003 60.6565 99.5699 60.7432L102.453 61.2669L101.173 67.9393L97.7131 66.8132C97.4558 66.7299 97.2183 66.5969 97.0149 66.422C96.8114 66.2472 96.646 66.0341 96.5287 65.7956C96.4114 65.557 96.3445 65.2978 96.332 65.0334C96.3195 64.769 96.3616 64.5049 96.4559 64.2568Z" fill="#263238"/>
<path d="M102.955 66.5086C104.472 67.6685 106.992 71.199 107.505 72.2519C111.329 70.8893 113.237 67.3645 112.724 66.0863C110.112 64.1212 107.863 62.8036 106.208 62.4883C103.509 63.0288 102.955 66.5086 102.955 66.5086Z" fill="#263238"/>
<path d="M146.349 61.4966C145.501 64.2669 143.645 68.1464 140.813 69.7455C137.982 71.3447 133.086 77.3526 129.337 78.9405C123.346 75.945 123.029 70.6408 123.738 67.9043C127.365 63.2083 133.991 56.3276 137.44 55.4154C140.438 54.6215 143.028 59.2105 146.349 61.4966Z" fill="#263238"/>
<path d="M145.681 39.5983C147.647 40.3922 148.818 40.0882 148.818 40.0882C148.818 40.0882 147.665 38.6411 147.665 37.9203C147.826 38.1577 148.039 38.3575 148.288 38.5054C148.537 38.6533 148.816 38.7458 149.106 38.7762C148.207 35.6849 150.167 34.4574 149.527 33.2525C148.316 30.9664 143.859 30.9439 144.257 33.4101C142.411 34.3617 142.071 36.6365 142.071 36.6365C142.379 36.1681 142.801 35.7812 143.299 35.5104C142.532 37.2784 142.913 39.7841 144.239 41.6648C144.492 41.6656 144.741 41.606 144.965 41.491C145.188 41.376 145.38 41.2093 145.522 41.0053C145.664 40.8013 145.753 40.5664 145.781 40.3211C145.809 40.0758 145.774 39.8276 145.681 39.5983Z" fill="#263238"/>
<path d="M168.792 116.396L170.529 115.96C171.762 115.65 172.505 114.422 172.188 113.217L169.457 102.856C169.14 101.652 167.882 100.926 166.649 101.236L164.912 101.673C163.678 101.983 162.935 103.211 163.253 104.415L165.983 114.776C166.3 115.981 167.558 116.706 168.792 116.396Z" fill="#263238"/>
<path d="M164.573 100.979C166.989 99.3344 168.396 99.357 169.33 100.021C170.264 100.686 170.483 104.701 171.804 106.829C170.016 107.64 164.573 100.979 164.573 100.979Z" fill="#263238"/>
<path d="M161.498 54.3798C154.782 53.6538 148.006 53.6104 141.28 54.2503C138.514 54.5385 135.955 55.8174 134.098 57.84C132.24 59.8626 131.216 62.4854 131.223 65.202C131.223 75.3035 133.963 90.0335 135.687 105.54C151.441 110.704 164.728 105.281 164.728 105.281C165.08 101.74 164.883 91.2046 163.667 85.0109C164.561 78.6144 166.827 71.2945 168.113 62.8034C168.256 61.8247 168.198 60.8279 167.941 59.8715C167.685 58.9151 167.235 58.0184 166.619 57.2338C166.003 56.4492 165.233 55.7927 164.354 55.3026C163.474 54.8125 162.504 54.4988 161.498 54.3798Z" fill="#263238"/>
<path d="M155.408 42.1504C155.189 46.1854 155.909 50.2164 157.513 53.9411C155.391 55.8668 151.948 58.2599 147.358 58.1923C142.768 58.1247 143.529 55.8386 144.757 54.2789C148.044 52.6573 148.258 50.2811 147.45 48.8453L155.408 42.1504Z" fill="#CE7A63"/>
<path opacity="0.2" d="M155.409 42.1504L147.451 48.8453C147.697 49.2885 147.832 49.782 147.846 50.2858C147.86 50.7896 147.752 51.2895 147.532 51.7451C149.167 51.8373 150.778 51.3224 152.041 50.3037C154.088 48.6989 154.827 46.7563 155.403 44.0029C155.38 43.4173 155.38 42.8036 155.409 42.1504Z" fill="black"/>
<path d="M157.987 38.816C157.087 43.8386 156.834 46.8285 153.898 49.1145C149.51 52.5493 143.374 49.4749 142.723 44.2721C142.146 39.593 143.709 32.1605 149.02 30.7584C150.195 30.4462 151.431 30.4301 152.614 30.7116C153.797 30.9931 154.887 31.563 155.783 32.368C156.679 33.173 157.351 34.1868 157.737 35.3145C158.122 36.4422 158.208 37.647 157.987 38.816Z" fill="#CE7A63"/>
<path d="M157.837 40.5341C155.796 41.0972 154.666 40.6918 154.666 40.6918C154.666 40.6918 155.963 39.3742 156.073 38.6591C155.886 38.8774 155.652 39.053 155.388 39.1737C155.124 39.2943 154.836 39.357 154.544 39.3573C155.779 36.3787 153.968 34.9485 154.741 33.8223C156.194 31.677 161.291 32.4991 160.617 34.909C161.107 35.2433 161.48 35.7161 161.686 36.2638C161.892 36.8115 161.922 37.4077 161.77 37.9721C161.531 37.5523 161.178 37.2053 160.749 36.9699C161.326 38.8111 161.816 40.3483 159.054 42.7245C158.804 42.6993 158.564 42.615 158.355 42.4788C158.145 42.3426 157.973 42.1586 157.854 41.9428C157.734 41.727 157.67 41.4859 157.667 41.2405C157.664 40.995 157.722 40.7525 157.837 40.5341Z" fill="#263238"/>
<path d="M144.072 43.9736C146.104 43.7676 148.15 43.7205 150.19 43.8329C149.613 44.959 148.57 45.8205 146.263 45.7417C143.956 45.6628 144.072 43.9736 144.072 43.9736Z" fill="white"/>
<path d="M145.848 42.7135C145.813 44.4027 145.779 44.8813 148.443 44.9657C150.317 45.0389 152.185 46.2439 151.903 47.325C152.722 46.5086 153.356 44.7124 151.834 43.5186C150.156 42.2236 148.253 42.0828 145.848 42.7135Z" fill="#263238"/>
<path d="M146.39 42.7181C146.326 44.3792 145.576 44.5706 144.469 44.7902C143.362 45.0098 143.16 45.5504 143.27 46.3387C142.295 45.7756 141.678 44.1821 142.301 43.4332C142.779 42.8518 143.456 42.4591 144.208 42.3276C144.96 42.1962 145.735 42.3349 146.39 42.7181Z" fill="#263238"/>
<path d="M159.543 42.6952C159.024 43.7603 158.109 44.592 156.983 45.0207C155.553 45.5219 154.872 44.148 155.293 42.6446C155.68 41.2876 156.879 39.3957 158.304 39.5477C159.728 39.6997 160.218 41.3382 159.543 42.6952Z" fill="#CE7A63"/>
<path d="M150.888 38.624C150.824 39.0575 150.536 39.3672 150.248 39.3222C149.959 39.2771 149.78 38.8942 149.85 38.4607C149.919 38.0271 150.201 37.723 150.49 37.7681C150.778 37.8131 150.957 38.196 150.888 38.624Z" fill="#263238"/>
<path d="M145.525 37.8697C145.456 38.2976 145.167 38.6073 144.879 38.5623C144.591 38.5172 144.412 38.1343 144.481 37.7064C144.55 37.2785 144.833 36.9631 145.121 37.0082C145.409 37.0532 145.577 37.4361 145.525 37.8697Z" fill="#263238"/>
<path d="M147.025 38.6582C147.025 38.6582 145.635 40.9781 144.349 42.0028C145.018 42.8306 146.39 42.7179 146.39 42.7179L147.025 38.6582Z" fill="#BA4D3C"/>
<path d="M152.63 36.8167C152.673 36.8305 152.719 36.8305 152.763 36.8167C152.826 36.7938 152.878 36.7473 152.908 36.6873C152.937 36.6273 152.941 36.5585 152.918 36.4957C152.787 36.1054 152.561 35.7518 152.259 35.4646C151.958 35.1775 151.591 34.9653 151.188 34.8459C151.155 34.8375 151.12 34.8357 151.086 34.8405C151.052 34.8453 151.019 34.8567 150.99 34.874C150.96 34.8913 150.935 34.9141 150.914 34.9412C150.894 34.9683 150.879 34.9991 150.871 35.0318C150.855 35.0974 150.866 35.1665 150.902 35.2243C150.937 35.2822 150.995 35.3242 151.061 35.3415C151.375 35.4433 151.659 35.6156 151.891 35.8444C152.124 36.0733 152.298 36.3524 152.399 36.659C152.418 36.7042 152.45 36.7431 152.491 36.7711C152.532 36.799 152.58 36.8149 152.63 36.8167Z" fill="#263238"/>
<path d="M143.524 35.5663C143.566 35.5744 143.61 35.5719 143.652 35.5591C143.693 35.5463 143.73 35.5236 143.76 35.4931C143.982 35.2575 144.257 35.0765 144.564 34.9649C144.87 34.8534 145.2 34.8144 145.525 34.8512C145.558 34.8586 145.593 34.8593 145.627 34.8533C145.66 34.8473 145.692 34.8348 145.721 34.8163C145.749 34.7979 145.774 34.7741 145.793 34.7462C145.812 34.7183 145.824 34.687 145.831 34.6542C145.844 34.587 145.83 34.5173 145.791 34.4603C145.752 34.4033 145.692 34.3637 145.623 34.3501C145.213 34.2969 144.795 34.3407 144.406 34.4779C144.016 34.6151 143.666 34.8416 143.385 35.1384C143.338 35.1867 143.311 35.2513 143.311 35.3186C143.311 35.3858 143.338 35.4505 143.385 35.4988C143.425 35.5317 143.473 35.5549 143.524 35.5663Z" fill="#263238"/>
<path d="M151.551 151.149C155.772 128.153 157.531 100.422 157.531 100.422L134.291 100.078C134.291 100.078 136.967 137.449 137.895 153.103C138.858 169.381 139.533 200.699 139.533 200.699H147.307C147.307 200.699 153.892 171.273 151.551 151.149Z" fill="#407BFF"/>
<path opacity="0.2" d="M146.99 106.689C146.99 106.689 150.046 129.01 152.549 145.378C154.775 131.622 156.188 117.168 156.92 108.474L146.99 106.689Z" fill="black"/>
<path d="M129.113 208.385C129.113 208.385 139.533 206.003 139.989 202.529L146.632 203.374L147.358 210.131H144.614L144.181 209.292L143.258 210.131C133.939 210.131 130.485 210.035 128.761 209.472C128.709 209.277 128.714 209.071 128.776 208.879C128.839 208.687 128.955 208.516 129.113 208.385Z" fill="#263238"/>
<path d="M147.572 204.595C145.081 204.736 140.075 204.381 139.13 203.914C138.184 203.447 138.732 199.669 138.732 199.669C138.732 199.669 147.445 198.824 148.212 199.291C148.979 199.759 147.572 204.595 147.572 204.595Z" fill="#407BFF"/>
<path opacity="0.3" d="M147.572 204.595C145.081 204.736 140.075 204.381 139.13 203.914C138.184 203.447 138.732 199.669 138.732 199.669C138.732 199.669 147.445 198.824 148.212 199.291C148.979 199.759 147.572 204.595 147.572 204.595Z" fill="white"/>
<path d="M172.432 150.501C168.597 127.376 169.018 111.92 165.184 100.523L142.93 100.225C142.93 100.225 153.546 136.92 158.39 152.196C163.234 167.472 172.029 200.699 172.029 200.699H179.145C179.145 200.699 178.856 168.39 172.432 150.501Z" fill="#407BFF"/>
<path d="M164.544 208.385C164.544 208.385 172.404 206.003 172.859 202.529L179.502 203.374L180.229 210.131H178.499L178.066 209.292L177.144 210.131C167.825 210.131 165.905 210.035 164.18 209.472C164.129 209.276 164.137 209.07 164.201 208.877C164.265 208.685 164.384 208.514 164.544 208.385Z" fill="#263238"/>
<path d="M180.229 204.432C178.695 204.736 172.905 204.381 171.862 203.913C170.818 203.446 171.152 199.476 171.152 199.476C171.152 199.476 179.03 198.564 179.872 199.032C180.713 199.499 180.229 204.432 180.229 204.432Z" fill="#407BFF"/>
<path opacity="0.3" d="M180.229 204.432C178.695 204.736 172.905 204.381 171.862 203.913C170.818 203.446 171.152 199.476 171.152 199.476C171.152 199.476 179.03 198.564 179.872 199.032C180.713 199.499 180.229 204.432 180.229 204.432Z" fill="white"/>
<path d="M134.292 100.078C134.067 97.5328 131.852 79.4752 131.766 77.8197C131.875 68.8106 136.512 57.3634 139.551 54.0807C140.25 53.783 141.036 53.739 141.765 53.9568C141.765 53.9568 137.567 59.1821 136.414 67.8759C144.135 69.689 152.468 68.7824 154.648 68.3432C155.409 62.279 159.261 54.9591 160.103 53.9174C160.806 53.8794 161.509 53.977 162.174 54.2045C162.174 54.2045 157.987 62.3803 157.56 68.6586C157.133 74.9368 165.466 77.983 165.466 77.983C165.466 77.983 164.572 83.4223 164.763 85.866C164.953 88.3097 165.213 100.506 165.213 100.506C165.213 100.506 145.116 103.715 134.292 100.078Z" fill="#407BFF"/>
<path d="M139.85 109.594L135.946 100.027L135.566 100.174L135.179 100.326L139.089 109.892L138.985 110.737L140.15 112.511L140.537 112.359L140.929 112.207L140.519 110.14L139.85 109.594Z" fill="white"/>
<path d="M135.86 100.906C135.52 101.036 135.142 101.029 134.807 100.888C134.473 100.747 134.209 100.482 134.072 100.152L130.474 91.3399C130.34 91.0075 130.345 90.6367 130.49 90.3085C130.635 89.9804 130.907 89.7216 131.247 89.5887C131.586 89.4592 131.965 89.4657 132.3 89.607C132.634 89.7483 132.898 90.0129 133.034 90.3432L136.633 99.1553C136.767 99.4877 136.762 99.8585 136.617 100.187C136.472 100.515 136.2 100.774 135.86 100.906Z" fill="#263238"/>
<path d="M134.164 98.8445C133.784 99.2217 133.72 101.66 134.487 102.786C139.625 105.37 153.171 105.748 165.806 102.555C166.112 101.108 165.991 99.1767 165.137 98.5742C163.407 100.016 150.023 102.082 140.865 100.922C138.513 100.666 136.236 99.9603 134.164 98.8445Z" fill="#263238"/>
<path opacity="0.2" d="M136.091 71.1934C136.091 71.1934 140.9 73.1191 154.308 72.1787C154.474 76.219 154.33 80.2657 153.875 84.2848C153.489 86.6778 142.918 88.9751 142.918 88.9751C142.918 88.9751 136.177 86.4413 135.647 83.4852C135.116 80.5291 136.091 71.1934 136.091 71.1934Z" fill="white"/>
<path d="M161.752 36.2316C156.931 34.4016 150.576 32.4196 144.919 32.5378C145.069 30.9963 145.769 29.5552 146.897 28.4668C148.05 27.5547 151.891 26.7776 154.884 27.4139C157.254 27.9319 160.149 29.6662 161.441 31.879C162 32.8363 161.752 36.2316 161.752 36.2316Z" fill="#407BFF"/>
<path opacity="0.3" d="M155.247 29.148C152.987 27.1209 148.033 27.5545 146.897 28.4667C145.769 29.555 145.069 30.9961 144.919 32.5377C148.512 32.4645 152.381 33.2359 155.962 34.2775C156.02 32.4082 156.124 31.0174 155.247 29.148Z" fill="white"/>
<path d="M156.92 34.56C153.512 34.2672 149.815 34.1039 148.201 33.4338C146.586 32.7638 142.63 32.4935 141.857 33.3156C141.5 32.6793 143.316 31.525 147.047 31.7165C150.779 31.9079 156.92 34.56 156.92 34.56Z" fill="#407BFF"/>
<path d="M151.355 28.659L149.821 28.5352L149.187 29.7683L148.743 29.7289L148.149 31.3055L149.85 29.8302L150.161 29.8527L151.355 28.659Z" fill="white"/>
<path d="M155.38 27.4817C155.322 27.7632 154.93 27.9209 154.515 27.8364C154.1 27.7519 153.817 27.4422 153.88 27.1607C153.944 26.8792 154.33 26.7215 154.745 26.806C155.161 26.8904 155.461 27.1945 155.38 27.4817Z" fill="#407BFF"/>
<path d="M168.643 58.3105C169.393 58.9918 170.033 59.5943 170.69 60.2587C171.348 60.9231 171.982 61.5763 172.616 62.2464C173.868 63.6034 175.096 64.9885 176.255 66.4694C177.472 67.9763 178.591 69.5559 179.606 71.1992C180.161 72.0902 180.663 73.0114 181.111 73.9582C181.651 75.0875 182.055 76.2741 182.316 77.4943L182.379 77.7758C182.417 77.9612 182.435 78.15 182.431 78.3389C182.417 79.5993 182.163 80.8461 181.682 82.0158C181.325 82.894 180.901 83.7448 180.413 84.5609C179.55 85.9927 178.571 87.3541 177.484 88.6319C176.462 89.8423 175.378 91.0018 174.237 92.106C173.104 93.2065 171.913 94.2477 170.667 95.2254C170.193 95.5928 169.604 95.7882 168.999 95.7782C168.394 95.7682 167.811 95.5534 167.35 95.1706C166.889 94.7877 166.579 94.2605 166.472 93.679C166.365 93.0975 166.468 92.4977 166.763 91.9821L166.804 91.9146L168.949 88.1532C169.652 86.9032 170.344 85.6645 170.967 84.4313C171.58 83.2694 172.123 82.0737 172.593 80.8502C172.795 80.3506 172.949 79.8342 173.055 79.3074C173.135 78.8795 173.124 78.5247 173.055 78.643L173.17 79.5101C172.971 79.0528 172.738 78.6105 172.472 78.1869C172.126 77.6238 171.728 77.0607 171.284 76.4414C170.84 75.822 170.356 75.2364 169.848 74.6283C169.341 74.0202 168.822 73.4008 168.28 72.7927C167.19 71.5764 166.066 70.3546 164.906 69.1496L163.176 67.3478L161.446 65.5966L161.36 65.5122C160.465 64.5529 159.98 63.2948 160.007 61.9973C160.034 60.6997 160.569 59.4616 161.503 58.5381C162.437 57.6147 163.698 57.0763 165.027 57.034C166.355 56.9916 167.65 57.4485 168.643 58.3105Z" fill="#CF7A64"/>
<path d="M170.183 90.4551L164.37 90.5339L166.418 97.043C166.418 97.043 171.677 96.3504 171.746 93.5632L170.183 90.4551Z" fill="#263238"/>
<path d="M160.126 94.7357L161.239 96.8978C161.453 97.3149 161.812 97.6441 162.251 97.8267C162.691 98.0093 163.182 98.0333 163.638 97.8945L166.418 97.0443L164.37 90.5352L161.06 92.0723C160.818 92.1853 160.601 92.3443 160.423 92.54C160.244 92.7358 160.107 92.9643 160.02 93.2124C159.933 93.4604 159.898 93.7229 159.916 93.9844C159.934 94.246 160.006 94.5014 160.126 94.7357Z" fill="#263238"/>
<path d="M166.545 91.3391C167.854 89.8449 168.869 88.1267 169.538 86.2715C173.511 87.1274 175.881 90.3706 175.546 91.7051C173.24 93.9912 171.175 95.5903 169.584 96.114C167.323 94.9653 166.545 91.3391 166.545 91.3391Z" fill="#263238"/>
<path d="M162.675 54.6113C165.558 55.287 169.623 56.8636 171.405 59.5551C173.187 62.2466 177.997 67.348 179.825 70.9122C177.086 76.9146 173.285 76.847 170.454 76.3064C165.454 73.0237 159.013 68.9471 158.921 65.4673C158.84 62.4324 160.518 57.9616 162.675 54.6113Z" fill="#263238"/>
<path d="M166.966 84.1724C166.696 84.1606 166.433 84.0853 166.199 83.9528L165.876 83.767C165.38 83.7009 164.905 83.5315 164.482 83.2701C164.059 83.0088 163.699 82.6617 163.425 82.2523C163.113 81.7263 162.886 81.1566 162.75 80.5631C161.349 75.4054 160.796 71.1542 161.02 67.1902C161.076 66.0668 161.203 64.9479 161.401 63.8399C161.735 61.8908 162.316 59.9899 163.131 58.1811C163.538 57.2793 164.017 56.4096 164.561 55.5797L164.671 55.3826C164.953 54.8815 165.247 54.4648 165.588 54.4029C165.711 54.3812 165.838 54.3909 165.957 54.431C166.095 54.2988 166.269 54.2088 166.458 54.172C166.546 54.1595 166.635 54.1667 166.719 54.193C166.803 54.2194 166.879 54.2642 166.943 54.324C167.065 54.4373 167.142 54.5887 167.162 54.752C167.37 55.7261 166.931 56.6214 166.51 57.4941C166.43 57.663 166.343 57.832 166.268 58.0009C165.155 60.4502 165.242 63.26 165.328 65.9796C165.328 66.6328 165.374 67.2859 165.38 67.9335C165.38 68.4965 165.38 69.0258 165.38 69.572C165.38 70.563 165.351 71.5934 165.415 72.5957C165.49 73.7218 165.663 74.8986 165.836 76.0191C165.98 77.1758 166.229 78.3177 166.58 79.4314C166.712 79.8142 166.874 80.1971 167.029 80.5575C167.39 81.3188 167.654 82.1206 167.814 82.9449C167.857 83.127 167.856 83.3168 167.808 83.4981C167.761 83.6794 167.67 83.8469 167.543 83.9866C167.381 84.1174 167.175 84.1838 166.966 84.1724ZM166.084 83.2264C166.262 83.2433 166.442 83.2433 166.62 83.2264C165.792 82.3027 165.06 81.3012 164.434 80.2365C162.889 77.4719 162.641 74.2117 162.526 71.3738C162.422 72.844 162.433 74.3198 162.56 75.7883C162.642 77.2996 162.98 78.7873 163.558 80.1915C164.084 81.4186 164.961 82.472 166.084 83.2264ZM163.039 67.59C163.039 68.9132 163.039 70.1857 163.102 71.3513C163.212 74.1272 163.46 77.3086 164.942 79.9663C165.599 81.0719 166.372 82.1079 167.248 83.0575C167.246 83.0445 167.246 83.0312 167.248 83.0181C167.098 82.24 166.848 81.4834 166.505 80.7658C166.343 80.3886 166.176 79.9944 166.037 79.5946C165.677 78.4499 165.422 77.2759 165.276 76.0867C165.097 74.9606 164.919 73.7838 164.844 72.6126C164.78 71.5878 164.792 70.5517 164.809 69.5438C164.809 68.9808 164.809 68.4627 164.809 67.9222C164.809 67.2803 164.78 66.6271 164.763 65.9796C164.63 64.0515 164.705 62.1151 164.988 60.2025L164.55 61.7509C163.996 63.6541 163.454 65.608 163.039 67.59ZM163.806 81.7794L163.91 81.9539C164.031 82.1431 164.179 82.3155 164.348 82.4663C164.155 82.2468 163.974 82.0175 163.806 81.7794ZM165.017 55.8781C164.501 56.6787 164.044 57.5142 163.65 58.3781C162.85 60.1433 162.279 61.9988 161.949 63.9019C161.755 64.9874 161.632 66.0838 161.58 67.1846C161.476 69.3042 161.574 71.4286 161.874 73.5304C161.866 72.1483 161.957 70.7673 162.145 69.3974C162.231 68.7668 162.341 68.1418 162.462 67.5224C162.484 65.949 162.609 64.3786 162.837 62.8208C163.174 60.4102 163.91 58.0692 165.017 55.8894V55.8781ZM165.536 56.1259C164.456 58.2507 163.738 60.5328 163.408 62.8827C163.339 63.3388 163.281 63.7949 163.235 64.2453C163.477 63.3388 163.731 62.4491 163.979 61.5595L165.536 56.1259ZM166.32 54.8364C166.37 55.0949 166.356 55.3613 166.28 55.6135L165.553 58.1698C165.611 58.0234 165.668 57.8826 165.738 57.7362C165.807 57.5898 165.899 57.3928 165.986 57.2182C166.366 56.4299 166.758 55.6191 166.597 54.8308C166.597 54.7351 166.556 54.7069 166.545 54.7013C166.533 54.6957 166.412 54.752 166.337 54.8477L166.32 54.8364Z" fill="#407BFF"/>
<path opacity="0.4" d="M166.966 84.1724C166.696 84.1606 166.433 84.0853 166.199 83.9528L165.876 83.767C165.38 83.7009 164.905 83.5315 164.482 83.2701C164.059 83.0088 163.699 82.6617 163.425 82.2523C163.113 81.7263 162.886 81.1566 162.75 80.5631C161.349 75.4054 160.796 71.1542 161.02 67.1902C161.076 66.0668 161.203 64.9479 161.401 63.8399C161.735 61.8908 162.316 59.9899 163.131 58.1811C163.538 57.2793 164.017 56.4096 164.561 55.5797L164.671 55.3826C164.953 54.8815 165.247 54.4648 165.588 54.4029C165.711 54.3812 165.838 54.3909 165.957 54.431C166.095 54.2988 166.269 54.2088 166.458 54.172C166.546 54.1595 166.635 54.1667 166.719 54.193C166.803 54.2194 166.879 54.2642 166.943 54.324C167.065 54.4373 167.142 54.5887 167.162 54.752C167.37 55.7261 166.931 56.6214 166.51 57.4941C166.43 57.663 166.343 57.832 166.268 58.0009C165.155 60.4502 165.242 63.26 165.328 65.9796C165.328 66.6328 165.374 67.2859 165.38 67.9335C165.38 68.4965 165.38 69.0258 165.38 69.572C165.38 70.563 165.351 71.5934 165.415 72.5957C165.49 73.7218 165.663 74.8986 165.836 76.0191C165.98 77.1758 166.229 78.3177 166.58 79.4314C166.712 79.8142 166.874 80.1971 167.029 80.5575C167.39 81.3188 167.654 82.1206 167.814 82.9449C167.857 83.127 167.856 83.3168 167.808 83.4981C167.761 83.6794 167.67 83.8469 167.543 83.9866C167.381 84.1174 167.175 84.1838 166.966 84.1724ZM166.084 83.2264C166.262 83.2433 166.442 83.2433 166.62 83.2264C165.792 82.3027 165.06 81.3012 164.434 80.2365C162.889 77.4719 162.641 74.2117 162.526 71.3738C162.422 72.844 162.433 74.3198 162.56 75.7883C162.642 77.2996 162.98 78.7873 163.558 80.1915C164.084 81.4186 164.961 82.472 166.084 83.2264ZM163.039 67.59C163.039 68.9132 163.039 70.1857 163.102 71.3513C163.212 74.1272 163.46 77.3086 164.942 79.9663C165.599 81.0719 166.372 82.1079 167.248 83.0575C167.246 83.0445 167.246 83.0312 167.248 83.0181C167.098 82.24 166.848 81.4834 166.505 80.7658C166.343 80.3886 166.176 79.9944 166.037 79.5946C165.677 78.4499 165.422 77.2759 165.276 76.0867C165.097 74.9606 164.919 73.7838 164.844 72.6126C164.78 71.5878 164.792 70.5517 164.809 69.5438C164.809 68.9808 164.809 68.4627 164.809 67.9222C164.809 67.2803 164.78 66.6271 164.763 65.9796C164.63 64.0515 164.705 62.1151 164.988 60.2025L164.55 61.7509C163.996 63.6541 163.454 65.608 163.039 67.59ZM163.806 81.7794L163.91 81.9539C164.031 82.1431 164.179 82.3155 164.348 82.4663C164.155 82.2468 163.974 82.0175 163.806 81.7794ZM165.017 55.8781C164.501 56.6787 164.044 57.5142 163.65 58.3781C162.85 60.1433 162.279 61.9988 161.949 63.9019C161.755 64.9874 161.632 66.0838 161.58 67.1846C161.476 69.3042 161.574 71.4286 161.874 73.5304C161.866 72.1483 161.957 70.7673 162.145 69.3974C162.231 68.7668 162.341 68.1418 162.462 67.5224C162.484 65.949 162.609 64.3786 162.837 62.8208C163.174 60.4102 163.91 58.0692 165.017 55.8894V55.8781ZM165.536 56.1259C164.456 58.2507 163.738 60.5328 163.408 62.8827C163.339 63.3388 163.281 63.7949 163.235 64.2453C163.477 63.3388 163.731 62.4491 163.979 61.5595L165.536 56.1259ZM166.32 54.8364C166.37 55.0949 166.356 55.3613 166.28 55.6135L165.553 58.1698C165.611 58.0234 165.668 57.8826 165.738 57.7362C165.807 57.5898 165.899 57.3928 165.986 57.2182C166.366 56.4299 166.758 55.6191 166.597 54.8308C166.597 54.7351 166.556 54.7069 166.545 54.7013C166.533 54.6957 166.412 54.752 166.337 54.8477L166.32 54.8364Z" fill="white"/>
<path opacity="0.4" d="M112.673 29.7296C112.199 27.4791 111.147 25.3829 109.617 23.6373C108.087 21.8917 106.129 20.5538 103.925 19.7489C101.721 18.944 99.3435 18.6985 97.0159 19.0353C94.6882 19.3722 92.4862 20.2803 90.616 21.6747C88.7459 23.0691 87.2688 24.9042 86.323 27.0081C85.3773 29.1119 84.9939 31.4157 85.2087 33.7037C85.4235 35.9917 86.2296 38.1891 87.5513 40.0899C88.8731 41.9908 90.6673 43.533 92.766 44.5722C93.5062 44.9325 94.1559 45.4478 94.669 46.0812C95.281 46.8568 96.1042 47.4487 97.0443 47.7892C97.9845 48.1297 99.0038 48.2052 99.9858 48.0069L104.49 47.1004C105.472 46.9035 106.379 46.4406 107.105 45.7645C107.831 45.0884 108.348 44.2264 108.595 43.2771C108.807 42.5045 109.191 41.7872 109.72 41.1768C111.064 39.6097 112.028 37.766 112.54 35.7836C113.051 33.8012 113.096 31.7316 112.673 29.7296Z" fill="#407BFF"/>
<path d="M106.57 49.8323L99.1775 51.3188C98.9092 51.3722 98.6302 51.3199 98.4012 51.1733C98.1722 51.0267 98.0118 50.7977 97.9549 50.5361C97.902 50.2735 97.957 50.0011 98.1081 49.7777C98.2591 49.5544 98.4941 49.398 98.7623 49.3424L106.155 47.8278C106.424 47.7761 106.703 47.8298 106.932 47.9773C107.161 48.1248 107.321 48.3542 107.378 48.6161C107.407 48.7477 107.41 48.8838 107.385 49.0165C107.36 49.1491 107.309 49.2756 107.234 49.3887C107.159 49.5019 107.062 49.5993 106.948 49.6755C106.834 49.7516 106.706 49.8049 106.57 49.8323Z" fill="#263238"/>
<path d="M106.461 52.8435L100.504 54.0203C100.235 54.0735 99.9554 54.0205 99.7263 53.8727C99.4972 53.725 99.3373 53.4946 99.2818 53.232C99.2272 52.9707 99.281 52.699 99.4312 52.4763C99.5815 52.2536 99.816 52.0982 100.083 52.044L106.04 50.8446C106.309 50.7913 106.588 50.8436 106.817 50.9902C107.046 51.1368 107.206 51.3658 107.263 51.6273C107.293 51.7586 107.297 51.8945 107.273 52.0271C107.249 52.1597 107.198 52.2863 107.123 52.3996C107.049 52.5128 106.952 52.6104 106.838 52.6866C106.724 52.7628 106.596 52.8162 106.461 52.8435Z" fill="#263238"/>
<path d="M104.547 47.3769C104.478 47.39 104.407 47.3785 104.347 47.3443C104.286 47.3101 104.241 47.2557 104.218 47.1911C104.08 46.7913 102.021 40.5637 101.594 35.2427C100.367 35.5955 99.111 35.8478 97.8404 35.9972C99.605 41.0649 100.234 47.5627 100.274 47.985C100.28 48.0588 100.257 48.1322 100.208 48.1891C100.16 48.246 100.09 48.2819 100.014 48.2891C99.9768 48.2929 99.9388 48.2894 99.9026 48.2787C99.8665 48.268 99.8329 48.2503 99.8039 48.2266C99.7748 48.203 99.7509 48.1739 99.7336 48.1411C99.7163 48.1083 99.7059 48.0725 99.703 48.0357C99.703 47.9343 99.0341 41.1268 97.2579 36.0592C92.708 36.4252 91.0991 34.7359 90.5917 33.897C90.2879 33.4344 90.1391 32.8909 90.1659 32.3421C90.1928 31.7932 90.394 31.266 90.7416 30.8339C91.1259 30.4274 91.6344 30.153 92.1914 30.0516C92.7483 29.9501 93.324 30.027 93.8325 30.2708C95.453 30.8733 96.7159 32.9454 97.6443 35.4679C98.2517 35.4041 98.9091 35.3028 99.6165 35.1639C100.332 35.0175 100.977 34.8598 101.554 34.6853C101.398 31.9994 101.704 29.6176 102.95 28.4352C103.321 28.0172 103.821 27.7273 104.375 27.6087C104.928 27.49 105.507 27.5488 106.023 27.7764C106.518 28.0388 106.916 28.4447 107.164 28.9379C107.412 29.4312 107.497 29.9874 107.407 30.5298C107.275 31.4983 106.479 33.6717 102.154 35.085C102.581 40.4286 104.732 46.9095 104.766 47.0334C104.788 47.1044 104.781 47.1809 104.747 47.247C104.713 47.3132 104.653 47.3637 104.582 47.3881L104.547 47.3769ZM104.634 28.1199C104.151 28.2335 103.712 28.4774 103.365 28.8237C102.275 29.8598 101.992 32.0163 102.131 34.4882C106.167 33.1199 106.744 31.1098 106.854 30.4397C106.928 30.0142 106.866 29.5764 106.675 29.1871C106.484 28.7977 106.173 28.4759 105.787 28.2663C105.431 28.089 105.024 28.0372 104.634 28.1199ZM92.2006 30.6255C91.8119 30.6964 91.4598 30.8951 91.2029 31.1886C90.9318 31.5302 90.7761 31.9456 90.7575 32.3774C90.7389 32.8092 90.8583 33.2359 91.0991 33.5985C91.4509 34.1616 92.8291 35.7889 97.0734 35.4961C96.2026 33.1706 95.0724 31.3012 93.648 30.7663C93.184 30.582 92.6752 30.5331 92.1833 30.6255H92.2006Z" fill="white"/>
<path d="M99.9996 11.7727L99.7493 15.8984L100.325 15.9317L100.575 11.806L99.9996 11.7727Z" fill="#407BFF"/>
<path d="M105.45 12.717L104.114 16.6387L104.661 16.8164L105.997 12.8948L105.45 12.717Z" fill="#407BFF"/>
<path d="M110.454 15.0136L108.129 18.4668L108.61 18.7762L110.936 15.323L110.454 15.0136Z" fill="#407BFF"/>
<path d="M89.4915 46.1054L87.1658 49.5586L87.6476 49.868L89.9733 46.4148L89.4915 46.1054Z" fill="#407BFF"/>
<path d="M114.682 18.4774L111.519 21.2246L111.903 21.6453L115.065 18.8981L114.682 18.4774Z" fill="#407BFF"/>
<path d="M86.1845 43.2274L83.0222 45.9746L83.4055 46.3953L86.5678 43.6481L86.1845 43.2274Z" fill="#407BFF"/>
<path d="M117.851 22.908L114.065 24.7676L114.324 25.2706L118.11 23.4111L117.851 22.908Z" fill="#407BFF"/>
<path d="M83.7678 39.5994L79.9812 41.459L80.2403 41.962L84.0269 40.1025L83.7678 39.5994Z" fill="#407BFF"/>
<path d="M119.741 27.9846L115.59 28.8203L115.706 29.3718L119.857 28.5361L119.741 27.9846Z" fill="#407BFF"/>
<path d="M82.3897 35.5041L78.2385 36.3398L78.355 36.8913L82.5062 36.0556L82.3897 35.5041Z" fill="#407BFF"/>
<path d="M115.985 33.1234L115.951 33.6855L120.183 33.9281L120.216 33.366L115.985 33.1234Z" fill="#407BFF"/>
<path d="M77.9183 30.9516L77.8845 31.5137L82.1157 31.7562L82.1495 31.1941L77.9183 30.9516Z" fill="#407BFF"/>
<path d="M115.229 37.3817L115.048 37.916L119.064 39.2192L119.246 38.6849L115.229 37.3817Z" fill="#407BFF"/>
<path d="M79.0336 25.6629L78.8518 26.1973L82.8686 27.5005L83.0504 26.9661L79.0336 25.6629Z" fill="#407BFF"/>
<path d="M113.365 41.3073L113.047 41.7773L116.581 44.0524L116.898 43.5824L113.365 41.3073Z" fill="#407BFF"/>
<path d="M81.5203 20.8405L81.2029 21.3105L84.7366 23.5856L85.054 23.1156L81.5203 20.8405Z" fill="#407BFF"/>
<path d="M85.1858 16.7955L84.7551 17.1699L87.5698 20.2567L88.0005 19.8823L85.1858 16.7955Z" fill="#407BFF"/>
<path d="M89.8002 13.8253L89.2849 14.0781L91.1854 17.771L91.7007 17.5182L89.8002 13.8253Z" fill="#407BFF"/>
<path d="M95.0518 12.1304L94.4871 12.2441L95.343 16.2975L95.9077 16.1838L95.0518 12.1304Z" fill="#407BFF"/>
</svg>
