<svg width="24" height="24" viewBox="0 0 24 24" fill="none" xmlns="http://www.w3.org/2000/svg">
<path fill-rule="evenodd" clip-rule="evenodd" d="M8.37121 4.19922C7.57986 4.19931 6.81488 4.48377 6.21574 5.00075C5.6166 5.51774 5.22318 6.23281 5.10721 7.01562L4.31281 12.3676C4.23755 12.877 4.19984 13.3911 4.20001 13.906V15.8992C4.20001 16.9336 4.6109 17.9255 5.3423 18.6569C6.07369 19.3883 7.06567 19.7992 8.10001 19.7992H15.9C16.9344 19.7992 17.9263 19.3883 18.6577 18.6569C19.3891 17.9255 19.8 16.9336 19.8 15.8992V13.9072C19.8 13.3912 19.7616 12.8776 19.686 12.3676L18.894 7.01562C18.778 6.23281 18.3846 5.51774 17.7855 5.00075C17.1863 4.48377 16.4214 4.19931 15.63 4.19922H8.37121ZM6.88681 7.27962C6.9395 6.92363 7.11841 6.59844 7.39091 6.36339C7.66342 6.12833 8.01134 5.99908 8.37121 5.99922H15.6288C16.3728 5.99922 17.004 6.54402 17.1132 7.27962L17.8128 11.9992H14.832C14.5173 11.9995 14.2107 12.0987 13.9555 12.2828C13.7003 12.4669 13.5095 12.7267 13.41 13.0252L13.2192 13.594C13.1993 13.6537 13.1612 13.7057 13.1101 13.7425C13.0591 13.7793 12.9978 13.7992 12.9348 13.7992H11.0652C11.0024 13.7993 10.9412 13.7796 10.8902 13.743C10.8392 13.7064 10.8009 13.6547 10.7808 13.5952L10.59 13.0252C10.4906 12.7267 10.2997 12.4669 10.0445 12.2828C9.78935 12.0987 9.4827 11.9995 9.16801 11.9992H6.18721L6.88681 7.27962ZM6.00121 13.7992L6.00001 13.9072V15.8992C6.00001 17.0584 6.94081 17.9992 8.10001 17.9992H15.9C16.457 17.9992 16.9911 17.778 17.3849 17.3841C17.7788 16.9903 18 16.4562 18 15.8992V13.7992H15.048L14.928 14.1628C14.7887 14.581 14.5214 14.9448 14.1639 15.2026C13.8064 15.4604 13.3768 15.5991 12.936 15.5992H11.064C10.6232 15.5991 10.1937 15.4604 9.83615 15.2026C9.47863 14.9448 9.2113 14.581 9.07201 14.1628L8.95201 13.7992H6.00121Z" fill="#565656"/>
</svg>
