<svg width="18" height="18" viewBox="0 0 18 18" fill="none" xmlns="http://www.w3.org/2000/svg">
<g clip-path="url(#clip0_1_761)">
<path d="M12.595 10.2C12.7384 9.81622 12.8112 9.40969 12.81 9C12.81 8.09031 12.4486 7.21787 11.8054 6.57462C11.1621 5.93137 10.2897 5.57 9.38001 5.57C8.97536 5.57058 8.57407 5.64339 8.19501 5.785L9.00001 6.615C9.12243 6.59584 9.2461 6.58582 9.37001 6.585C10.0132 6.58366 10.6308 6.83687 11.088 7.28935C11.5452 7.74182 11.8047 8.3568 11.81 9C11.8092 9.12391 11.7992 9.24758 11.78 9.37L12.595 10.2Z" fill="white"/>
<path d="M17.145 8.765C15.46 5.65 12.505 3.765 9.23499 3.765C8.34465 3.76692 7.46028 3.91038 6.61499 4.19L7.41999 5C8.01294 4.84687 8.6226 4.76793 9.23499 4.765C12.05 4.765 14.61 6.335 16.135 8.98C15.5751 9.96095 14.8335 10.8263 13.95 11.53L14.66 12.24C15.6833 11.415 16.533 10.3953 17.16 9.24L17.29 9L17.145 8.765Z" fill="white"/>
<path d="M2.435 2.89L4.665 5.12C3.25517 6.02721 2.10308 7.28262 1.32 8.765L1.19 9L1.32 9.24C3.005 12.355 5.96 14.24 9.23 14.24C10.5064 14.2403 11.7663 13.9514 12.915 13.395L15.415 15.895L16.29 15.145L3.29 2.145L2.435 2.89ZM7.31 7.765L10.635 11.09C10.2594 11.3228 9.82686 11.4474 9.385 11.45C9.06397 11.45 8.7461 11.3865 8.44969 11.2632C8.15328 11.1399 7.88418 10.9592 7.65787 10.7315C7.43156 10.5038 7.25252 10.2336 7.13103 9.93644C7.00955 9.63928 6.94802 9.32103 6.95 9C6.95538 8.56324 7.07986 8.13624 7.31 7.765ZM6.585 7.04C6.11722 7.6997 5.89796 8.50365 5.96606 9.30949C6.03415 10.1153 6.38521 10.8711 6.95706 11.4429C7.52891 12.0148 8.28466 12.3658 9.09051 12.4339C9.89635 12.502 10.7003 12.2828 11.36 11.815L12.16 12.615C11.2339 13.011 10.2372 13.2151 9.23 13.215C6.415 13.215 3.855 11.645 2.33 9C3.06204 7.70425 4.11601 6.61928 5.39 5.85L6.585 7.04Z" fill="white"/>
</g>
<defs>
<clipPath id="clip0_1_761">
<rect width="18" height="18" fill="white"/>
</clipPath>
</defs>
</svg>
