<svg width="17" height="17" viewBox="0 0 17 17" fill="none" xmlns="http://www.w3.org/2000/svg">
<path fill-rule="evenodd" clip-rule="evenodd" d="M4.87115 0.700195C4.0798 0.700285 3.31482 0.984748 2.71568 1.50173C2.11654 2.01871 1.72312 2.73378 1.60715 3.5166L0.812752 8.8686C0.737485 9.37794 0.699783 9.89212 0.699952 10.407V12.4002C0.699952 13.4345 1.11084 14.4265 1.84224 15.1579C2.57363 15.8893 3.56561 16.3002 4.59995 16.3002H12.4C13.4343 16.3002 14.4263 15.8893 15.1577 15.1579C15.8891 14.4265 16.3 13.4345 16.3 12.4002V10.4082C16.3 9.8922 16.2616 9.3786 16.186 8.8686L15.394 3.5166C15.278 2.73378 14.8846 2.01871 14.2854 1.50173C13.6863 0.984748 12.9213 0.700285 12.13 0.700195H4.87115ZM3.38675 3.7806C3.43944 3.4246 3.61835 3.09941 3.89085 2.86436C4.16336 2.62931 4.51128 2.50006 4.87115 2.5002H12.1288C12.8728 2.5002 13.504 3.045 13.6132 3.7806L14.3128 8.5002H11.332C11.0173 8.50043 10.7106 8.59964 10.4554 8.78377C10.2002 8.9679 10.0094 9.22763 9.90995 9.5262L9.71915 10.095C9.69926 10.1547 9.6611 10.2067 9.61006 10.2435C9.55902 10.2803 9.49769 10.3001 9.43475 10.3002H7.56515C7.50236 10.3002 7.44114 10.2806 7.39012 10.244C7.3391 10.2074 7.30085 10.1557 7.28075 10.0962L7.08995 9.5262C6.99051 9.22763 6.79968 8.9679 6.54449 8.78377C6.28929 8.59964 5.98264 8.50043 5.66795 8.5002H2.68715L3.38675 3.7806ZM2.50115 10.3002L2.49995 10.4082V12.4002C2.49995 13.5594 3.44075 14.5002 4.59995 14.5002H12.4C12.9569 14.5002 13.491 14.2789 13.8849 13.8851C14.2787 13.4913 14.5 12.9572 14.5 12.4002V10.3002H11.548L11.428 10.6638C11.2887 11.082 11.0213 11.4457 10.6638 11.7035C10.3063 11.9613 9.87672 12.1001 9.43595 12.1002H7.56395C7.12318 12.1001 6.69361 11.9613 6.33609 11.7035C5.97857 11.4457 5.71124 11.082 5.57195 10.6638L5.45195 10.3002H2.50115Z" fill="white"/>
</svg>
