<svg width="22" height="22" viewBox="0 0 22 22" fill="none" xmlns="http://www.w3.org/2000/svg">
<path d="M3.66669 16.4987C3.66669 15.5262 4.053 14.5936 4.74063 13.906C5.42826 13.2183 6.36089 12.832 7.33335 12.832H14.6667C15.6391 12.832 16.5718 13.2183 17.2594 13.906C17.947 14.5936 18.3334 15.5262 18.3334 16.4987C18.3334 16.9849 18.1402 17.4512 17.7964 17.7951C17.4526 18.1389 16.9863 18.332 16.5 18.332H5.50002C5.01379 18.332 4.54747 18.1389 4.20366 17.7951C3.85984 17.4512 3.66669 16.9849 3.66669 16.4987Z" stroke="black" stroke-width="1.5" stroke-linejoin="round"/>
<path d="M11 9.16602C12.5188 9.16602 13.75 7.9348 13.75 6.41602C13.75 4.89723 12.5188 3.66602 11 3.66602C9.48122 3.66602 8.25 4.89723 8.25 6.41602C8.25 7.9348 9.48122 9.16602 11 9.16602Z" stroke="black" stroke-width="1.5"/>
</svg>
