<svg width="18" height="18" viewBox="0 0 18 18" fill="none" xmlns="http://www.w3.org/2000/svg">
<g clip-path="url(#clip0_874_31125)">
<path d="M9.00041 5.21053V12.7895M12.7899 9H5.21094" stroke="#003347" stroke-linecap="round" stroke-linejoin="round"/>
<path d="M0.660293 4.1289C0.501062 5.31325 0.5 6.86455 0.5 9C0.5 11.1354 0.501062 12.6867 0.660294 13.8711C0.817591 15.0411 1.12095 15.7778 1.67158 16.3285C2.2222 16.8791 2.95894 17.1824 4.1289 17.3397C5.31325 17.4989 6.86455 17.5 9 17.5C11.1354 17.5 12.6867 17.4989 13.8711 17.3397C15.0411 17.1824 15.7778 16.8791 16.3285 16.3285C16.3285 16.3285 16.3285 16.3285 16.3285 16.3285M0.660293 4.1289L16.682 1.31802C18 2.63604 18 4.75736 18 8.99998V9V9.00002C18 13.2426 18 15.364 16.682 16.682L16.3285 16.3285M0.660293 4.1289C0.817591 2.95894 1.12095 2.2222 1.67157 1.67157L1.32218 1.32218L1.67157 1.67157C2.2222 1.12095 2.95894 0.817591 4.1289 0.660293C5.31325 0.501062 6.86455 0.5 9 0.5C11.1354 0.5 12.6867 0.501062 13.8711 0.660294C15.0411 0.817591 15.7778 1.12095 16.3285 1.67158M0.660293 4.1289L16.3285 1.67158M16.3285 16.3285C16.8791 15.7778 17.1824 15.0411 17.3397 13.8711C17.4989 12.6867 17.5 11.1354 17.5 9C17.5 6.86455 17.4989 5.31325 17.3397 4.1289C17.1824 2.95894 16.8791 2.2222 16.3285 1.67158M16.3285 16.3285L16.3285 1.67158" stroke="#003347"/>
</g>
<defs>
<clipPath id="clip0_874_31125">
<rect width="18" height="18" fill="white"/>
</clipPath>
</defs>
</svg>
