<svg width="52" height="52" viewBox="0 0 52 52" fill="none" xmlns="http://www.w3.org/2000/svg">
<path d="M47.6859 29.6076H29.6145V47.6791C29.6145 48.6376 29.2337 49.5569 28.5559 50.2348C27.8781 50.9126 26.9588 51.2934 26.0002 51.2934C25.0416 51.2934 24.1223 50.9126 23.4445 50.2348C22.7667 49.5569 22.3859 48.6376 22.3859 47.6791V29.6076H4.31448C3.35591 29.6076 2.43661 29.2269 1.7588 28.549C1.08099 27.8712 0.700195 26.9519 0.700195 25.9934C0.700195 25.0348 1.08099 24.1155 1.7588 23.4377C2.43661 22.7599 3.35591 22.3791 4.31448 22.3791H22.3859V4.30764C22.3859 3.34908 22.7667 2.42977 23.4445 1.75196C24.1223 1.07415 25.0416 0.693359 26.0002 0.693359C26.9588 0.693359 27.8781 1.07415 28.5559 1.75196C29.2337 2.42977 29.6145 3.34908 29.6145 4.30764V22.3791H47.6859C48.6445 22.3791 49.5638 22.7599 50.2416 23.4377C50.9194 24.1155 51.3002 25.0348 51.3002 25.9934C51.3002 26.9519 50.9194 27.8712 50.2416 28.549C49.5638 29.2269 48.6445 29.6076 47.6859 29.6076Z" fill="#0586C7"/>
</svg>
