<svg width="48" height="48" viewBox="0 0 48 48" fill="none" xmlns="http://www.w3.org/2000/svg">
<path d="M48 24C48 31.0239 44.9821 37.3433 40.173 41.7327C35.9062 45.6255 30.2307 48 24 48C17.7693 48 12.0938 45.6255 7.82703 41.7327C3.01794 37.3433 0 31.0239 0 24C0 10.7457 10.7457 0 24 0C37.2543 0 48 10.7457 48 24Z" fill="#06465F"/>
<path d="M48 24C48 31.0239 44.9821 37.3433 40.173 41.7327C35.9062 45.6255 30.2307 48 24 48V0C37.2543 0 48 10.7457 48 24Z" fill="#003347"/>
<path d="M40.1731 41.6371V41.7327C35.9064 45.6255 30.2308 48 24.0001 48C17.7694 48 12.0939 45.6255 7.82715 41.7327V41.6371C7.82715 34.6846 12.2374 28.7417 18.4081 26.462C20.1509 25.8168 22.035 25.4645 24.0001 25.4645C25.9652 25.4645 27.8494 25.8168 29.5933 26.462C35.7639 28.7428 40.1731 34.6846 40.1731 41.6371Z" fill="#00E1C0"/>
<path d="M40.173 41.6371V41.7327C35.9062 45.6255 30.2307 48 24 48V25.4645C25.9651 25.4645 27.8492 25.8168 29.5931 26.462C35.7638 28.7428 40.173 34.6846 40.173 41.6371Z" fill="#008A90"/>
<path d="M33.9197 18.2739C33.9197 23.7433 29.4706 28.1938 24.0001 28.1938C18.5308 28.1938 14.0806 23.7433 14.0806 18.2739C14.0806 12.8046 18.5308 8.35437 24.0001 8.35437C29.4706 8.35437 33.9197 12.8046 33.9197 18.2739Z" fill="#F4D0B5"/>
<path d="M33.9196 18.2739C33.9196 23.7433 29.4705 28.1938 24 28.1938V8.35437C29.4705 8.35437 33.9196 12.8046 33.9196 18.2739Z" fill="#EFC7A4"/>
</svg>
