<svg width="18" height="18" viewBox="0 0 18 18" fill="none" xmlns="http://www.w3.org/2000/svg">
<path d="M9.98451 10.5771C9.98451 10.81 9.79564 10.999 9.56257 10.999C9.3295 10.999 9.14062 10.81 9.14062 10.5771C9.14062 10.344 9.3295 10.1552 9.56257 10.1552C9.79564 10.1552 9.98451 10.344 9.98451 10.5771Z" fill="white"/>
<path d="M7.73451 7.48252C7.73451 7.7156 7.54564 7.90447 7.31257 7.90447C7.0795 7.90447 6.89062 7.7156 6.89062 7.48252C6.89062 7.24945 7.0795 7.06058 7.31257 7.06058C7.54564 7.06058 7.73451 7.24945 7.73451 7.48252Z" fill="white"/>
<path d="M15.3746 4.91528C15.2799 4.84721 15.1661 4.81055 15.0495 4.81055C15.0181 4.81055 14.9867 4.81318 14.9557 4.81846C14.8083 4.84257 14.6766 4.9247 14.5901 5.04638L14.59 5.04651C14.5034 5.16807 14.4684 5.31901 14.4931 5.4662C14.5177 5.61338 14.5998 5.74474 14.7212 5.83137C14.8428 5.91815 14.9937 5.95293 15.1409 5.92832C15.2881 5.9037 15.4195 5.82158 15.5061 5.70001C15.5927 5.57858 15.6277 5.42763 15.6029 5.28045C15.5783 5.13327 15.4962 5.00191 15.3746 4.91528H15.3746Z" fill="white"/>
<path d="M17.0585 3.28471L12.7069 2.07402C12.0218 1.91792 11.3035 2.01047 10.6802 2.33509L0.631699 8.20823C0.34174 8.37701 0.130253 8.65365 0.043357 8.97779C-0.0435425 9.30178 0.00128802 9.64712 0.167931 9.93835L3.68365 15.9983C3.85368 16.2876 4.13109 16.4978 4.45559 16.5831C4.77996 16.6685 5.12504 16.622 5.41527 16.4537L15.6258 10.5626C16.2135 10.1872 16.6516 9.61836 16.8645 8.95431L17.9602 4.83743C18.0432 4.51205 17.9952 4.1672 17.8267 3.87687C17.6582 3.58654 17.3824 3.37404 17.0587 3.2849L17.0585 3.28471ZM2.72753 9.84068L2.57495 9.60434C2.53414 9.54155 2.51983 9.4652 2.53552 9.39198C2.55109 9.31877 2.59517 9.25473 2.65809 9.21417C2.721 9.17361 2.79748 9.15979 2.87069 9.17574C2.94378 9.19181 3.00757 9.23627 3.04776 9.29931L3.20033 9.53565V9.53578C3.2409 9.59844 3.25483 9.67466 3.23914 9.74763C3.22344 9.82071 3.17936 9.88438 3.11657 9.92494C3.05378 9.96538 2.97756 9.97919 2.90459 9.96349C2.83163 9.94767 2.76796 9.90347 2.72753 9.84068H2.72753ZM3.26125 10.668L3.1088 10.4316V10.4315C3.02554 10.301 3.06347 10.1279 3.19344 10.044C3.32354 9.96008 3.49696 9.997 3.5816 10.1266L3.73405 10.3629V10.3631C3.77486 10.4257 3.78918 10.5021 3.77348 10.5753C3.75791 10.6485 3.71383 10.7125 3.65092 10.7531C3.588 10.7937 3.51153 10.8075 3.43831 10.7915C3.36523 10.7756 3.30143 10.731 3.26125 10.668L3.26125 10.668ZM3.79498 11.4953L3.64252 11.2589V11.2588C3.55939 11.1283 3.59719 10.9552 3.72729 10.8711C3.85739 10.7873 4.03081 10.8243 4.11532 10.9539L4.26777 11.1902C4.30833 11.253 4.32227 11.3292 4.30657 11.4022C4.29088 11.4752 4.2468 11.539 4.18401 11.5794C4.12134 11.62 4.04499 11.6338 3.97203 11.618C3.89907 11.6021 3.8354 11.5581 3.79496 11.4953L3.79498 11.4953ZM4.3288 12.3227L4.17634 12.0864V12.0862C4.09309 11.9558 4.13101 11.7825 4.26098 11.6986C4.39108 11.6147 4.56451 11.6517 4.64914 11.7813L4.80159 12.0177C4.8424 12.0805 4.85672 12.1568 4.84103 12.23C4.82545 12.3032 4.78137 12.3673 4.71846 12.4078C4.65555 12.4484 4.57907 12.4622 4.50586 12.4463C4.43277 12.4302 4.36898 12.3857 4.32879 12.3227L4.3288 12.3227ZM4.86252 13.15L4.71007 12.9137V12.9135C4.66913 12.8509 4.65494 12.7744 4.67051 12.7012C4.68621 12.628 4.73028 12.5641 4.7932 12.5235C4.85611 12.4829 4.93259 12.4691 5.0058 12.4851C5.07889 12.501 5.14256 12.5455 5.18287 12.6086L5.33532 12.845C5.37588 12.9078 5.38982 12.984 5.37412 13.057C5.35843 13.1299 5.31435 13.1937 5.25156 13.2341C5.1889 13.2746 5.11255 13.2885 5.03958 13.2727C4.96662 13.2569 4.90295 13.2128 4.86252 13.1499L4.86252 13.15ZM5.77684 14.0484H5.77697C5.71418 14.0888 5.63808 14.1026 5.56512 14.0869C5.49216 14.0712 5.42849 14.0272 5.38805 13.9645L5.24376 13.7408H5.24389C5.20295 13.6782 5.18876 13.6017 5.20433 13.5285C5.2199 13.4553 5.26411 13.3914 5.32702 13.3508C5.38994 13.3102 5.46641 13.2963 5.5395 13.3124C5.61259 13.3283 5.67638 13.3728 5.71657 13.4359L5.86086 13.6596V13.6595C5.94499 13.7901 5.90745 13.9641 5.77697 14.0484L5.77684 14.0484ZM6.32777 7.48278C6.32777 7.2217 6.4315 6.97117 6.6161 6.78658C6.8007 6.60197 7.05122 6.49825 7.3123 6.49825C7.57337 6.49812 7.8239 6.60185 8.0085 6.78658C8.1931 6.97118 8.29683 7.22157 8.29683 7.48278C8.29683 7.74385 8.1931 7.99425 8.0085 8.17897C7.82389 8.36358 7.5735 8.4673 7.3123 8.4673C7.05122 8.46705 6.80108 8.3632 6.61645 8.1786C6.43185 7.994 6.32799 7.74386 6.32774 7.48275L6.32777 7.48278ZM7.03088 11.2804H7.03075C6.92552 11.2804 6.82895 11.2215 6.78073 11.1279C6.73263 11.0342 6.74079 10.9214 6.80207 10.8356L9.61516 6.89749C9.65849 6.83684 9.72416 6.79577 9.79776 6.78359C9.87135 6.77128 9.94682 6.78874 10.0076 6.83206C10.1339 6.92235 10.1633 7.09804 10.073 7.22437L7.25993 11.1625C7.20719 11.2366 7.1218 11.2806 7.03075 11.2804L7.03088 11.2804ZM9.5628 11.5617C9.30172 11.5617 9.05119 11.458 8.8666 11.2734C8.682 11.0887 8.57827 10.8383 8.57827 10.5772C8.57827 10.316 8.682 10.0656 8.8666 9.881C9.0512 9.69627 9.30172 9.59254 9.5628 9.59254C9.82387 9.59254 10.0743 9.6964 10.259 9.881C10.4436 10.0656 10.5473 10.316 10.5473 10.5772C10.5471 10.8382 10.4432 11.0884 10.2586 11.273C10.074 11.4576 9.82376 11.5615 9.56278 11.5617L9.5628 11.5617ZM11.4481 4.6367L11.2955 4.40036V4.40024C11.2546 4.33757 11.2404 4.26122 11.256 4.18801C11.2717 4.1148 11.3158 4.05075 11.3787 4.01019C11.4416 3.96963 11.5181 3.95581 11.5912 3.97176C11.6644 3.98771 11.728 4.03217 11.7683 4.09533L11.9209 4.3318C11.9615 4.39446 11.9754 4.47069 11.9597 4.54365C11.944 4.61674 11.8998 4.6804 11.8372 4.72084C11.7744 4.7614 11.6982 4.77522 11.6252 4.75939C11.5522 4.74357 11.4884 4.69949 11.4481 4.6367L11.4481 4.6367ZM11.9818 5.464L11.8294 5.22766V5.22754C11.7454 5.09706 11.7831 4.92313 11.9135 4.83899C12.0439 4.75486 12.2178 4.79228 12.3022 4.92263L12.4547 5.15897C12.4955 5.22176 12.5098 5.29811 12.4941 5.37133C12.4785 5.44454 12.4344 5.50858 12.3715 5.54914C12.3086 5.5897 12.2321 5.60352 12.1589 5.58757C12.0858 5.5715 12.022 5.52704 11.9819 5.464L11.9818 5.464ZM12.5157 6.2913L12.3632 6.05496L12.3631 6.05484C12.2798 5.92436 12.3178 5.75106 12.4479 5.66716C12.578 5.58327 12.7514 5.6202 12.8359 5.74992L12.9883 5.98626C13.0293 6.04892 13.0435 6.1254 13.0279 6.19861C13.0122 6.27182 12.9681 6.33574 12.9052 6.3763C12.8423 6.41699 12.7658 6.43081 12.6927 6.41473C12.6195 6.39878 12.5558 6.35433 12.5155 6.29116L12.5157 6.2913ZM13.0494 7.11873L12.8969 6.88239V6.88226C12.8564 6.8196 12.8423 6.74325 12.8581 6.67029C12.8738 6.59733 12.9179 6.53353 12.9806 6.49309C13.0434 6.45266 13.1196 6.43872 13.1926 6.45454C13.2656 6.47037 13.3293 6.51457 13.3696 6.57736L13.5221 6.8137C13.563 6.87636 13.5772 6.95284 13.5616 7.02605C13.5461 7.09926 13.5019 7.16318 13.4389 7.20374C13.3762 7.24443 13.2995 7.25825 13.2265 7.24217C13.1534 7.22622 13.0896 7.18177 13.0494 7.1186L13.0494 7.11873ZM13.5832 7.94603L13.4308 7.70969L13.4306 7.70956C13.3897 7.64678 13.3755 7.57042 13.3911 7.49721C13.4068 7.424 13.4508 7.36008 13.5138 7.31939C13.5767 7.27883 13.6532 7.26502 13.7262 7.28109C13.7995 7.29704 13.8631 7.34149 13.9034 7.40466L14.0559 7.641C14.0964 7.70366 14.1104 7.77989 14.0947 7.85298C14.079 7.92594 14.0349 7.98973 13.9722 8.03017C13.9095 8.07073 13.8331 8.08455 13.7601 8.06872C13.6872 8.0529 13.6235 8.0087 13.5831 7.94591L13.5832 7.94603ZM14.4975 8.84441H14.4974C14.4347 8.88484 14.3586 8.89866 14.2857 8.88296C14.2127 8.86714 14.1491 8.82318 14.1086 8.7604L13.9643 8.53674V8.53687C13.8804 8.40627 13.9181 8.23234 14.0485 8.14832C14.1789 8.06419 14.3529 8.10161 14.4371 8.23184L14.5813 8.45549H14.5814C14.6656 8.58609 14.628 8.76015 14.4975 8.84442L14.4975 8.84441ZM15.9638 6.02756V6.02743C15.7907 6.2708 15.5275 6.43481 15.2329 6.48291C15.1711 6.4932 15.1086 6.49835 15.0461 6.49835C14.7073 6.4976 14.3866 6.34427 14.1735 6.08081C13.9604 5.81748 13.8773 5.47199 13.9474 5.14048C14.0174 4.80884 14.2332 4.52652 14.5347 4.37195C14.8361 4.21724 15.1914 4.20656 15.5015 4.34307C15.8116 4.47957 16.0438 4.74842 16.1334 5.07517C16.2232 5.40206 16.1608 5.7518 15.9638 6.02743V6.02756Z" fill="white"/>
</svg>
