<svg width="24" height="24" viewBox="0 0 24 24" fill="none" xmlns="http://www.w3.org/2000/svg">
<path d="M16.977 19.4999C18.7342 18.3363 20.0272 16.5929 20.6308 14.5737C21.2344 12.5544 21.1102 10.3874 20.2799 8.45034C19.4496 6.51327 17.9658 4.92902 16.0873 3.97374C14.2087 3.01847 12.0544 2.75276 10 3.22293M16.977 19.4999V15.9999M16.977 19.4999H20.5M7 4.51593C5.24891 5.68384 3.96254 7.42855 3.3646 9.44667C2.76666 11.4648 2.89497 13.6286 3.72722 15.562C4.55947 17.4953 6.04301 19.0757 7.91985 20.0285C9.7967 20.9813 11.9481 21.2461 14 20.7769M7 4.51593V7.99993M7 4.51593H3.5" stroke="black" stroke-width="1.5" stroke-linecap="round" stroke-linejoin="round"/>
</svg>
