<svg width="18" height="18" viewBox="0 0 18 18" fill="none" xmlns="http://www.w3.org/2000/svg">
<g clip-path="url(#clip0_874_123876)">
<mask id="path-1-inside-1_874_123876" fill="white">
<path d="M17.5 2.5H6.5C2.78672 2.5 0 5.18503 0 9"/>
</mask>
<path d="M17.5 3.5C18.0523 3.5 18.5 3.05228 18.5 2.5C18.5 1.94772 18.0523 1.5 17.5 1.5V3.5ZM-1 9C-1 9.55228 -0.552285 10 0 10C0.552285 10 1 9.55228 1 9H-1ZM17.5 1.5H6.5V3.5H17.5V1.5ZM6.5 1.5C2.24484 1.5 -1 4.62239 -1 9H1C1 5.74767 3.3286 3.5 6.5 3.5V1.5Z" fill="white" mask="url(#path-1-inside-1_874_123876)"/>
<mask id="path-3-inside-2_874_123876" fill="white">
<path d="M0.5 15.5H11.5C15.2133 15.5 18 12.815 18 9"/>
</mask>
<path d="M0.5 14.5C-0.0522848 14.5 -0.5 14.9477 -0.5 15.5C-0.5 16.0523 -0.0522848 16.5 0.5 16.5V14.5ZM19 9C19 8.44772 18.5523 8 18 8C17.4477 8 17 8.44772 17 9H19ZM0.5 16.5H11.5V14.5H0.5V16.5ZM11.5 16.5C15.7552 16.5 19 13.3776 19 9H17C17 12.2524 14.6714 14.5 11.5 14.5V16.5Z" fill="white" mask="url(#path-3-inside-2_874_123876)"/>
<mask id="path-5-inside-3_874_123876" fill="white">
<path d="M15.5 0C15.5 0 18 1.84122 18 2.50002C18 3.15882 15.5 5 15.5 5"/>
</mask>
<path d="M16.093 -0.805192C15.6483 -1.1327 15.0223 -1.03771 14.6948 -0.593014C14.3673 -0.148319 14.4623 0.477679 14.907 0.805192L16.093 -0.805192ZM14.907 4.1948C14.4623 4.52231 14.3673 5.14831 14.6948 5.59301C15.0223 6.0377 15.6483 6.13271 16.093 5.8052L14.907 4.1948ZM15.5 0C14.907 0.805192 14.9069 0.805149 14.9069 0.805114C14.9069 0.805111 14.9068 0.805083 14.9068 0.805077C14.9068 0.805067 14.9068 0.805084 14.9069 0.805129C14.907 0.805218 14.9073 0.805417 14.9077 0.805725C14.9085 0.80634 14.91 0.807389 14.9119 0.80886C14.9159 0.811802 14.9222 0.816431 14.9305 0.822655C14.9472 0.835105 14.9723 0.853918 15.0047 0.878363C15.0695 0.927289 15.1629 0.998557 15.2754 1.08633C15.5014 1.2627 15.7994 1.5019 16.0944 1.75806C16.3944 2.01853 16.6686 2.27701 16.86 2.4936C16.9567 2.60303 17.0112 2.67836 17.0362 2.71973C17.0776 2.78855 17 2.69616 17 2.50002H19C19 2.13918 18.8442 1.84513 18.749 1.68717C18.6372 1.50175 18.4964 1.32515 18.3588 1.16932C18.0814 0.855396 17.7306 0.530043 17.4056 0.247862C17.0756 -0.0386312 16.7486 -0.300918 16.5059 -0.490362C16.384 -0.585497 16.2821 -0.663221 16.2101 -0.71756C16.1741 -0.744748 16.1456 -0.766135 16.1256 -0.780977C16.1157 -0.7884 16.1079 -0.794191 16.1024 -0.798256C16.0997 -0.800289 16.0975 -0.801891 16.0959 -0.803051C16.0951 -0.803631 16.0945 -0.8041 16.094 -0.804457C16.0938 -0.804636 16.0936 -0.804787 16.0934 -0.804909C16.0933 -0.80497 16.0932 -0.805041 16.0932 -0.805072C16.0931 -0.805135 16.093 -0.805192 15.5 0ZM17 2.50002C17 2.30387 17.0776 2.21148 17.0362 2.2803C17.0112 2.32167 16.9567 2.397 16.86 2.50643C16.6686 2.72302 16.3944 2.98149 16.0944 3.24196C15.7994 3.49811 15.5014 3.7373 15.2754 3.91367C15.1629 4.00144 15.0695 4.07271 15.0047 4.12163C14.9724 4.14608 14.9472 4.16489 14.9305 4.17734C14.9222 4.18356 14.9159 4.18819 14.912 4.19113C14.91 4.19261 14.9085 4.19365 14.9077 4.19427C14.9073 4.19458 14.907 4.19478 14.9069 4.19487C14.9068 4.19491 14.9068 4.19493 14.9068 4.19492C14.9068 4.19491 14.9069 4.19488 14.9069 4.19488C14.9069 4.19484 14.907 4.1948 15.5 5C16.093 5.8052 16.0931 5.80514 16.0932 5.80508C16.0932 5.80505 16.0933 5.80498 16.0934 5.80492C16.0936 5.80479 16.0938 5.80464 16.094 5.80446C16.0945 5.80411 16.0951 5.80364 16.0959 5.80306C16.0975 5.8019 16.0996 5.8003 16.1024 5.79826C16.1079 5.7942 16.1157 5.78841 16.1256 5.78098C16.1456 5.76614 16.1741 5.74476 16.2101 5.71757C16.2821 5.66323 16.3839 5.58551 16.5058 5.49037C16.7486 5.30093 17.0756 5.03865 17.4056 4.75216C17.7306 4.46999 18.0814 4.14464 18.3588 3.83071C18.4964 3.67489 18.6372 3.49829 18.749 3.31288C18.8442 3.15491 19 2.86087 19 2.50002H17Z" fill="white" mask="url(#path-5-inside-3_874_123876)"/>
<mask id="path-7-inside-4_874_123876" fill="white">
<path d="M2.49998 13C2.49998 13 1e-05 14.8412 0 15.5C-9.99997e-06 16.1588 2.5 18 2.5 18"/>
</mask>
<path d="M3.09299 13.8052C3.53769 13.4777 3.63268 12.8517 3.30517 12.407C2.97766 11.9623 2.35166 11.8673 1.90697 12.1948L3.09299 13.8052ZM1.90699 18.8052C2.35169 19.1327 2.97769 19.0377 3.3052 18.593C3.63271 18.1483 3.53771 17.5223 3.09301 17.1948L1.90699 18.8052ZM2.49998 13C1.90697 12.1948 1.90689 12.1949 1.9068 12.1949C1.90676 12.195 1.90666 12.195 1.90658 12.1951C1.90642 12.1952 1.90621 12.1954 1.90597 12.1955C1.90548 12.1959 1.90485 12.1964 1.90406 12.1969C1.90249 12.1981 1.90033 12.1997 1.89758 12.2017C1.89209 12.2058 1.88429 12.2116 1.87433 12.219C1.85442 12.2339 1.82585 12.2553 1.78985 12.2824C1.71791 12.3368 1.61603 12.4145 1.49413 12.5096C1.25138 12.6991 0.924345 12.9614 0.594381 13.2479C0.269385 13.53 -0.0813801 13.8554 -0.358758 14.1693C-0.496436 14.3251 -0.637214 14.5017 -0.748992 14.6871C-0.844223 14.8451 -0.999995 15.1391 -1 15.5L1 15.5C0.999997 15.6962 0.922351 15.7885 0.963839 15.7197C0.988781 15.6783 1.04331 15.603 1.14001 15.4936C1.33138 15.277 1.60561 15.0185 1.90561 14.758C2.20064 14.5019 2.49859 14.2627 2.72459 14.0863C2.83706 13.9986 2.93049 13.9273 2.99527 13.8784C3.02763 13.8539 3.05277 13.8351 3.06948 13.8227C3.07783 13.8164 3.08406 13.8118 3.08804 13.8089C3.09002 13.8074 3.09144 13.8063 3.09227 13.8057C3.09269 13.8054 3.09296 13.8052 3.09308 13.8051C3.09314 13.8051 3.09316 13.8051 3.09315 13.8051C3.09314 13.8051 3.0931 13.8051 3.0931 13.8051C3.09305 13.8051 3.09299 13.8052 2.49998 13ZM-1 15.5C-1.00001 15.8608 -0.84423 16.1549 -0.748999 16.3129C-0.637221 16.4983 -0.496441 16.6749 -0.358762 16.8307C-0.0813817 17.1446 0.269388 17.47 0.594388 17.7522C0.924357 18.0386 1.2514 18.3009 1.49415 18.4904C1.61605 18.5855 1.71793 18.6632 1.78987 18.7176C1.82587 18.7448 1.85444 18.7661 1.87436 18.781C1.88432 18.7884 1.89212 18.7942 1.89761 18.7983C1.90035 18.8003 1.90252 18.8019 1.90409 18.8031C1.90487 18.8036 1.90551 18.8041 1.90599 18.8045C1.90624 18.8046 1.90644 18.8048 1.90661 18.8049C1.90669 18.805 1.90679 18.805 1.90683 18.8051C1.90691 18.8051 1.90699 18.8052 2.5 18C3.09301 17.1948 3.09307 17.1948 3.09311 17.1949C3.09312 17.1949 3.09316 17.1949 3.09316 17.1949C3.09318 17.1949 3.09315 17.1949 3.09309 17.1949C3.09297 17.1948 3.0927 17.1946 3.09229 17.1943C3.09145 17.1937 3.09003 17.1926 3.08805 17.1911C3.08408 17.1882 3.07784 17.1836 3.06949 17.1773C3.05278 17.1649 3.02764 17.1461 2.99528 17.1216C2.9305 17.0727 2.83707 17.0014 2.7246 16.9137C2.4986 16.7373 2.20064 16.4981 1.9056 16.2419C1.6056 15.9815 1.33137 15.723 1.14 15.5064C1.04331 15.397 0.988776 15.3217 0.963837 15.2803C0.922351 15.2115 1 15.3039 1 15.5L-1 15.5Z" fill="white" mask="url(#path-7-inside-4_874_123876)"/>
</g>
<defs>
<clipPath id="clip0_874_123876">
<rect width="18" height="18" fill="white" transform="matrix(-1 0 0 1 18 0)"/>
</clipPath>
</defs>
</svg>
