<svg width="33" height="33" viewBox="0 0 33 33" fill="none" xmlns="http://www.w3.org/2000/svg">
<path d="M21.8592 20.7014C22.6391 20.2824 23.5318 20.0439 24.4825 20.0439H24.4857C24.5824 20.0439 24.6275 19.9279 24.5566 19.8635C23.5679 18.9762 22.4386 18.2596 21.2147 17.743C21.2018 17.7365 21.1889 17.7333 21.176 17.7269C23.1773 16.2734 24.4793 13.9112 24.4793 11.2461C24.4793 6.83105 20.9085 3.25391 16.5032 3.25391C12.0978 3.25391 8.53033 6.83105 8.53033 11.2461C8.53033 13.9112 9.83228 16.2734 11.8368 17.7269C11.8239 17.7333 11.811 17.7365 11.7981 17.743C10.3576 18.352 9.06529 19.2254 7.95347 20.3404C6.84808 21.4438 5.96804 22.7518 5.36246 24.1915C4.76663 25.6013 4.44507 27.1118 4.415 28.642C4.41414 28.6764 4.42017 28.7106 4.43274 28.7426C4.44531 28.7747 4.46417 28.8038 4.48819 28.8285C4.51222 28.8531 4.54093 28.8727 4.57264 28.886C4.60434 28.8994 4.6384 28.9063 4.67281 28.9062H6.60318C6.74175 28.9062 6.85777 28.7935 6.86099 28.6549C6.92545 26.167 7.92125 23.837 9.68404 22.071C11.5048 20.2438 13.9283 19.2383 16.5064 19.2383C18.3336 19.2383 20.0868 19.7442 21.5982 20.6917C21.637 20.7161 21.6816 20.7298 21.7274 20.7315C21.7732 20.7332 21.8187 20.7228 21.8592 20.7014ZM16.5064 16.7891C15.0304 16.7891 13.6415 16.2122 12.5941 15.1648C12.0788 14.6509 11.6703 14.04 11.392 13.3674C11.1138 12.6949 10.9715 11.9739 10.9731 11.2461C10.9731 9.76689 11.55 8.37471 12.5941 7.32734C13.6382 6.27998 15.0272 5.70312 16.5064 5.70312C17.9856 5.70312 19.3713 6.27998 20.4187 7.32734C20.934 7.84133 21.3426 8.45219 21.6208 9.12475C21.899 9.79731 22.0413 10.5183 22.0397 11.2461C22.0397 12.7253 21.4628 14.1175 20.4187 15.1648C19.3713 16.2122 17.9824 16.7891 16.5064 16.7891ZM28.3593 24.459H25.6523V21.752C25.6523 21.6102 25.5363 21.4941 25.3945 21.4941H23.5898C23.448 21.4941 23.332 21.6102 23.332 21.752V24.459H20.625C20.4832 24.459 20.3671 24.575 20.3671 24.7168V26.5215C20.3671 26.6633 20.4832 26.7793 20.625 26.7793H23.332V29.4863C23.332 29.6281 23.448 29.7441 23.5898 29.7441H25.3945C25.5363 29.7441 25.6523 29.6281 25.6523 29.4863V26.7793H28.3593C28.5011 26.7793 28.6171 26.6633 28.6171 26.5215V24.7168C28.6171 24.575 28.5011 24.459 28.3593 24.459Z" fill="#0586C7"/>
</svg>
