<svg width="35" height="33" viewBox="0 0 35 33" fill="none" xmlns="http://www.w3.org/2000/svg">
<path d="M27.802 26.8333C30.5774 26.8333 32.8274 24.5201 32.8274 21.6667C32.8274 18.8132 30.5774 16.5 27.802 16.5C25.0266 16.5 22.7766 18.8132 22.7766 21.6667C22.7766 24.5201 25.0266 26.8333 27.802 26.8333Z" stroke="#0586C7" stroke-width="2" stroke-linecap="round" stroke-linejoin="round"/>
<path d="M12.7259 14.7778C16.4265 14.7778 19.4264 11.6935 19.4264 7.88889C19.4264 4.08426 16.4265 1 12.7259 1C9.02531 1 6.02539 4.08426 6.02539 7.88889C6.02539 11.6935 9.02531 14.7778 12.7259 14.7778Z" stroke="#0586C7" stroke-width="2" stroke-linecap="round" stroke-linejoin="round"/>
<path d="M14.401 21.6671H7.70051C5.92342 21.6671 4.21912 22.3929 2.96253 23.6849C1.70594 24.9768 1 26.729 1 28.556V32.0005M34 24.0783L32.4924 23.5616M23.1117 19.7727L21.6041 19.256M25.4569 28.0394L25.9594 26.4894M29.6447 16.8449L30.1472 15.2949M30.4822 28.0394L29.8122 26.3171M25.7919 17.0171L25.1218 15.2949M21.6041 24.4227L23.2792 23.7338M32.3249 19.6005L34 18.9116" stroke="#0586C7" stroke-width="2" stroke-linecap="round" stroke-linejoin="round"/>
</svg>
