<svg width="24" height="24" viewBox="0 0 24 24" fill="none" xmlns="http://www.w3.org/2000/svg">
<path fill-rule="evenodd" clip-rule="evenodd" d="M8.37121 4.2002C7.57986 4.20028 6.81488 4.48475 6.21574 5.00173C5.6166 5.51871 5.22318 6.23378 5.10721 7.0166L4.31281 12.3686C4.23755 12.8779 4.19984 13.3921 4.20001 13.907V15.9002C4.20001 16.9345 4.6109 17.9265 5.3423 18.6579C6.07369 19.3893 7.06567 19.8002 8.10001 19.8002H15.9C16.9344 19.8002 17.9263 19.3893 18.6577 18.6579C19.3891 17.9265 19.8 16.9345 19.8 15.9002V13.9082C19.8 13.3922 19.7616 12.8786 19.686 12.3686L18.894 7.0166C18.778 6.23378 18.3846 5.51871 17.7855 5.00173C17.1863 4.48475 16.4214 4.20028 15.63 4.2002H8.37121ZM6.88681 7.2806C6.9395 6.9246 7.11841 6.59941 7.39091 6.36436C7.66342 6.12931 8.01134 6.00006 8.37121 6.0002H15.6288C16.3728 6.0002 17.004 6.545 17.1132 7.2806L17.8128 12.0002H14.832C14.5173 12.0004 14.2107 12.0996 13.9555 12.2838C13.7003 12.4679 13.5095 12.7276 13.41 13.0262L13.2192 13.595C13.1993 13.6547 13.1612 13.7067 13.1101 13.7435C13.0591 13.7803 12.9978 13.8001 12.9348 13.8002H11.0652C11.0024 13.8002 10.9412 13.7806 10.8902 13.744C10.8392 13.7074 10.8009 13.6557 10.7808 13.5962L10.59 13.0262C10.4906 12.7276 10.2997 12.4679 10.0445 12.2838C9.78935 12.0996 9.4827 12.0004 9.16801 12.0002H6.18721L6.88681 7.2806ZM6.00121 13.8002L6.00001 13.9082V15.9002C6.00001 17.0594 6.94081 18.0002 8.10001 18.0002H15.9C16.457 18.0002 16.9911 17.7789 17.3849 17.3851C17.7788 16.9913 18 16.4572 18 15.9002V13.8002H15.048L14.928 14.1638C14.7887 14.582 14.5214 14.9457 14.1639 15.2035C13.8064 15.4613 13.3768 15.6001 12.936 15.6002H11.064C10.6232 15.6001 10.1937 15.4613 9.83615 15.2035C9.47863 14.9457 9.2113 14.582 9.07201 14.1638L8.95201 13.8002H6.00121Z" fill="#0586C7"/>
</svg>
