<svg width="22" height="22" viewBox="0 0 22 22" fill="none" xmlns="http://www.w3.org/2000/svg">
<path d="M11 16.5002C10.5197 16.5003 10.0544 16.3328 9.68443 16.0265C9.31443 15.7203 9.06291 15.2945 8.97325 14.8227C7.62455 14.4059 6.43685 13.584 5.5715 12.4687C4.91822 11.6274 4.46933 10.6459 4.26026 9.60148C4.05118 8.55708 4.08763 7.47838 4.36672 6.45047C4.64582 5.42257 5.15994 4.47357 5.86851 3.67833C6.57709 2.88309 7.46075 2.26336 8.4498 1.86804C9.43884 1.47271 10.5062 1.31259 11.5677 1.40031C12.6292 1.48803 13.6558 1.82119 14.5665 2.37351C15.4773 2.92584 16.2472 3.68221 16.8156 4.58298C17.3841 5.48375 17.7354 6.50427 17.842 7.56405C17.8791 7.94217 17.567 8.25017 17.1875 8.25017C16.808 8.25017 16.5041 7.9408 16.4588 7.56405C16.336 6.59169 15.9557 5.66978 15.3572 4.89372C14.7586 4.11766 13.9636 3.51564 13.0543 3.14994C12.145 2.78424 11.1545 2.66815 10.1853 2.81369C9.2161 2.95923 8.30339 3.3611 7.54161 3.97773C6.77983 4.59436 6.19666 5.40334 5.85243 6.32098C5.50821 7.23861 5.41544 8.23155 5.58371 9.19707C5.75199 10.1626 6.17521 11.0656 6.80957 11.8127C7.44394 12.5597 8.26641 13.1237 9.19187 13.4463C9.36684 13.1271 9.62316 12.8599 9.93482 12.6718C10.2465 12.4837 10.6023 12.3815 10.9663 12.3755C11.3303 12.3694 11.6893 12.4598 12.007 12.6375C12.3247 12.8151 12.5898 13.0737 12.7752 13.3869C12.9607 13.7001 13.0599 14.0568 13.0629 14.4208C13.0659 14.7848 12.9725 15.1431 12.7922 15.4593C12.6119 15.7755 12.3511 16.0384 12.0363 16.2212C11.7215 16.404 11.364 16.5003 11 16.5002ZM5.5 14.4377V14.4005C5.12403 14.0638 4.77975 13.6933 4.4715 13.2937C4.24561 13.6324 4.12504 14.0305 4.125 14.4377V15.1252C4.125 17.8353 6.6825 20.6252 11 20.6252C15.3175 20.6252 17.875 17.8353 17.875 15.1252V14.4377C17.875 13.8907 17.6577 13.3661 17.2709 12.9793C16.8841 12.5925 16.3595 12.3752 15.8125 12.3752H13.75C14.0511 12.7739 14.2656 13.2414 14.3687 13.7502H15.8125C15.9948 13.7502 16.1697 13.8226 16.2986 13.9515C16.4276 14.0805 16.5 14.2553 16.5 14.4377V15.1252C16.5 17.1024 14.531 19.2502 11 19.2502C7.469 19.2502 5.5 17.1024 5.5 15.1252V14.4377ZM11 11.0002C10.2132 11.0001 9.45028 11.27 8.8385 11.7647C8.23734 11.3964 7.74099 10.8797 7.39714 10.2642C7.05329 9.64873 6.87348 8.95518 6.875 8.25017C6.8752 7.53102 7.06342 6.82441 7.42097 6.20044C7.77852 5.57647 8.29299 5.05682 8.91335 4.69303C9.5337 4.32924 10.2384 4.13396 10.9575 4.12655C11.6766 4.11914 12.3852 4.29987 13.0129 4.6508C13.6406 5.00173 14.1657 5.51067 14.536 6.12714C14.9064 6.74361 15.1091 7.44619 15.1241 8.16518C15.1391 8.88418 14.9659 9.59461 14.6216 10.226C14.2774 10.8574 13.774 11.3878 13.1615 11.7647C12.5497 11.27 11.7868 11.0001 11 11.0002ZM8.25 8.25017C8.25 8.97952 8.53973 9.67899 9.05546 10.1947C9.57118 10.7104 10.2707 11.0002 11 11.0002C11.7293 11.0002 12.4288 10.7104 12.9445 10.1947C13.4603 9.67899 13.75 8.97952 13.75 8.25017C13.75 7.52083 13.4603 6.82135 12.9445 6.30563C12.4288 5.7899 11.7293 5.50017 11 5.50017C10.2707 5.50017 9.57118 5.7899 9.05546 6.30563C8.53973 6.82135 8.25 7.52083 8.25 8.25017Z" fill="black"/>
</svg>
