<svg width="21" height="26" viewBox="0 0 21 26" fill="none" xmlns="http://www.w3.org/2000/svg">
<path d="M11.3 24.4V23.8C11.3 20.4059 11.3 18.7089 12.3544 17.6544C13.4089 16.6 15.1059 16.6 18.5 16.6H19.1M19.7 14.6117V10.6C19.7 6.07451 19.7 3.81178 18.2941 2.40588C16.8883 1 14.6254 1 10.1 1C5.57452 1 3.31178 1 1.90588 2.40588C0.5 3.81177 0.5 6.07451 0.5 10.6V16.053C0.5 19.947 0.5 21.894 1.56328 23.2128C1.7781 23.4792 2.02077 23.7219 2.2872 23.9367C3.60597 25 5.55298 25 9.44696 25C10.2937 25 10.7169 25 11.1046 24.8632C11.1853 24.8348 11.2642 24.802 11.3414 24.7652C11.7123 24.5877 12.0116 24.2884 12.6103 23.6897L18.2941 18.0059C18.9878 17.3122 19.3346 16.9654 19.5174 16.5243C19.7 16.0833 19.7 15.5927 19.7 14.6117Z" stroke="#003347" stroke-linecap="round" stroke-linejoin="round"/>
<path d="M5.2998 7H14.8998" stroke="#003347" stroke-linecap="round" stroke-linejoin="round"/>
<path d="M5.2998 11.8H10.0998" stroke="#003347" stroke-linecap="round" stroke-linejoin="round"/>
</svg>
