<svg width="24" height="25" viewBox="0 0 24 25" fill="none" xmlns="http://www.w3.org/2000/svg">
<path fill-rule="evenodd" clip-rule="evenodd" d="M8.39844 10.4008C8.39844 9.446 8.77772 8.53033 9.45285 7.8552C10.128 7.18007 11.0437 6.80078 11.9984 6.80078C12.9532 6.80078 13.8689 7.18007 14.544 7.8552C15.2192 8.53033 15.5984 9.446 15.5984 10.4008C15.5984 11.3556 15.2192 12.2712 14.544 12.9464C13.8689 13.6215 12.9532 14.0008 11.9984 14.0008C11.0437 14.0008 10.128 13.6215 9.45285 12.9464C8.77772 12.2712 8.39844 11.3556 8.39844 10.4008ZM11.9984 8.60078C11.521 8.60078 11.0632 8.79042 10.7256 9.12799C10.3881 9.46555 10.1984 9.92339 10.1984 10.4008C10.1984 10.8782 10.3881 11.336 10.7256 11.6736C11.0632 12.0111 11.521 12.2008 11.9984 12.2008C12.4758 12.2008 12.9337 12.0111 13.2712 11.6736C13.6088 11.336 13.7984 10.8782 13.7984 10.4008C13.7984 9.92339 13.6088 9.46555 13.2712 9.12799C12.9337 8.79042 12.4758 8.60078 11.9984 8.60078Z" fill="#5C5F62"/>
<path fill-rule="evenodd" clip-rule="evenodd" d="M18.2026 19.0213C17.3479 19.845 16.3387 20.4915 15.2332 20.9236C14.1276 21.3556 12.9475 21.5648 11.7608 21.5389C10.5741 21.513 9.40418 21.2526 8.31851 20.7727C7.23284 20.2929 6.25282 19.603 5.43488 18.7428C4.61695 17.8826 3.97724 16.8691 3.55262 15.7606C3.12799 14.6522 2.92682 13.4707 2.9607 12.2842C2.99457 11.0977 3.26282 9.92956 3.75 8.84715C4.23718 7.76473 4.93367 6.78938 5.79935 5.97726C7.53251 4.35132 9.83841 3.47686 12.2139 3.54469C14.5894 3.61251 16.8416 4.61711 18.4792 6.33928C20.1167 8.06145 21.0067 10.3614 20.9549 12.7373C20.9031 15.1132 19.9137 17.3721 18.2026 19.0213ZM6.40655 17.0305C5.55081 15.9736 5.01184 14.6961 4.85204 13.3456C4.69224 11.9952 4.91814 10.6271 5.50359 9.39975C6.08904 8.17237 7.01011 7.13589 8.16018 6.41026C9.31025 5.68463 10.6423 5.29953 12.0022 5.29953C13.362 5.29953 14.6941 5.68463 15.8441 6.41026C16.9942 7.13589 17.9153 8.17237 18.5007 9.39975C19.0862 10.6271 19.3121 11.9952 19.1523 13.3456C18.9925 14.6961 18.4535 15.9736 17.5978 17.0305C16.0556 15.6595 14.0644 14.9013 12.001 14.8993C9.93791 14.9015 7.94841 15.6597 6.40655 17.0305ZM7.70975 18.2821C8.94991 19.2048 10.4552 19.7019 12.001 19.6993C13.609 19.6993 15.0934 19.1713 16.2922 18.2821C15.0945 17.2626 13.5737 16.7017 12.001 16.6993C10.4282 16.7017 8.90739 17.2626 7.70975 18.2821Z" fill="#5C5F62"/>
</svg>
