<?xml version="1.0" standalone="no"?>
<!DOCTYPE svg PUBLIC "-//W3C//DTD SVG 20010904//EN"
 "http://www.w3.org/TR/2001/REC-SVG-20010904/DTD/svg10.dtd">
<svg version="1.0" xmlns="http://www.w3.org/2000/svg"
 width="234.000000pt" height="960.000000pt" viewBox="0 0 234.000000 960.000000"
 preserveAspectRatio="xMidYMid meet">

<g transform="translate(0.000000,960.000000) scale(0.100000,-0.100000)"
fill="#C382ED" stroke="none">
<path d="M975 9400 l200 -200 197 197 c109 109 198 199 198 200 0 2 -179 3
-397 3 l-398 0 200 -200z"/>
<path d="M988 8875 c-403 -66 -761 -358 -898 -733 -91 -247 -96 -524 -15 -763
137 -402 506 -714 914 -770 42 -6 86 -13 99 -15 l22 -4 0 -435 0 -435 65 0 65
0 0 435 0 435 23 4 c12 2 58 9 102 16 226 33 464 157 636 330 162 165 274 381
313 609 104 607 -293 1184 -907 1317 -101 22 -312 27 -419 9z m320 -287 c90
-30 102 -37 163 -98 92 -92 109 -140 102 -278 -5 -94 -4 -102 12 -102 29 0 55
-30 55 -63 0 -46 -22 -160 -34 -176 -6 -8 -30 -22 -52 -32 -38 -17 -42 -23
-47 -64 -7 -45 -48 -138 -67 -150 -5 -3 -10 -39 -10 -79 l0 -72 63 -37 c72
-43 194 -92 285 -114 137 -34 219 -113 229 -219 l5 -60 -85 -81 c-206 -194
-440 -297 -708 -310 -134 -7 -246 7 -364 44 -180 57 -361 174 -486 317 l-40
46 11 54 c14 67 56 127 112 160 24 14 97 44 163 66 109 38 262 107 293 132 7
7 12 37 12 80 0 58 -4 75 -24 101 -27 36 -56 115 -56 152 0 18 -5 25 -19 25
-26 0 -76 43 -90 78 -7 16 -11 61 -9 103 3 70 5 75 31 87 l28 14 -6 76 c-18
216 57 339 224 365 39 6 71 16 71 21 0 5 7 18 17 28 26 29 108 24 221 -14z"/>
</g>
</svg>
